{"glyphs":{"0":{"ha":976,"x_min":92,"x_max":883,"o":"m 875 565 q 881 532 879 546 q 883 506 882 518 q 883 483 883 494 q 882 461 883 472 l 879 458 l 879 421 q 877 397 878 410 q 874 374 876 385 q 872 363 874 365 q 872 357 872 360 q 871 351 871 354 q 869 342 869 347 q 865 335 868 338 l 861 324 l 860 322 l 854 300 q 842 257 850 281 q 813 190 831 224 l 793 158 l 783 143 q 778 136 781 142 l 772 129 l 767 122 l 760 114 l 749 101 l 725 75 q 719 72 719 72 q 715 71 718 71 q 714 70 714 69 q 715 72 714 71 l 721 78 q 724 81 721 81 l 728 86 l 738 94 q 744 103 743 100 q 747 107 747 106 q 694 63 721 81 q 670 47 682 54 q 644 35 658 40 q 638 29 643 32 q 616 19 626 24 q 594 10 606 14 q 572 4 583 7 q 550 -1 561 1 q 507 -6 526 -6 q 500 -5 504 -6 q 490 -4 496 -4 q 485 -3 488 -4 q 481 -3 483 -3 l 469 -3 l 464 -1 l 458 -1 q 449 0 451 -1 l 429 0 l 425 -3 q 403 3 414 0 q 381 11 392 7 l 336 28 q 326 31 331 31 l 321 33 l 317 35 q 296 52 308 44 q 268 71 283 60 l 261 76 l 254 82 l 246 88 q 243 91 244 90 q 239 94 242 92 q 211 124 222 108 q 214 124 217 121 l 208 133 l 204 139 q 201 146 201 144 l 197 151 q 197 153 197 153 q 196 156 196 154 q 190 160 193 153 q 188 163 188 163 l 185 165 l 181 172 l 175 178 q 176 168 171 178 q 174 174 174 171 l 168 185 l 164 193 l 161 199 l 158 203 l 150 219 l 147 224 q 147 226 147 225 q 146 228 146 226 l 133 253 q 131 261 131 258 l 128 265 q 126 271 128 269 q 124 279 126 274 q 121 289 124 283 l 118 311 l 111 322 q 108 328 111 325 l 106 333 q 105 338 106 336 q 104 342 104 339 q 103 349 103 344 q 101 364 101 354 l 101 390 l 110 375 q 107 391 107 385 q 106 403 107 397 l 106 411 q 106 415 106 414 q 107 418 107 415 l 107 426 q 108 431 107 429 q 108 436 108 433 l 108 469 q 104 454 107 458 q 100 457 103 453 l 96 475 l 96 481 q 94 488 94 483 l 94 503 q 92 531 92 515 q 94 565 92 547 q 110 636 99 599 q 121 669 115 654 q 131 699 126 685 q 139 722 136 711 q 140 739 142 735 q 218 840 176 801 q 265 882 240 864 q 325 917 290 900 q 362 929 344 924 q 394 940 379 935 q 425 948 410 944 q 456 954 440 951 q 486 958 471 957 q 517 960 501 960 q 551 956 533 958 q 588 949 568 954 q 656 935 622 946 q 689 900 674 919 q 700 872 700 882 l 697 876 q 686 878 696 875 q 681 881 683 879 q 676 883 679 882 l 665 889 l 654 894 l 642 900 l 622 907 l 618 911 q 611 914 617 911 q 604 917 610 914 q 592 919 597 918 q 585 919 588 919 l 558 919 q 547 921 556 921 q 532 924 539 924 q 526 924 529 924 q 519 922 522 924 q 526 918 514 919 l 518 918 l 511 917 q 544 915 528 917 q 575 910 560 913 l 574 911 l 586 907 q 601 904 593 906 q 615 900 608 903 q 617 899 617 900 q 618 899 617 899 l 617 899 q 656 883 638 892 q 694 864 675 875 l 708 853 q 711 852 710 853 q 714 851 713 851 l 715 850 q 717 849 717 850 q 718 849 717 849 q 722 846 719 849 q 763 818 740 838 q 783 799 774 810 q 801 778 792 789 q 817 753 810 765 q 829 726 824 740 q 832 718 832 721 l 835 713 q 835 710 835 711 q 836 708 836 710 q 839 699 839 703 l 843 690 q 846 681 846 682 l 850 671 l 853 660 q 856 650 856 654 q 875 565 869 607 m 404 690 q 403 689 404 690 l 403 690 q 375 657 386 674 l 369 650 l 369 646 q 369 644 369 644 q 368 642 368 643 l 368 639 q 367 636 368 638 q 365 631 367 632 q 364 624 365 626 q 363 618 364 619 q 360 604 363 613 l 357 590 q 356 588 356 589 q 354 583 356 586 q 353 581 354 582 q 353 578 353 579 q 347 564 350 569 q 342 544 344 558 l 339 535 q 338 524 339 528 q 338 481 335 501 q 338 471 338 475 q 339 464 339 467 q 340 450 340 458 l 340 428 l 338 426 l 344 383 q 347 372 346 376 q 347 363 347 367 q 344 356 347 358 l 347 344 l 356 324 q 362 306 358 315 q 369 289 365 297 q 389 257 378 274 q 415 235 401 243 q 417 229 419 229 q 414 231 417 229 l 408 233 q 406 236 408 233 q 403 238 406 236 q 399 240 400 240 q 396 242 397 242 q 449 206 419 217 l 460 206 q 463 205 463 206 q 465 204 464 204 q 478 206 474 204 l 489 206 q 492 207 490 206 l 500 207 q 502 208 501 207 q 506 208 503 208 l 510 208 q 515 210 513 210 l 521 210 q 528 210 524 210 q 539 213 533 210 q 541 213 540 213 q 543 214 542 214 l 547 217 q 551 219 550 218 q 556 222 553 221 q 554 226 556 225 q 560 229 557 226 q 562 230 561 229 q 565 231 563 231 l 574 236 q 579 239 579 239 l 583 243 q 584 244 583 244 q 585 246 585 244 q 586 247 586 246 l 590 253 q 593 263 590 257 l 599 265 q 602 268 601 267 q 604 271 603 269 l 608 278 q 611 285 608 279 q 617 302 614 293 q 624 321 619 311 q 628 324 624 315 q 636 335 633 332 q 633 339 633 335 l 633 347 q 633 351 633 350 q 628 344 632 351 l 632 356 q 633 365 633 358 q 635 375 635 368 l 635 393 q 636 401 635 399 l 636 407 q 638 411 636 410 q 640 421 638 415 l 633 433 q 636 449 633 440 q 639 461 639 457 l 646 453 l 646 467 q 649 474 646 471 q 649 478 649 476 q 650 483 650 481 q 651 490 651 485 l 651 500 q 644 493 650 488 l 639 501 q 636 515 639 504 q 632 529 633 522 q 629 543 631 536 q 626 560 626 551 q 624 576 626 568 q 615 604 621 594 q 613 610 615 607 q 612 611 613 611 q 611 613 611 611 q 610 614 610 613 l 601 618 l 589 642 l 585 646 q 582 651 585 649 l 574 660 q 565 667 569 664 q 554 674 560 671 q 544 678 549 676 q 532 683 539 681 q 519 687 525 686 q 506 688 513 688 l 499 688 q 493 686 497 686 q 490 685 490 686 q 488 685 489 685 q 485 683 486 685 l 482 682 q 471 679 479 682 l 467 676 q 465 676 465 676 q 461 675 464 675 q 440 668 450 669 l 428 649 l 394 649 q 383 651 392 649 l 386 651 q 386 658 383 654 q 389 663 386 660 l 393 667 q 401 676 396 672 q 408 682 406 679 q 411 682 408 679 q 418 685 417 685 q 421 689 421 688 q 424 692 424 692 l 428 696 l 432 701 q 434 702 433 701 q 438 703 435 703 q 439 703 439 703 q 440 704 439 704 q 444 706 443 704 q 450 710 446 706 q 449 711 450 710 l 443 711 l 451 715 q 421 703 433 710 l 422 703 l 419 701 q 418 701 418 701 q 417 700 418 700 l 415 699 q 404 690 411 697 m 394 908 q 372 901 382 906 q 351 893 361 897 q 469 917 407 915 q 463 919 467 919 q 454 918 457 919 l 446 918 q 422 913 435 915 q 394 908 410 911 m 492 721 q 474 719 479 721 q 476 718 475 718 l 485 718 q 488 719 486 718 q 490 719 489 719 l 497 719 q 511 718 506 719 q 524 717 515 717 q 529 715 525 715 l 535 715 q 492 721 517 721 z "},"1":{"ha":651,"x_min":8,"x_max":642,"o":"m 642 185 l 568 185 l 510 181 q 475 178 490 179 q 447 174 460 176 l 425 174 l 425 317 q 426 325 425 321 q 426 332 426 329 l 425 332 l 425 410 l 428 389 q 428 402 428 400 q 431 401 429 404 q 433 393 432 399 q 433 385 433 388 q 433 353 432 364 q 434 337 433 343 q 436 323 435 331 q 438 299 438 315 q 437 282 438 292 q 435 275 436 272 q 435 249 435 264 q 434 218 435 233 q 434 192 433 203 q 438 179 435 181 q 436 174 438 176 q 455 201 446 181 q 472 250 464 222 q 469 290 471 271 q 465 325 468 310 q 468 405 469 369 q 463 474 467 440 q 458 545 460 508 q 457 628 456 582 q 456 704 457 668 q 456 775 456 740 q 454 793 454 785 q 454 810 454 801 l 454 846 q 454 860 454 853 q 456 875 454 868 l 456 893 q 454 894 454 893 l 454 896 q 453 901 453 899 q 449 913 450 908 q 446 924 447 918 l 444 926 l 444 928 l 443 929 l 442 929 l 450 942 l 447 942 l 432 938 q 417 931 425 935 q 400 924 410 926 l 381 917 q 369 914 375 917 l 358 911 q 324 902 343 907 q 283 893 304 897 q 201 875 242 885 q 132 853 160 865 q 114 848 122 850 q 99 843 106 846 l 88 838 q 85 837 86 838 q 83 836 85 836 q 81 835 82 835 l 79 833 q 76 828 71 829 l 83 828 q 86 828 85 828 q 90 829 88 829 q 88 828 89 828 q 85 827 86 828 q 82 826 83 826 q 68 824 71 824 l 47 819 q 43 802 44 808 q 39 788 42 796 q 38 785 39 786 q 38 783 38 785 q 36 779 38 781 q 35 771 36 774 q 33 759 33 765 q 32 744 32 753 l 28 765 l 19 735 l 19 733 l 18 732 l 18 729 q 17 726 18 728 q 17 724 17 725 l 14 710 l 10 682 q 10 664 10 672 q 11 649 10 656 l 8 639 q 39 645 24 642 q 69 651 54 649 l 97 660 l 101 661 l 104 661 l 108 663 l 119 667 l 161 679 q 163 680 163 679 q 167 681 164 681 q 171 682 169 681 q 175 683 174 682 q 179 683 176 683 l 194 686 q 186 688 188 686 q 185 688 185 688 q 189 689 186 689 l 214 699 q 215 697 214 697 q 215 697 215 696 l 213 668 q 210 656 211 653 l 210 613 q 212 590 211 601 q 213 568 213 579 q 214 528 214 546 q 210 496 214 511 l 213 472 q 213 414 215 440 q 210 360 211 388 l 214 354 q 216 306 217 335 q 213 261 215 278 l 213 219 q 213 201 213 210 q 214 181 213 192 q 200 180 207 181 q 186 178 193 179 q 169 177 178 178 q 154 176 161 176 l 132 174 l 42 174 l 31 111 l 31 117 q 32 131 32 121 l 35 146 q 36 162 36 154 q 36 172 36 169 q 35 174 36 175 q 32 163 35 174 l 28 125 l 24 92 q 21 75 21 81 q 19 65 19 69 q 18 56 18 61 l 11 18 q 41 19 26 19 q 71 19 56 19 l 125 19 q 163 20 144 19 q 199 22 181 21 l 225 22 q 250 18 229 19 q 298 17 271 17 q 352 18 325 17 q 394 19 379 19 l 397 15 q 452 15 425 14 q 524 18 479 15 l 607 18 l 613 53 l 617 69 q 619 85 617 74 q 622 99 621 92 q 626 114 624 107 q 629 131 626 119 l 633 147 l 642 185 m 425 461 l 425 610 q 427 583 426 597 q 428 553 428 568 q 428 494 425 518 q 425 461 431 471 m 451 942 l 450 942 q 451 942 454 946 m 197 688 q 194 686 194 686 q 197 688 196 688 z "},"2":{"ha":772,"x_min":24,"x_max":750,"o":"m 743 186 q 727 183 742 183 q 693 183 713 182 q 653 183 674 183 q 621 183 633 183 q 612 185 624 185 q 592 188 600 186 q 560 185 569 186 q 543 183 551 185 q 522 182 538 182 q 514 181 519 181 l 510 181 q 508 181 508 181 q 506 182 507 182 l 486 182 q 476 181 481 182 q 467 179 469 181 q 478 176 456 176 l 450 174 l 549 174 l 549 175 q 568 174 561 175 l 613 174 q 616 174 615 174 q 618 175 617 175 l 617 174 l 750 174 l 744 147 q 744 131 744 140 q 743 111 743 122 l 739 68 q 738 63 738 67 l 738 56 l 735 42 q 733 27 733 35 q 731 13 733 19 q 710 12 721 13 q 689 11 700 11 l 651 11 q 615 12 632 11 q 579 14 597 13 q 455 18 521 18 q 318 18 389 18 q 227 15 261 15 q 157 15 193 14 l 154 19 q 129 18 143 18 q 99 18 115 18 q 90 17 94 18 q 82 17 86 17 l 24 17 l 31 57 l 35 75 l 35 78 q 35 80 35 79 q 36 82 36 81 q 37 85 36 85 q 38 89 38 86 q 46 111 42 110 l 51 146 q 52 153 51 149 q 53 161 53 157 l 56 175 q 57 176 57 175 l 60 178 l 67 182 l 89 196 q 136 226 113 211 q 183 257 160 242 q 231 289 207 272 q 279 322 256 306 q 361 393 328 357 q 369 399 364 396 l 374 403 q 374 401 375 403 l 354 379 q 333 361 343 369 q 321 349 324 353 q 428 451 383 399 q 442 472 435 463 q 454 490 449 481 l 461 504 q 476 572 476 539 q 478 582 476 579 q 477 586 478 585 q 476 590 476 588 l 476 603 q 476 605 476 604 q 475 607 475 606 q 472 624 474 615 q 468 640 471 632 q 462 654 465 647 q 454 668 458 661 l 444 679 l 433 689 q 414 703 428 696 q 385 713 399 711 q 368 715 376 714 q 353 714 360 715 q 326 710 336 714 q 321 704 322 708 q 288 696 304 701 q 257 683 269 690 q 228 665 242 675 q 200 640 214 656 l 181 618 l 174 613 l 167 608 q 164 605 165 606 q 160 601 163 604 l 153 594 q 146 588 150 592 q 139 578 142 583 l 131 568 q 124 558 125 563 l 122 558 l 119 561 q 118 562 118 561 q 117 563 118 563 l 110 568 l 96 579 l 67 601 l 60 607 l 53 613 l 36 626 l 28 633 l 31 643 l 35 654 l 39 664 q 40 661 38 658 q 43 668 40 663 q 44 671 44 669 q 46 674 44 671 q 49 678 46 675 q 59 698 53 688 q 69 714 65 708 q 71 724 67 713 l 75 733 l 81 744 l 85 753 q 85 754 85 754 q 86 756 86 754 l 86 757 q 71 738 85 757 q 110 794 90 768 q 147 840 128 819 q 169 861 158 851 q 192 879 179 871 q 219 895 204 888 q 251 908 233 903 l 268 918 l 272 921 l 286 928 q 312 933 300 932 q 335 936 324 935 l 368 936 q 373 935 371 936 q 378 935 375 935 q 364 932 369 932 q 361 931 364 931 l 358 929 l 354 928 l 358 928 l 365 928 q 376 929 369 929 l 386 929 q 390 928 389 929 q 394 928 392 928 q 408 927 403 928 q 419 925 414 926 q 432 922 428 922 q 436 921 435 921 q 439 919 438 921 q 447 918 444 919 q 497 904 467 914 l 476 914 q 482 917 474 917 q 493 915 489 917 q 501 914 499 915 q 506 913 504 914 q 510 913 507 913 l 553 896 q 593 875 572 889 q 614 860 604 868 q 635 840 624 851 l 639 835 l 644 829 l 649 824 q 651 821 650 822 q 654 818 651 819 l 656 815 l 658 813 l 663 807 l 667 800 l 668 797 l 671 794 l 675 788 l 678 781 l 681 778 l 682 775 l 685 768 l 697 742 q 703 728 700 733 q 703 724 703 725 q 704 721 704 724 l 707 714 l 714 688 q 718 663 717 675 q 722 639 719 650 l 726 600 l 726 597 q 727 595 726 596 q 728 593 728 594 q 729 586 728 588 l 729 579 l 732 574 q 727 547 729 560 q 721 521 725 533 q 704 474 715 497 q 683 430 694 450 q 658 390 672 410 q 597 317 631 351 q 522 250 564 283 q 512 242 517 246 q 501 235 507 238 l 494 229 l 489 225 l 483 221 l 478 215 q 476 211 476 211 l 478 211 q 480 212 479 211 q 483 213 481 213 q 492 214 489 213 l 503 217 l 511 217 q 526 215 521 217 q 542 215 533 215 q 557 214 550 215 q 602 218 578 217 q 653 221 626 219 q 715 203 689 213 q 750 186 742 194 l 743 186 m 392 197 l 353 174 l 386 174 q 379 176 386 176 l 361 176 l 363 178 l 364 178 q 367 181 364 178 l 378 188 l 392 197 m 458 240 q 465 245 461 243 q 472 250 468 247 l 476 254 q 436 226 457 240 q 392 197 415 213 q 400 202 396 200 q 410 207 404 204 q 418 213 413 210 l 429 219 q 438 225 435 222 l 444 229 l 458 240 z "},"3":{"ha":815,"x_min":10,"x_max":785,"o":"m 678 928 q 731 928 704 928 q 785 929 757 928 l 738 860 l 692 794 q 662 753 675 772 q 636 715 649 735 l 593 646 q 573 611 583 628 q 551 578 563 594 l 540 560 l 539 558 l 539 557 l 538 557 q 536 554 538 556 l 535 553 q 536 550 535 551 q 538 551 538 550 q 540 551 539 551 l 542 551 q 544 550 542 551 q 556 547 553 547 l 607 525 l 621 511 l 626 504 l 633 499 q 644 485 639 492 q 651 472 649 479 l 656 467 q 658 461 658 464 q 661 456 660 458 q 663 451 663 454 q 667 435 667 440 l 663 440 q 657 442 660 440 q 653 445 656 444 q 649 449 651 446 q 643 454 644 450 l 636 458 l 621 471 q 588 492 606 482 q 558 507 569 503 q 560 508 560 507 q 558 510 558 508 q 554 513 557 511 l 543 517 q 538 520 540 519 q 533 522 536 521 q 531 524 532 522 l 528 524 q 524 525 526 525 q 522 526 522 525 q 519 526 521 526 q 517 528 517 526 q 510 528 513 528 q 504 529 507 529 q 493 531 500 531 l 481 533 l 479 533 l 479 535 l 481 536 q 482 539 481 536 l 486 546 q 492 553 489 549 q 501 564 496 558 q 504 571 501 565 l 508 578 l 508 581 l 507 581 l 497 568 l 510 590 l 468 531 l 490 524 l 490 525 l 499 521 q 506 518 503 521 q 528 510 517 515 q 550 501 539 506 q 552 501 551 501 q 554 500 553 500 l 553 500 q 658 428 615 471 l 676 407 l 676 406 l 682 401 l 686 396 l 692 389 q 694 386 693 388 q 697 383 694 385 l 701 376 l 704 372 q 705 370 704 371 q 706 368 706 369 l 711 361 q 726 325 721 342 q 735 283 732 304 q 736 272 736 279 q 738 261 736 264 q 737 256 736 258 q 736 250 738 253 l 736 238 q 728 193 733 215 q 719 172 724 182 q 708 153 715 163 l 692 129 l 671 106 q 668 103 669 104 q 665 100 667 103 q 663 98 664 99 q 660 94 661 97 l 647 85 q 635 74 642 79 q 622 65 629 69 q 564 33 593 44 q 557 30 561 31 q 549 26 553 29 l 533 21 q 517 16 525 18 q 500 11 508 14 q 474 5 486 7 q 451 0 463 3 q 411 -4 431 -4 q 376 -4 394 -6 l 360 -4 q 356 -3 357 -4 q 351 -3 354 -3 l 343 -3 l 339 1 q 314 3 328 1 q 282 7 300 4 q 247 15 265 10 q 213 28 229 21 q 158 54 179 40 l 150 61 l 144 65 q 142 68 142 68 l 114 89 l 113 90 l 106 96 l 99 101 l 94 104 l 92 107 q 88 110 89 110 q 85 114 86 111 q 58 143 72 125 q 46 160 51 151 q 35 176 40 168 l 31 186 l 25 194 l 21 204 l 17 214 q 14 219 14 217 q 13 225 14 222 l 10 229 l 10 231 l 11 232 l 14 233 l 31 247 l 63 275 l 79 289 l 88 297 l 92 300 l 94 303 l 96 303 l 96 301 q 118 279 106 289 l 124 274 l 129 269 l 135 265 l 140 261 q 189 236 163 244 l 201 229 q 200 228 203 228 q 190 231 197 229 q 174 238 182 233 l 142 254 q 135 258 138 258 q 164 240 149 249 q 196 225 179 232 q 315 200 253 201 l 329 200 q 397 210 367 203 q 430 220 414 214 q 458 236 446 226 q 471 245 465 240 q 482 256 476 250 q 496 281 492 267 l 499 285 q 499 288 499 286 q 500 290 500 289 q 501 293 500 292 q 501 296 501 294 l 501 300 l 503 301 l 503 303 q 503 317 503 310 q 500 332 503 325 q 488 360 496 347 q 468 378 478 372 l 461 378 q 448 388 454 383 q 435 396 442 392 q 404 408 421 403 q 335 419 371 419 l 313 419 l 310 418 l 300 418 l 283 421 l 283 425 q 282 429 283 428 l 282 436 l 278 453 q 276 461 278 458 q 276 465 276 464 q 275 469 275 467 l 271 485 l 263 518 q 257 535 260 529 q 251 557 254 549 l 261 572 q 271 586 267 578 l 289 610 q 289 607 285 603 q 299 619 293 611 q 313 637 306 628 q 325 650 321 646 q 324 652 322 649 q 328 660 325 656 l 333 669 l 336 674 q 338 676 336 675 q 338 678 338 678 q 339 679 339 678 q 340 682 340 681 q 342 685 340 683 q 343 688 342 686 q 339 685 342 688 l 335 681 q 336 683 335 681 q 340 688 339 686 q 343 690 340 689 l 353 706 l 369 731 q 357 730 363 731 q 344 729 351 729 q 333 728 339 729 q 322 728 328 728 l 299 728 q 280 728 289 728 q 260 731 271 729 l 224 722 q 178 724 199 722 q 129 726 158 725 l 147 731 l 156 732 l 160 733 l 163 733 q 164 735 163 733 q 151 733 160 733 l 121 733 q 94 735 101 733 l 104 771 q 106 784 106 778 q 110 797 107 790 q 111 806 110 803 q 112 809 111 808 q 113 813 113 810 q 114 825 113 821 q 106 815 106 796 q 106 842 104 824 q 106 851 106 846 q 107 861 107 856 l 107 863 q 108 864 107 863 l 108 868 q 110 876 108 874 q 110 885 110 881 q 111 893 111 889 q 113 907 113 900 q 114 921 114 914 q 128 922 121 922 q 144 922 136 922 q 153 923 149 922 q 161 924 157 924 l 224 924 q 274 923 249 924 q 324 921 300 922 q 412 921 372 919 q 467 929 451 922 q 535 928 503 928 q 599 928 567 928 l 678 928 m 614 735 q 653 794 636 764 l 619 746 l 546 642 q 572 675 557 649 q 614 735 586 701 m 335 679 q 333 678 333 679 q 335 681 333 679 l 335 679 m 331 675 q 333 678 333 678 l 331 675 z "},"4":{"ha":844,"x_min":22,"x_max":835,"o":"m 710 406 q 704 407 714 407 q 700 408 703 408 l 688 408 q 667 407 672 408 l 663 426 l 663 457 q 663 465 663 460 q 664 475 663 469 q 663 485 664 479 q 660 494 661 490 q 658 494 660 497 q 657 478 657 492 l 656 504 l 656 396 l 835 396 l 829 371 q 828 353 829 363 q 828 333 828 344 l 824 290 q 822 285 822 289 l 822 278 l 819 264 l 815 235 q 797 233 806 233 q 776 233 788 233 l 742 233 q 725 233 733 233 q 708 235 717 233 l 694 235 q 688 235 692 235 q 681 236 683 236 q 672 237 676 236 q 663 238 667 238 q 661 215 661 231 q 660 210 661 213 q 660 204 660 207 l 660 192 q 660 165 660 178 q 658 136 660 151 q 659 108 658 122 q 660 79 660 94 l 660 18 l 653 18 q 639 17 646 17 q 625 17 632 17 q 613 15 618 15 q 601 15 607 15 l 496 15 l 492 19 q 472 18 483 18 q 446 18 460 18 l 446 132 q 450 186 446 179 l 450 243 q 428 242 439 242 q 407 242 418 242 l 361 242 q 315 241 338 242 q 268 240 292 240 q 175 240 221 240 q 86 236 129 239 l 81 236 q 76 238 78 236 l 71 238 q 72 239 69 239 q 76 240 75 239 l 83 240 q 101 242 94 240 q 126 242 114 242 q 143 244 139 243 l 22 244 l 33 310 q 35 326 35 315 l 39 361 l 42 379 l 42 389 l 43 399 l 60 428 l 76 456 q 110 506 93 482 q 142 551 124 521 q 172 600 161 581 l 174 608 q 212 662 193 636 q 249 721 231 688 l 263 747 q 287 778 275 760 q 313 819 299 797 l 340 867 q 347 879 342 871 l 351 885 l 356 892 l 375 922 q 373 917 372 917 q 376 921 374 917 l 407 913 q 415 910 413 910 l 421 907 q 431 904 429 904 q 440 904 429 906 q 460 901 450 903 q 475 900 471 900 q 465 904 479 900 l 493 897 l 511 893 q 529 890 522 890 q 551 885 540 888 q 572 881 561 883 l 617 872 l 582 824 q 573 811 578 817 q 563 799 568 806 l 560 794 q 558 792 560 794 l 554 788 l 546 778 l 531 744 q 503 710 517 725 q 479 681 490 694 l 488 704 q 468 675 475 685 q 455 659 461 665 q 442 646 449 653 q 426 626 436 639 q 456 635 442 631 q 486 642 471 639 l 533 654 q 549 657 542 656 q 565 661 557 658 l 579 665 l 597 669 q 643 681 621 675 q 689 693 665 686 l 693 592 q 694 577 693 585 q 694 563 694 569 q 696 548 696 556 q 696 533 696 540 q 697 503 697 518 q 697 472 697 488 l 697 443 q 697 441 697 442 q 696 438 696 440 q 701 440 701 440 l 703 440 l 703 442 l 718 442 q 730 443 725 443 q 742 443 735 443 q 801 426 776 435 q 835 407 826 417 q 828 408 832 408 q 813 405 826 406 q 780 405 799 404 q 742 406 761 406 q 710 406 722 406 m 419 607 q 409 585 418 601 q 385 546 400 569 q 333 469 367 514 l 326 458 l 324 456 l 324 454 q 321 451 324 454 l 313 442 q 304 431 308 436 q 294 419 300 425 q 306 419 301 419 q 318 418 311 418 q 340 419 333 418 l 356 419 l 371 422 q 393 428 386 425 l 404 428 l 406 426 l 421 426 l 421 563 q 420 572 421 567 q 419 582 419 576 l 419 607 m 658 593 q 658 606 658 600 q 657 619 657 613 q 656 635 657 626 q 657 653 656 643 q 629 647 646 650 l 604 640 q 601 640 601 640 q 597 639 600 639 q 594 638 596 639 q 592 638 593 638 l 581 633 q 561 628 569 631 l 656 651 l 656 565 q 657 574 657 568 q 658 583 658 576 l 658 593 m 403 597 q 419 607 419 615 l 419 618 l 403 597 m 465 904 l 454 908 l 465 904 z "},"5":{"ha":815,"x_min":8,"x_max":768,"o":"m 768 217 q 765 194 767 206 q 757 169 763 182 q 739 125 753 146 l 736 118 l 732 113 l 724 101 l 715 90 q 712 88 713 89 q 710 85 711 86 l 707 82 q 704 79 707 82 l 682 58 l 657 40 q 631 26 644 32 q 603 14 617 19 q 575 3 589 7 q 549 -4 561 -1 l 499 -15 q 478 -19 488 -18 q 460 -22 468 -19 q 445 -25 451 -24 q 433 -29 439 -26 q 420 -29 426 -29 q 407 -28 414 -29 l 394 -28 q 387 -27 390 -28 q 381 -26 383 -26 q 356 -24 368 -25 q 331 -21 343 -24 q 306 -15 318 -18 q 282 -10 294 -12 q 271 -7 276 -10 l 258 -3 q 247 0 256 -3 l 236 4 q 190 25 213 13 q 168 38 176 31 l 157 43 l 147 51 q 104 85 126 64 q 85 105 94 94 q 67 126 75 115 q 33 181 46 156 l 31 186 l 28 192 l 24 201 l 19 211 l 17 217 q 16 219 17 218 q 15 222 15 219 l 11 232 q 10 234 11 233 q 10 236 10 235 l 8 238 l 8 239 l 11 240 q 26 254 15 246 q 29 258 26 256 l 33 261 l 42 268 q 44 272 43 271 q 49 275 46 272 l 51 278 l 53 278 l 54 281 l 71 296 l 101 324 l 117 338 l 125 344 q 129 348 128 347 q 132 351 131 349 l 146 336 q 160 319 151 331 q 168 313 163 318 q 171 308 168 311 l 175 306 l 182 299 q 186 296 183 299 l 201 286 q 218 276 207 282 l 238 267 l 258 258 q 269 256 264 257 q 281 251 274 254 q 292 248 286 249 q 304 244 297 247 q 324 244 314 244 q 346 244 335 243 l 368 244 l 392 247 q 423 243 408 244 q 449 240 438 242 l 469 240 q 478 239 475 240 q 485 238 483 239 q 479 236 482 238 q 467 226 479 232 q 435 215 453 219 q 414 211 424 213 q 394 210 404 210 q 376 208 383 208 q 361 208 368 208 q 356 211 364 210 q 333 214 344 211 q 315 215 322 214 q 303 215 308 215 l 293 215 q 285 217 290 217 l 279 217 q 277 217 278 217 q 275 218 276 218 q 269 219 272 218 q 263 221 267 219 q 225 235 247 224 l 215 239 q 206 242 211 239 q 204 240 203 242 q 218 232 207 238 l 192 243 q 229 225 206 235 q 288 207 254 214 l 308 203 q 331 201 319 201 q 354 200 343 200 l 358 200 l 358 199 l 365 199 q 490 229 444 199 q 513 247 503 238 l 517 254 l 524 268 q 526 276 526 274 l 529 285 l 529 293 q 531 303 531 296 q 525 340 531 324 q 524 342 524 340 l 522 344 q 521 349 522 347 l 517 358 l 504 375 q 472 401 494 388 l 433 421 q 413 429 422 425 q 392 436 403 433 l 378 440 l 363 443 q 347 446 354 446 q 340 447 344 447 q 336 449 338 447 l 332 449 q 268 453 300 453 l 200 453 q 192 452 196 453 q 183 451 188 451 l 164 451 q 145 451 154 451 q 126 450 136 450 l 126 456 q 125 472 125 464 q 125 486 125 479 q 124 499 124 493 q 124 513 124 506 l 124 626 l 128 631 q 126 692 126 653 q 125 768 125 731 q 125 803 125 788 q 126 831 125 819 q 128 842 128 838 q 129 849 128 846 q 131 853 129 853 l 131 889 q 129 899 131 896 q 153 899 140 899 q 179 900 165 900 l 231 900 q 282 901 256 901 q 336 901 308 901 q 442 902 389 901 q 543 906 494 903 q 559 903 564 904 q 539 901 554 901 q 505 899 524 900 q 481 899 486 899 l 696 899 l 704 861 q 709 842 707 851 q 714 822 711 832 l 718 803 l 722 782 l 731 738 l 656 738 q 628 740 644 739 q 595 740 613 740 q 561 740 578 740 q 532 739 544 740 l 525 736 q 488 737 506 736 q 453 739 471 738 q 435 740 444 739 q 417 740 426 740 q 407 740 411 740 q 397 739 403 739 l 382 739 q 378 738 379 739 q 354 735 368 738 q 344 736 351 736 q 342 724 343 731 q 342 710 342 718 q 342 693 342 703 q 343 672 342 683 q 343 650 343 661 q 344 628 343 639 q 346 608 344 615 l 346 590 l 378 590 q 375 589 374 589 q 381 588 376 588 q 386 587 383 588 q 392 586 389 586 q 415 582 403 583 q 433 578 426 581 q 435 579 432 579 l 456 579 q 468 578 460 578 q 481 576 481 575 q 479 578 481 578 q 475 579 476 578 q 472 580 474 579 q 468 581 471 581 q 465 582 467 581 l 526 565 q 585 544 557 557 q 638 517 611 535 l 644 513 q 651 507 646 510 l 664 496 l 676 485 l 688 471 q 705 458 697 464 q 721 444 713 451 q 747 399 736 424 q 760 356 756 379 q 753 367 757 363 q 744 379 749 372 l 754 356 q 758 338 758 344 q 761 324 761 326 l 761 311 q 763 304 763 308 l 763 297 q 762 290 763 294 q 763 281 761 286 q 761 271 761 278 l 761 258 q 760 248 761 253 q 760 236 760 243 q 761 243 761 239 q 764 251 764 251 q 765 251 765 253 q 768 246 765 251 l 768 217 m 67 182 q 46 229 54 206 l 128 297 l 140 283 l 129 300 l 128 300 l 128 301 q 125 300 126 300 q 122 296 125 299 q 114 289 119 294 l 94 272 l 74 253 l 46 232 l 44 231 l 43 231 l 44 229 l 44 228 q 45 226 44 226 q 46 224 46 225 l 50 214 l 54 204 l 58 196 l 67 182 m 458 583 q 463 583 461 583 q 465 582 464 582 q 458 583 461 582 m 68 181 q 67 182 67 181 l 72 172 l 68 181 m 760 236 q 759 233 760 233 q 758 229 758 232 q 760 232 758 231 l 760 236 z "},"6":{"ha":847,"x_min":92,"x_max":797,"o":"m 789 368 q 793 345 792 357 q 796 322 794 333 q 797 299 796 311 q 796 274 797 286 q 793 249 794 261 q 789 224 792 236 q 788 218 789 219 q 786 211 788 214 l 786 208 l 785 206 l 783 199 l 781 193 l 779 189 l 779 186 l 774 175 q 757 139 764 151 q 739 114 747 122 q 738 113 739 113 q 738 111 738 113 q 735 108 738 111 l 731 104 q 728 101 729 103 q 725 99 728 100 l 717 90 l 711 86 l 708 83 q 706 82 708 83 l 700 78 l 697 78 q 681 65 690 72 q 661 51 672 58 l 636 39 l 624 32 q 617 29 622 32 q 614 28 615 29 q 611 28 613 28 q 587 19 599 22 q 567 15 575 17 q 556 14 560 14 q 550 14 551 14 l 525 10 q 500 6 513 7 q 474 3 488 4 q 453 1 463 1 q 432 1 443 0 q 410 1 421 1 q 389 4 400 1 q 306 24 347 8 q 231 60 267 38 q 222 69 224 67 q 224 69 221 71 l 231 65 l 236 61 l 243 58 q 272 43 263 46 l 263 49 q 164 140 203 82 q 145 165 154 151 q 129 193 136 178 q 108 243 117 218 q 99 293 101 265 q 98 312 99 300 q 97 336 97 324 l 97 349 q 96 361 97 357 l 96 382 l 92 388 q 92 394 92 390 q 93 401 93 397 q 94 407 93 406 l 94 414 l 99 440 q 99 443 99 442 q 100 446 100 444 q 101 449 100 449 q 101 453 101 450 q 102 459 101 456 q 103 465 103 463 l 106 479 q 107 494 106 489 l 107 506 l 108 518 q 120 547 115 531 q 132 582 125 563 q 133 585 132 585 q 133 588 133 586 q 135 593 135 589 l 139 603 q 140 605 139 604 q 140 607 140 606 l 143 613 l 147 624 l 151 633 l 154 639 q 157 644 154 639 q 159 649 158 647 q 163 654 160 651 l 167 663 q 169 663 167 661 q 171 664 171 663 q 172 667 171 664 q 174 669 172 667 q 176 672 174 669 l 182 679 l 188 686 q 192 691 190 689 q 196 696 194 693 q 196 697 196 696 q 197 700 196 699 q 197 703 197 701 l 207 718 q 211 727 211 725 q 199 715 211 729 l 207 725 l 211 731 q 217 736 215 732 q 224 744 222 742 l 232 754 l 240 763 q 247 771 242 765 q 254 779 253 776 q 258 782 256 779 l 263 786 q 266 790 265 789 q 269 793 267 792 l 278 801 q 286 808 281 803 q 294 815 289 810 q 299 818 296 815 q 304 821 301 821 l 314 828 q 319 831 317 831 q 324 833 321 832 q 329 836 329 836 q 336 839 335 839 l 346 850 l 357 860 q 365 865 360 863 l 374 869 l 382 872 q 390 875 388 875 q 406 881 394 878 q 409 881 408 881 q 413 882 410 882 q 417 883 415 882 l 406 871 q 421 878 414 876 q 433 883 428 881 l 453 888 q 461 889 457 889 q 472 892 465 889 q 480 892 476 892 q 489 894 483 893 l 499 897 l 510 900 q 492 899 496 897 q 494 904 489 901 q 514 913 500 908 q 528 917 521 915 q 546 922 536 919 q 615 933 575 931 q 621 935 619 933 l 688 935 q 690 918 690 924 l 693 903 l 696 889 q 697 881 696 885 q 697 874 697 878 q 699 864 699 871 l 703 846 q 706 828 703 839 q 706 824 706 825 q 707 819 707 822 q 708 815 707 817 q 708 811 708 814 q 714 790 711 800 q 719 769 717 779 q 725 752 722 760 q 731 738 728 744 q 732 732 731 733 l 732 728 l 686 728 q 671 726 681 726 l 657 726 q 654 726 656 726 q 650 725 653 725 l 646 725 q 642 724 643 725 q 639 724 642 724 q 631 722 633 724 l 617 719 q 613 719 614 719 q 610 718 611 718 q 606 717 607 717 q 603 715 604 717 l 599 715 l 596 714 l 588 711 l 582 708 q 575 706 578 708 q 561 700 567 703 q 554 697 556 697 l 547 693 l 542 690 l 535 686 l 528 682 l 522 678 q 496 660 508 669 q 471 638 483 650 l 461 629 l 453 621 q 450 618 450 618 q 449 617 450 617 q 449 615 449 617 q 447 615 447 615 q 446 614 447 614 l 446 613 l 443 610 q 438 597 440 606 q 440 592 438 594 l 442 592 q 444 593 443 593 q 450 596 450 596 q 457 599 453 599 l 467 599 l 497 596 l 514 596 q 533 596 525 599 q 575 592 554 596 q 619 561 600 578 q 626 553 625 556 q 632 546 629 551 q 638 533 638 538 q 633 536 635 536 q 622 538 632 535 q 596 547 611 542 l 567 556 l 543 560 q 538 563 546 560 q 529 564 535 564 l 521 567 l 497 567 q 483 565 492 565 q 476 564 482 564 l 442 564 q 438 563 439 564 q 435 563 438 563 l 426 560 l 425 558 q 428 557 425 557 l 433 557 q 424 556 429 556 q 417 554 421 554 l 415 553 q 465 557 438 557 q 477 557 472 557 q 489 556 482 557 l 488 557 q 503 556 493 556 l 536 551 l 539 551 q 633 524 588 543 l 651 515 l 669 508 q 693 496 682 503 q 699 493 696 494 q 704 489 701 492 l 711 485 l 717 479 q 729 469 724 475 q 742 458 735 464 l 763 431 q 789 368 783 399 m 542 392 l 531 397 l 514 408 q 494 415 504 413 q 474 415 485 418 q 478 419 467 419 q 485 421 483 419 l 486 421 q 450 425 469 425 q 443 423 447 424 q 435 419 439 422 q 422 415 428 417 q 411 414 417 414 q 400 415 408 415 l 390 411 l 392 407 q 388 406 389 407 q 385 406 388 406 l 379 406 l 374 403 q 371 401 372 403 l 369 400 q 368 399 369 399 q 367 395 368 396 q 367 393 367 394 l 361 393 q 360 392 360 393 q 358 392 360 392 q 356 389 356 389 q 353 385 353 386 l 350 381 q 349 378 350 379 q 349 376 349 378 l 346 372 q 343 368 346 371 q 340 367 343 369 q 336 364 339 367 q 335 363 336 364 l 333 363 q 336 360 336 363 l 336 356 q 342 356 336 350 q 339 350 339 350 q 338 344 338 349 l 338 331 q 339 326 339 329 q 338 322 338 325 q 336 319 338 319 q 335 317 336 318 q 339 314 338 314 q 343 311 342 311 q 342 303 343 306 q 339 296 342 301 l 332 300 q 333 298 332 299 q 333 296 333 297 l 333 290 l 332 289 q 331 287 332 288 q 331 283 331 286 l 331 279 q 331 277 331 278 q 332 275 332 276 q 339 281 332 281 l 343 278 q 347 275 346 276 q 349 272 347 274 q 358 263 353 271 q 363 256 361 260 q 367 250 364 253 q 376 240 371 243 q 388 243 382 238 q 393 240 390 240 l 399 236 l 411 233 l 417 233 q 421 232 419 233 l 449 232 q 456 233 453 232 l 463 236 l 468 240 l 474 243 q 476 246 476 246 q 479 247 479 246 q 492 249 483 249 l 499 260 l 507 254 l 515 250 l 531 239 l 529 239 q 525 231 531 236 q 523 230 524 231 q 521 229 522 229 q 518 228 521 228 q 514 225 515 225 q 508 226 514 226 q 504 222 504 224 q 503 218 503 221 q 501 217 501 218 q 499 217 501 217 q 492 215 497 215 q 491 213 492 214 q 490 211 490 213 q 493 208 488 208 l 489 206 q 498 208 493 207 q 507 211 503 208 l 506 211 q 510 213 507 213 l 517 217 l 518 217 q 528 223 524 219 q 538 231 533 226 q 542 233 539 231 q 543 239 542 236 q 544 242 543 240 q 544 244 544 243 q 545 247 544 246 q 546 249 546 247 q 547 251 546 250 l 551 265 q 556 272 554 268 q 560 278 557 275 q 568 299 565 286 q 568 310 568 304 q 567 322 568 315 q 564 331 565 328 q 563 338 563 335 q 562 340 563 339 q 561 342 561 340 l 561 347 q 560 350 561 349 l 563 351 q 562 353 563 353 q 561 356 561 354 q 558 361 558 358 l 554 367 q 551 372 551 369 q 546 381 549 375 l 546 386 l 542 392 m 436 649 q 361 538 390 603 l 368 542 l 367 542 l 367 543 l 375 560 q 376 562 375 561 q 376 564 376 563 l 379 569 l 382 575 q 385 581 385 578 l 389 588 l 393 594 q 396 597 396 594 q 399 600 399 600 l 404 607 l 413 618 l 421 629 l 429 639 l 436 649 m 444 200 q 461 201 453 200 q 478 203 469 201 q 471 204 475 206 q 456 203 463 201 q 443 200 451 203 l 444 200 m 419 885 q 417 883 418 883 q 419 885 418 883 z "},"7":{"ha":733,"x_min":8,"x_max":725,"o":"m 725 940 q 709 913 717 926 q 692 883 701 899 q 681 858 688 872 q 668 829 675 844 l 661 814 q 660 812 661 813 q 660 810 660 811 l 658 808 l 658 807 l 656 803 q 649 786 654 797 q 613 754 629 767 q 585 740 596 742 l 588 744 q 590 756 585 746 q 601 778 594 765 q 615 803 608 790 q 626 825 622 817 q 628 824 626 822 q 629 825 629 824 q 631 828 629 826 l 642 846 q 651 867 649 861 q 656 879 653 874 q 658 889 657 883 q 667 906 660 894 l 643 906 q 624 903 632 906 q 622 901 621 901 q 632 900 622 901 l 611 899 l 654 899 l 642 874 l 643 875 l 636 861 l 621 833 q 619 829 619 832 l 619 831 l 575 746 l 574 746 l 565 729 q 553 698 560 715 q 539 661 547 681 q 515 605 528 633 q 488 549 503 576 q 448 468 465 513 q 415 376 431 424 q 406 341 410 357 q 399 313 403 325 l 396 300 l 392 289 q 390 282 392 285 q 390 280 390 281 q 389 276 389 279 q 386 264 386 268 l 382 263 q 381 254 382 258 q 379 244 381 250 l 376 233 q 375 221 376 225 l 371 194 q 370 188 371 192 q 369 182 369 185 q 369 178 369 179 q 368 175 368 176 l 368 168 q 362 129 365 146 q 356 110 358 113 q 355 97 356 103 q 354 85 354 92 l 354 44 q 354 32 354 38 q 356 19 354 26 l 294 19 q 265 19 279 19 q 236 18 251 19 l 192 18 q 176 17 181 18 l 142 17 l 142 22 q 140 29 142 26 l 140 44 q 142 58 142 56 q 143 57 143 60 q 144 49 144 56 l 144 42 q 146 35 144 38 l 146 21 q 147 21 146 19 l 158 21 q 164 22 163 21 l 147 22 q 156 146 147 85 q 160 208 156 176 q 181 306 167 263 q 183 314 182 310 q 188 324 185 318 l 196 344 q 200 356 199 351 q 203 368 201 361 l 210 388 l 207 393 l 218 417 l 229 439 q 240 462 235 450 q 249 488 244 474 l 256 510 q 271 535 265 522 q 275 542 274 539 q 278 550 276 546 l 286 568 q 301 605 293 585 q 319 644 308 625 q 322 645 319 642 q 329 655 325 649 q 338 668 333 661 q 346 678 343 675 q 344 679 344 678 q 346 685 344 682 l 350 697 q 351 703 353 703 q 346 699 350 703 l 356 714 l 364 731 l 364 732 l 363 732 l 361 731 l 353 731 q 348 730 350 731 q 343 729 346 729 q 334 728 339 729 q 325 728 329 728 l 307 728 q 292 728 300 728 q 276 731 285 729 l 250 722 q 217 724 232 722 q 188 726 201 725 l 206 735 q 175 734 185 733 q 157 736 165 735 q 138 738 149 738 q 103 739 126 739 q 114 732 126 738 l 94 728 l 93 728 q 92 726 93 726 l 75 726 q 50 725 68 725 l 8 721 q 17 775 10 746 q 19 790 18 782 q 22 804 19 797 l 25 825 l 33 864 q 39 893 36 879 q 44 921 42 907 l 107 921 q 109 922 108 921 q 113 922 110 922 q 130 925 122 924 q 142 929 138 926 q 210 928 178 928 q 275 928 243 928 q 340 928 307 928 q 410 929 372 929 q 479 930 449 928 q 538 935 510 932 q 551 935 544 935 q 565 938 558 936 l 578 938 l 581 939 l 608 939 q 635 940 622 940 q 664 940 649 940 l 725 940 m 497 899 q 488 899 493 899 q 479 900 483 899 q 451 900 464 900 q 426 899 439 900 l 497 899 m 564 899 q 544 900 557 901 q 514 899 532 899 l 564 899 m 346 699 l 342 693 l 346 699 z "},"8":{"ha":897,"x_min":51,"x_max":847,"o":"m 839 317 q 846 285 844 299 q 847 268 847 276 q 847 250 847 260 q 846 233 847 242 q 842 217 844 225 q 838 199 840 207 q 831 183 835 192 q 775 107 811 143 q 766 98 771 101 q 756 90 761 94 l 736 74 q 725 67 731 71 q 714 60 719 64 l 703 54 l 690 47 q 656 31 669 36 q 653 29 656 31 q 651 28 651 29 q 649 28 650 28 q 644 26 646 26 q 642 25 643 26 l 628 21 q 601 15 614 17 q 575 10 589 13 l 572 11 q 553 8 565 10 q 529 4 542 6 q 501 1 515 1 q 474 -1 488 0 q 448 -1 460 -1 q 426 0 436 -1 q 414 3 419 0 q 411 4 413 3 q 398 5 404 4 q 385 6 392 6 l 374 6 l 333 10 q 292 17 314 13 q 251 29 271 22 q 210 44 231 36 q 171 64 190 53 q 104 114 136 85 q 98 124 99 122 q 100 125 97 126 q 106 118 103 122 q 117 110 110 114 q 138 92 126 100 q 143 89 140 89 q 104 126 122 104 q 63 210 72 164 q 60 219 60 215 l 56 232 q 55 240 56 236 q 54 246 54 243 q 52 260 53 253 q 51 274 51 267 l 51 288 q 53 300 51 296 q 57 328 53 313 q 65 353 58 340 l 69 364 l 74 369 q 76 375 74 372 l 89 392 q 92 396 89 393 l 96 400 l 104 410 q 122 428 113 421 q 138 443 131 436 l 138 449 q 139 449 139 449 q 140 450 139 450 q 143 451 140 450 l 147 454 l 157 458 l 182 467 q 189 468 185 468 q 192 469 190 469 q 196 471 194 469 q 203 472 200 471 l 207 472 l 208 474 l 207 474 l 186 478 l 164 485 l 161 489 q 157 492 160 489 l 149 500 l 143 504 l 139 508 l 114 535 q 93 569 101 550 q 79 610 83 588 q 82 608 82 603 q 81 621 82 613 l 81 651 q 78 660 78 649 q 76 668 76 663 l 76 685 q 75 688 75 686 q 74 685 74 686 q 73 683 74 683 q 72 679 72 682 q 74 697 72 692 q 75 700 75 699 l 75 704 q 76 707 75 706 q 76 710 76 708 q 77 713 76 713 q 78 715 78 714 q 79 722 78 719 q 92 765 83 747 q 114 806 101 789 q 150 840 129 825 q 158 853 154 847 q 168 865 163 858 q 185 876 176 872 q 200 885 193 881 q 216 890 208 888 q 231 896 224 893 q 215 881 222 889 q 244 894 232 892 l 263 900 q 267 901 265 900 q 272 901 269 901 l 283 904 q 299 908 290 906 q 319 913 307 910 l 304 913 q 303 914 301 913 q 307 917 304 915 q 358 933 319 926 q 390 940 376 939 q 410 942 400 942 q 429 943 419 943 q 450 943 440 943 q 471 942 460 943 q 492 940 482 942 q 514 938 503 939 q 535 935 525 936 q 554 931 544 933 q 572 928 561 931 l 581 925 l 585 925 q 587 924 586 925 q 589 924 588 924 q 618 919 606 921 q 638 918 631 917 l 647 914 l 657 910 l 674 901 q 690 893 682 897 q 707 883 699 889 q 765 839 736 865 q 778 825 772 832 q 790 810 783 818 l 811 778 q 828 740 821 760 q 838 699 835 721 q 839 678 839 688 q 839 660 839 669 q 838 642 839 651 q 838 625 838 633 q 835 609 836 617 q 832 593 835 601 q 824 563 831 578 q 818 548 821 556 q 813 533 815 540 q 805 520 808 526 q 796 507 801 514 q 775 481 789 494 l 774 479 l 772 479 l 772 478 q 771 477 771 478 q 769 476 771 476 q 761 475 765 476 l 775 475 l 775 469 l 776 469 l 776 468 l 781 463 l 785 456 q 788 450 788 453 l 792 444 q 792 442 792 443 q 793 439 793 440 l 797 429 q 799 419 799 425 q 799 406 800 411 l 796 411 q 788 415 794 410 q 785 419 785 418 l 781 422 l 772 431 l 767 435 q 761 440 765 439 l 756 444 l 751 447 q 747 450 749 450 q 743 453 744 453 q 739 456 740 456 l 735 458 l 728 461 l 728 463 q 726 464 728 463 q 722 467 724 465 q 717 468 719 468 q 713 469 714 469 q 710 471 711 469 q 703 472 704 471 l 696 472 q 693 474 696 472 l 701 478 q 713 482 704 478 q 715 483 713 482 q 717 484 717 483 q 719 485 718 485 q 721 485 721 485 q 722 486 721 486 q 725 488 724 486 q 731 490 725 488 l 732 492 q 738 499 738 497 q 735 499 738 500 q 726 494 733 497 l 738 504 q 674 474 713 483 q 671 472 672 474 l 674 471 l 676 471 q 694 465 686 468 q 710 460 703 463 q 714 458 713 460 q 713 460 713 458 q 790 399 758 439 q 801 382 799 388 l 814 368 q 820 357 817 363 q 826 344 824 351 q 833 331 831 338 q 839 317 836 324 m 546 203 q 547 204 546 204 q 560 210 554 207 q 572 217 567 213 q 578 219 575 217 l 589 239 l 597 253 q 600 257 597 254 q 601 260 600 257 l 604 264 q 607 267 604 264 q 613 277 611 271 q 617 290 615 283 l 617 301 q 615 304 615 303 q 614 311 615 310 l 614 315 q 613 318 613 315 l 610 324 q 607 326 607 326 l 604 331 q 603 333 604 332 q 601 336 601 335 l 599 340 q 597 343 599 340 q 596 346 597 343 l 597 349 l 588 356 l 574 364 l 568 367 l 564 371 q 561 376 561 374 q 554 379 560 376 q 547 380 550 379 q 539 382 543 381 l 515 386 q 492 389 504 389 q 468 386 479 389 q 471 392 461 389 q 481 393 475 393 q 464 394 472 394 q 446 394 456 394 l 439 394 l 419 389 q 406 385 413 386 q 392 383 399 383 q 389 384 390 383 q 386 385 388 385 l 379 385 l 367 381 l 367 376 q 358 376 363 375 q 351 375 354 376 q 338 369 343 375 l 333 364 l 324 364 q 322 363 324 363 q 319 361 321 361 l 315 357 l 308 349 l 304 343 l 300 339 q 296 339 301 342 l 293 336 q 291 335 292 336 q 289 335 290 335 q 290 332 290 335 l 290 324 l 293 324 l 293 325 l 294 325 l 292 321 q 290 318 292 319 l 290 315 q 290 313 290 314 q 290 310 289 313 l 290 300 q 291 299 290 299 q 292 297 292 299 l 292 292 l 290 290 q 289 283 290 286 q 293 281 290 283 q 295 280 294 281 q 297 279 296 279 q 298 277 297 278 q 299 275 299 276 l 299 271 q 298 268 299 269 q 297 264 297 267 l 293 264 q 289 265 292 265 q 290 264 290 265 q 292 261 292 263 q 293 258 293 261 l 293 254 q 294 247 293 250 q 296 244 294 247 l 300 239 q 303 247 297 247 q 310 246 307 247 q 313 244 311 246 q 315 244 314 244 q 317 243 315 243 q 332 238 324 243 q 349 226 343 229 q 367 219 358 221 q 379 225 375 218 q 414 218 394 218 q 432 218 424 218 q 451 219 440 218 q 473 220 464 217 q 489 228 482 224 l 493 231 q 495 231 494 231 q 497 232 496 232 q 499 233 499 232 q 501 233 500 233 q 504 235 501 235 l 513 238 l 522 238 l 532 247 q 535 250 532 247 q 540 247 538 247 q 543 244 542 246 q 548 241 546 242 q 551 239 550 240 l 567 226 l 565 226 q 558 218 568 221 q 550 215 553 215 l 544 213 q 542 214 544 214 l 538 214 l 532 210 l 529 207 q 525 204 526 204 q 517 203 524 203 q 515 201 517 201 q 514 199 514 200 q 518 197 513 197 l 513 193 q 533 199 519 196 l 532 200 l 538 200 q 546 203 543 203 m 322 572 l 340 556 q 344 553 342 556 l 350 553 q 365 551 360 553 q 394 543 379 551 q 417 535 406 536 l 442 535 q 452 537 449 536 q 460 538 456 538 l 472 538 l 474 535 q 483 538 475 535 q 487 538 486 538 q 490 539 488 539 q 494 540 493 539 q 497 540 494 540 q 501 541 500 540 q 503 542 501 542 l 508 542 q 514 539 511 542 q 517 540 515 539 q 519 540 518 540 l 531 547 l 549 558 q 565 572 560 565 q 572 590 572 582 q 576 590 576 592 l 576 585 q 575 583 576 585 l 575 582 q 574 579 575 581 l 574 576 q 588 611 586 593 q 585 628 588 617 l 585 629 l 583 631 l 583 633 l 581 640 q 579 646 581 643 l 579 651 q 580 653 579 653 q 581 656 581 654 q 580 659 581 658 q 579 661 579 660 q 576 667 579 664 q 574 671 576 668 q 569 669 571 671 q 569 673 569 672 q 568 676 568 674 l 565 682 q 557 690 563 688 q 554 692 556 692 l 550 692 q 547 700 551 696 q 544 703 547 700 l 542 703 q 539 704 542 703 q 530 707 535 706 q 519 711 525 708 q 518 714 524 711 q 515 717 518 717 l 513 719 q 510 718 513 718 q 506 717 508 717 q 506 711 500 717 q 494 715 499 715 l 485 715 q 479 714 483 714 l 475 714 q 464 718 469 714 l 457 711 l 453 711 q 449 713 450 711 q 444 714 446 713 q 443 715 443 714 q 442 715 443 715 l 446 722 q 433 724 439 721 q 428 726 431 725 q 419 726 426 726 q 424 718 426 724 l 419 714 q 417 713 418 714 q 415 713 417 713 q 411 711 414 711 q 397 703 407 706 q 381 700 392 703 q 365 694 374 700 q 363 683 360 689 q 351 676 356 681 q 344 668 346 671 q 340 657 340 661 l 336 646 q 336 632 335 638 q 342 621 339 624 q 342 619 342 619 q 343 618 343 619 q 344 615 344 617 q 346 614 346 615 q 347 613 347 614 q 350 603 350 607 q 360 600 354 603 l 357 592 q 354 583 354 586 l 347 565 l 347 567 q 343 565 346 565 l 338 569 q 333 574 335 572 q 329 578 332 576 q 329 585 329 578 l 328 586 q 325 588 326 586 q 321 589 322 588 q 318 590 321 589 q 317 593 318 592 q 317 597 317 594 q 315 599 317 599 q 313 600 314 600 q 311 596 310 600 l 307 600 q 311 592 310 596 q 315 583 313 588 q 317 581 315 582 q 322 574 319 575 l 322 572 m 797 589 q 772 542 788 564 q 775 543 774 542 q 779 547 775 543 q 789 565 785 557 l 797 589 m 810 651 q 808 653 808 651 l 808 656 q 805 622 807 638 q 797 592 803 607 q 807 622 803 603 q 809 637 808 629 q 810 651 810 644 m 457 188 q 499 192 479 188 q 490 192 496 194 q 486 191 488 192 q 482 190 485 190 l 472 190 q 465 190 468 190 q 457 188 461 189 m 303 629 q 303 621 303 625 q 304 613 304 617 q 307 615 304 613 q 306 619 307 618 q 304 622 306 622 l 304 626 q 306 635 304 632 l 306 647 q 303 638 304 642 q 303 629 303 633 m 807 675 q 808 665 807 668 l 808 671 q 807 672 807 671 l 807 675 m 71 669 q 72 679 71 676 q 72 674 72 676 q 71 669 71 672 m 726 494 q 725 493 726 494 l 726 494 z "},"9":{"ha":849,"x_min":51,"x_max":756,"o":"m 756 526 q 754 513 756 517 l 754 506 q 753 503 754 504 q 753 500 753 501 l 749 474 q 747 467 749 469 l 747 461 l 744 447 q 744 441 744 444 q 743 433 743 438 q 742 419 742 429 q 740 414 742 415 l 740 407 l 739 396 q 727 367 732 383 q 715 331 722 350 q 714 326 715 328 q 713 323 714 324 q 713 321 713 322 l 708 311 q 707 306 708 307 q 706 303 707 304 q 706 300 706 303 l 701 290 l 696 279 q 695 277 696 278 q 694 275 694 276 q 692 269 692 269 l 686 258 l 679 249 q 679 251 681 253 q 676 247 676 249 l 674 244 q 671 242 674 244 l 667 235 l 661 228 q 656 222 658 225 q 651 218 654 219 q 653 215 653 218 l 650 210 l 640 194 q 636 186 636 188 q 644 193 636 185 l 640 188 l 636 183 l 632 178 l 624 168 l 615 160 q 608 151 610 154 l 600 143 q 593 135 599 140 l 589 131 q 586 128 586 128 l 576 118 l 574 117 l 569 113 q 567 109 568 110 q 563 106 565 108 l 553 99 q 549 96 550 96 l 544 92 q 540 89 542 90 q 535 86 538 88 l 524 79 q 518 76 521 79 l 513 74 l 501 64 l 490 53 l 474 44 q 465 42 468 42 l 458 38 l 443 33 l 435 31 q 432 30 433 31 q 428 29 431 29 l 443 43 q 426 35 433 38 q 414 31 419 33 q 396 26 403 26 l 375 22 l 360 18 q 355 17 357 18 q 350 17 353 17 l 344 14 q 356 14 354 15 q 353 10 357 13 q 333 1 346 4 q 301 -8 324 -3 q 232 -21 275 -18 l 206 -21 q 190 -22 196 -21 q 175 -21 185 -21 l 160 -21 l 157 -6 q 156 2 157 -1 q 154 10 156 6 q 153 17 154 14 q 153 25 153 21 l 150 39 q 149 44 150 42 q 149 49 149 46 q 146 68 146 63 q 143 86 143 79 l 140 94 q 140 99 140 97 q 139 103 139 100 q 134 124 136 114 q 129 144 132 135 q 123 160 126 153 q 117 175 119 168 l 117 181 q 115 183 117 182 l 115 186 l 176 186 q 180 187 179 186 q 183 188 181 188 l 197 188 q 201 189 199 189 q 210 190 207 189 l 217 190 l 231 194 q 239 196 236 194 q 242 197 240 196 q 246 197 243 197 l 249 199 l 253 200 l 260 203 q 263 203 263 203 q 267 204 264 204 q 274 207 269 207 l 286 214 q 293 217 290 214 q 300 219 299 219 l 303 222 l 307 224 l 313 228 q 319 231 318 231 l 326 235 q 352 254 339 244 q 378 276 365 264 l 388 285 l 396 293 q 397 294 396 294 q 397 296 397 294 q 399 297 399 296 q 400 297 399 297 q 401 299 400 299 q 401 300 401 299 q 404 304 404 303 q 410 315 410 313 q 408 321 410 321 q 407 322 408 322 l 403 319 l 397 317 l 392 314 q 390 315 390 314 l 381 315 q 366 316 374 315 q 351 318 358 317 q 342 317 347 317 q 333 317 338 317 l 314 317 q 294 319 304 318 q 272 322 283 319 q 228 353 247 336 l 221 360 l 215 367 q 210 379 210 378 l 214 376 q 226 375 217 379 q 251 367 236 371 l 281 358 q 306 354 294 354 q 310 351 300 351 l 318 349 q 322 348 321 349 q 326 347 324 347 q 334 347 331 347 q 340 347 338 346 l 350 347 q 358 348 354 347 q 364 349 361 349 q 371 350 368 349 l 407 350 q 414 351 411 350 q 418 353 417 353 q 421 354 419 353 q 423 355 422 354 q 422 356 424 356 l 413 356 l 425 358 l 428 358 q 406 357 417 357 q 382 357 394 357 l 360 357 q 353 358 357 357 q 344 358 349 358 q 328 360 336 360 q 311 363 319 360 l 308 363 q 260 373 283 367 q 214 390 236 379 l 196 399 q 179 406 190 400 q 167 411 172 408 q 156 417 163 414 l 143 425 l 136 429 l 131 433 q 118 444 124 439 q 107 456 113 449 q 85 482 94 467 q 58 546 64 514 q 55 568 56 557 q 53 592 54 579 q 51 615 51 603 q 51 639 51 628 q 54 665 53 651 q 58 690 56 678 q 59 693 58 692 q 60 696 60 694 q 60 699 60 699 q 61 703 61 700 l 63 706 l 63 708 l 65 715 l 67 721 l 68 724 q 69 726 68 725 l 72 733 l 74 739 q 90 774 81 757 l 108 799 q 111 801 111 801 q 113 804 111 803 q 115 808 114 807 q 118 810 117 808 l 125 817 l 126 819 l 132 824 l 136 828 q 139 829 138 828 l 142 832 l 147 836 l 151 835 q 167 847 158 840 q 188 861 176 854 q 199 869 193 865 q 211 875 204 872 l 224 881 q 231 883 229 883 l 236 886 q 282 899 263 896 q 297 899 294 901 q 324 904 307 901 q 348 908 335 907 q 374 911 361 910 q 394 913 385 913 q 415 913 404 913 q 437 912 426 913 q 458 910 447 911 q 543 889 501 904 q 618 853 579 875 q 624 844 628 843 q 617 849 621 844 l 611 851 l 606 856 l 575 871 l 585 865 q 683 774 646 829 q 703 748 694 761 q 719 719 711 735 q 739 669 733 694 q 745 644 743 657 q 750 621 747 632 q 749 601 749 613 q 750 576 750 589 q 751 570 750 574 q 751 564 751 567 l 751 553 q 753 531 751 538 l 756 526 m 306 522 q 311 519 308 521 q 317 515 314 518 q 325 510 321 513 q 335 506 329 508 q 354 499 344 501 q 374 499 364 496 q 376 495 378 496 q 369 493 374 494 l 361 493 q 397 489 378 489 l 413 493 q 425 497 419 496 q 436 499 431 499 q 447 499 440 496 q 457 503 453 499 l 457 507 l 463 507 q 466 508 465 507 q 469 508 467 508 q 472 509 471 508 q 475 510 474 510 q 478 513 475 510 l 478 514 q 479 515 479 514 l 482 521 l 486 521 q 490 522 489 521 l 493 525 q 494 526 493 526 q 494 528 494 526 q 497 533 497 531 q 498 535 497 535 q 499 538 499 536 q 501 542 501 540 l 504 546 q 508 546 504 543 q 511 549 511 549 q 513 550 511 550 q 514 551 514 550 q 513 554 513 551 q 511 558 511 556 q 507 558 511 563 l 510 564 q 510 566 510 565 q 511 568 511 567 l 511 574 q 510 576 511 575 q 510 578 510 576 l 510 592 q 511 594 511 593 q 513 597 511 594 q 508 600 511 597 q 506 603 508 600 q 505 607 504 606 q 506 610 506 608 q 508 617 508 615 q 513 615 511 615 q 515 614 514 615 l 515 618 q 514 621 514 618 q 515 622 514 621 l 515 625 q 517 629 517 626 l 517 633 q 515 639 517 636 q 510 633 515 631 q 504 636 507 633 l 500 642 q 489 650 493 643 q 482 663 488 654 q 472 673 478 669 q 460 669 467 676 l 454 674 q 449 676 451 676 q 438 679 443 679 q 431 681 435 681 l 408 681 q 404 682 407 682 l 400 682 q 396 681 397 682 q 392 681 394 681 q 385 678 386 678 l 379 674 l 374 669 q 372 669 372 669 q 371 668 372 668 q 369 667 369 668 q 368 667 369 667 q 356 665 363 664 q 352 660 353 663 q 349 654 351 657 l 340 658 l 333 664 q 318 675 325 668 l 319 675 q 324 683 317 678 q 326 685 324 683 q 328 685 328 685 q 329 686 328 686 l 335 689 q 340 688 333 688 q 343 692 343 690 l 346 694 q 349 697 346 697 q 356 699 350 699 q 358 703 356 700 q 354 704 358 704 l 358 708 l 342 703 l 342 701 l 339 701 l 331 697 q 310 683 321 693 l 307 681 q 306 675 306 678 q 304 672 304 674 q 303 668 304 671 l 303 665 q 301 661 301 664 q 296 649 299 653 q 289 635 294 643 q 281 615 281 628 q 281 590 278 603 q 284 582 283 586 q 286 575 285 578 l 286 569 q 288 567 286 568 l 288 564 l 285 561 l 288 558 q 290 553 288 556 q 293 547 290 550 l 297 542 q 300 537 299 539 q 301 532 301 535 q 301 526 304 529 l 306 522 m 411 264 q 486 375 457 311 l 479 372 l 482 372 l 481 371 q 474 354 475 360 l 471 350 l 468 344 q 465 339 468 342 q 463 332 465 338 l 458 326 l 454 319 q 451 317 451 317 q 449 313 451 315 l 443 306 l 435 294 l 428 285 l 419 274 l 411 264 m 403 713 q 386 713 394 713 q 371 710 378 713 q 378 710 372 707 q 384 711 381 710 q 392 711 388 713 q 406 713 401 711 l 403 713 z "},"\u0000":{"ha":0,"x_min":0,"x_max":0,"o":""},"\n":{"ha":0,"x_min":0,"x_max":0,"o":""},"\r":{"ha":0,"x_min":0,"x_max":0,"o":""}," ":{"ha":376,"x_min":0,"x_max":0,"o":""}," ":{"ha":376,"x_min":0,"x_max":0,"o":""},"­":{"ha":0,"x_min":0,"x_max":0,"o":""},"a":{"ha":886,"x_min":78,"x_max":782,"o":"m 775 203 q 779 135 782 175 l 779 90 l 776 33 l 706 33 q 676 25 685 31 q 647 26 661 26 q 618 26 632 26 l 533 26 q 533 51 533 39 q 532 75 532 63 l 504 54 l 478 38 l 472 33 l 465 29 l 451 21 q 392 -1 426 7 q 356 -5 375 -4 q 318 -3 338 -6 l 301 -3 q 293 -2 297 -3 q 283 -1 289 -1 q 246 7 264 1 q 213 43 224 25 q 212 45 213 44 q 211 47 211 46 l 208 51 q 206 58 206 57 q 204 71 203 68 l 207 68 q 217 66 210 71 q 236 54 225 61 l 260 42 q 263 41 263 42 q 267 40 264 40 l 271 38 q 276 37 274 38 q 281 36 278 36 q 283 32 279 35 q 288 31 286 32 l 290 31 q 297 28 296 28 q 304 26 303 28 l 318 26 q 322 27 321 26 q 324 28 322 28 l 329 28 q 343 29 333 29 q 354 29 349 29 q 369 31 360 29 l 372 31 q 374 31 374 31 q 376 32 375 32 q 379 33 376 32 q 381 34 381 33 q 382 35 381 35 q 383 35 383 35 q 382 36 383 36 l 371 36 l 385 39 q 364 37 374 38 q 343 36 354 36 q 326 38 332 36 l 326 36 q 315 38 322 38 l 286 43 q 285 44 285 43 q 283 44 285 44 l 285 44 q 211 81 246 54 q 197 92 206 83 q 185 100 190 93 q 149 131 169 110 l 144 136 l 140 142 l 136 147 q 133 153 133 150 l 125 164 q 122 171 122 169 l 118 176 q 99 231 104 207 q 92 268 96 249 q 86 308 89 288 q 82 350 83 329 q 81 393 81 371 q 78 426 78 413 q 81 451 79 439 q 90 494 85 474 l 93 496 q 97 512 94 503 q 103 532 100 521 q 119 575 110 556 q 139 608 132 599 q 150 618 147 617 l 163 635 q 192 668 175 651 q 250 708 218 693 q 318 732 282 725 q 336 735 328 735 q 353 738 344 736 l 388 740 q 397 736 404 736 q 389 735 393 736 l 378 735 q 350 732 358 735 l 368 732 q 471 713 424 732 q 472 711 471 711 q 489 705 481 708 q 506 697 497 701 l 524 689 l 539 679 l 543 676 l 547 674 l 553 669 l 564 660 l 565 660 l 567 661 l 569 661 l 575 664 l 585 668 l 589 668 q 591 669 590 668 q 593 669 592 669 q 601 672 593 669 q 610 674 606 674 q 619 678 615 675 l 654 693 l 657 699 l 678 706 q 683 707 682 706 l 686 707 l 689 708 l 700 713 q 724 721 710 714 l 750 732 l 764 740 l 765 732 q 761 697 761 713 q 761 681 761 689 q 763 663 761 672 l 763 653 q 764 644 763 647 l 764 625 q 765 607 765 617 q 765 588 765 597 q 763 588 764 592 q 762 578 763 585 q 760 565 761 572 q 758 553 760 557 q 761 546 760 553 q 763 533 763 539 q 765 524 764 526 q 767 532 765 522 q 767 493 765 511 q 770 458 768 475 q 772 425 772 442 q 769 388 772 408 l 778 364 q 776 335 778 349 q 774 310 775 322 l 765 326 q 766 300 767 308 q 765 284 765 292 q 763 267 764 276 q 761 236 761 257 q 769 246 764 258 q 775 203 774 233 m 563 436 l 560 453 l 560 496 l 557 499 l 551 503 l 542 508 q 539 510 540 510 q 536 511 538 511 l 529 514 q 528 518 526 518 q 536 517 532 518 q 542 514 539 515 q 546 513 544 513 q 504 535 529 526 q 483 536 497 536 l 451 539 q 438 543 447 543 q 431 543 435 546 q 424 542 426 543 q 422 539 424 540 l 414 539 q 412 540 413 539 q 410 540 411 540 l 399 540 q 394 539 397 539 l 390 536 q 388 533 388 533 l 385 531 q 374 532 379 533 q 369 529 372 532 q 364 526 367 529 l 360 522 l 354 518 q 344 508 350 513 l 344 510 l 342 510 l 340 508 q 338 508 339 508 q 335 507 338 507 q 331 504 332 504 q 332 501 335 504 q 331 498 332 499 q 331 496 331 497 q 331 492 328 493 q 332 493 331 493 q 336 494 333 493 l 332 492 q 331 490 332 490 q 331 489 331 490 l 326 483 l 322 471 q 321 465 322 467 l 321 463 q 319 460 319 461 q 317 454 319 457 l 313 447 l 315 443 q 318 438 315 440 q 315 428 318 433 q 310 419 313 425 l 304 426 l 304 421 q 303 417 304 418 q 302 415 303 415 q 301 411 301 414 l 297 406 l 297 400 q 296 393 296 399 q 304 397 300 401 q 306 394 304 397 q 308 392 306 394 q 311 382 308 390 q 312 380 311 381 q 313 378 313 379 q 314 372 314 376 q 315 361 315 369 q 317 350 317 356 q 317 338 317 344 q 322 318 319 324 l 326 311 q 335 310 329 310 q 342 293 338 297 q 351 279 346 285 l 364 269 l 379 261 q 397 256 386 256 q 414 258 403 256 l 422 261 l 426 261 q 431 263 428 263 q 450 263 439 265 q 465 272 454 267 q 483 259 475 265 q 496 246 490 253 l 494 246 q 485 239 497 242 l 468 235 q 467 237 471 238 q 461 236 464 236 q 456 233 457 235 q 451 231 454 232 q 447 229 450 229 q 438 229 443 228 l 433 225 q 433 224 432 225 q 438 222 433 224 q 433 222 435 222 q 431 221 432 221 q 442 221 438 221 q 454 222 447 221 l 454 224 l 458 224 q 464 224 461 224 q 469 225 467 225 q 471 226 469 225 l 471 225 q 485 230 478 228 q 501 235 493 232 q 507 238 504 238 q 524 256 515 249 q 528 259 526 258 q 531 263 529 260 l 535 265 q 539 268 538 268 q 553 278 544 274 q 554 278 554 278 q 556 279 554 279 l 556 281 q 557 283 556 281 q 558 289 557 288 l 558 304 q 559 319 560 311 q 558 336 558 328 q 556 358 556 350 q 557 375 556 367 l 560 376 q 557 406 558 386 q 563 428 556 425 l 563 436 m 493 83 q 513 97 504 90 q 529 113 521 104 q 493 86 511 97 q 456 65 475 75 q 441 58 449 61 q 426 51 433 54 q 450 60 433 50 q 469 70 458 64 q 493 83 479 76 m 371 231 q 415 221 388 224 q 406 224 414 224 q 398 224 403 224 q 388 226 393 224 q 383 228 386 228 q 381 228 382 228 q 379 229 381 229 q 375 231 376 229 l 371 231 m 768 539 q 767 535 768 536 q 767 532 767 535 q 767 535 767 535 q 768 539 768 536 z "},"b":{"ha":890,"x_min":104,"x_max":811,"o":"m 808 450 q 810 413 810 431 q 811 376 811 396 l 811 340 l 807 301 q 804 282 806 292 q 800 263 803 272 l 788 221 l 768 178 l 747 140 q 725 107 736 119 q 700 76 715 92 q 686 63 693 69 q 672 50 679 57 q 638 28 657 39 q 618 18 628 22 q 597 10 608 14 q 574 4 586 7 q 549 0 561 1 q 529 -4 539 -3 q 508 -7 519 -6 q 497 -8 504 -8 l 486 -8 q 461 -8 474 -11 q 410 21 428 6 q 389 47 394 35 q 392 47 392 47 q 394 44 392 46 q 408 43 396 47 q 435 35 419 39 l 467 29 q 481 28 475 28 q 493 28 488 28 q 499 25 488 25 l 507 25 q 517 24 511 24 q 542 29 535 26 q 545 30 544 29 q 549 31 546 31 q 556 33 554 33 q 558 35 557 35 q 563 36 560 35 l 571 39 l 603 49 l 610 53 l 617 58 q 615 60 618 60 l 614 60 q 613 59 613 60 q 611 58 613 58 q 604 56 610 58 q 613 61 607 58 q 549 40 582 47 q 542 40 546 40 q 535 39 538 39 q 517 37 525 38 q 499 36 508 36 l 496 36 q 443 42 468 36 q 394 58 418 47 q 375 68 381 64 q 365 72 369 69 q 353 76 360 74 q 325 93 338 83 l 314 101 l 314 46 l 276 46 q 267 47 271 46 q 258 47 263 47 l 250 47 q 243 49 244 47 q 212 51 228 50 q 179 51 196 51 q 171 52 175 51 q 163 53 167 53 l 108 53 l 108 92 q 108 111 108 101 q 107 131 108 121 q 104 202 104 175 q 106 257 104 229 l 110 260 q 108 302 110 275 q 107 356 107 329 q 108 404 107 383 q 113 429 110 425 l 113 457 q 110 533 110 493 q 110 615 110 574 q 108 698 110 657 q 104 776 107 739 q 107 790 106 793 q 109 774 108 786 q 110 749 110 763 q 113 731 111 735 l 113 885 q 110 903 111 894 q 110 922 110 913 l 106 964 l 106 986 q 104 999 104 993 q 104 1011 104 1004 l 136 1019 l 144 1022 q 151 1024 149 1022 l 164 1026 q 184 1030 172 1028 q 208 1035 196 1032 q 222 1038 215 1038 q 233 1042 228 1039 q 237 1042 236 1042 q 240 1043 238 1043 q 246 1044 242 1044 l 257 1049 l 263 1054 l 311 1064 q 310 1044 311 1053 q 310 1025 310 1035 l 310 1006 q 310 1000 310 1003 q 311 994 311 997 l 311 986 l 315 961 q 312 890 307 933 q 315 797 317 846 q 313 797 314 801 q 312 785 313 793 q 310 767 311 776 q 308 754 310 758 q 312 747 311 757 q 314 728 313 736 l 314 722 q 315 719 314 721 l 315 721 q 317 724 315 721 l 317 728 q 317 729 317 729 q 318 731 318 729 l 318 721 q 317 708 317 717 q 317 698 317 703 q 318 688 318 693 q 319 679 318 683 q 319 672 319 675 q 321 664 319 667 l 321 663 l 325 665 q 342 682 333 675 q 350 688 346 685 q 361 693 354 690 l 364 699 l 365 700 l 367 700 l 367 701 l 379 714 q 414 731 400 725 q 447 739 432 736 q 438 733 443 736 q 429 725 433 729 q 448 733 440 731 q 463 738 456 735 q 474 739 469 739 q 483 739 478 739 q 506 740 489 740 q 521 740 513 740 q 540 739 529 740 q 528 743 529 740 q 532 747 525 744 q 537 748 535 747 q 542 749 539 749 l 556 749 q 592 744 571 749 q 628 735 611 742 q 665 714 646 726 q 684 699 675 707 q 701 683 693 692 l 731 646 q 742 627 738 636 q 753 608 747 618 q 769 574 764 588 q 783 547 776 558 q 794 528 789 535 q 803 489 800 508 q 808 450 806 469 m 572 357 q 572 389 574 372 l 572 393 q 571 396 572 393 q 569 401 571 400 q 568 411 569 408 l 568 426 l 571 428 l 568 435 q 567 438 568 436 q 567 442 567 439 q 564 450 564 447 q 561 458 561 456 q 558 465 558 464 q 557 472 557 468 q 558 478 557 476 l 554 486 l 543 499 q 525 517 535 508 q 514 526 519 522 q 501 532 508 529 q 490 536 496 535 q 476 536 483 538 q 475 540 472 540 l 493 540 q 446 549 472 549 l 426 543 q 410 538 418 540 q 394 535 401 536 q 388 535 392 536 q 381 535 385 535 q 368 528 372 532 l 368 524 q 360 522 364 522 q 353 519 356 522 q 338 511 343 517 l 333 504 l 328 504 q 326 503 326 504 l 324 503 l 317 494 q 314 490 317 493 l 314 485 q 315 474 315 481 q 313 474 314 475 q 311 471 313 474 q 308 461 311 464 q 313 454 311 463 q 317 453 314 446 q 320 424 314 436 q 319 397 326 413 l 326 388 q 326 376 328 381 q 322 367 324 372 l 315 374 q 316 363 317 367 q 314 357 315 360 q 312 351 313 354 q 311 339 311 347 q 318 342 314 347 q 325 326 322 338 q 329 304 329 315 l 329 292 q 328 285 328 289 q 326 283 328 285 l 326 282 l 329 279 q 333 276 332 276 q 336 275 335 275 l 339 275 q 346 276 344 275 l 361 265 q 378 260 367 263 q 397 256 388 257 q 417 253 406 254 q 438 253 426 250 q 440 253 439 253 q 442 254 440 254 q 444 255 443 254 q 446 256 444 256 q 449 257 447 256 l 450 257 l 454 260 l 469 267 l 485 271 l 494 285 q 496 283 494 283 q 499 282 499 283 q 504 281 501 282 l 514 278 q 523 274 518 275 q 531 271 528 274 l 529 269 q 529 265 531 267 l 529 264 q 528 263 528 264 l 524 260 q 521 257 524 257 q 519 256 519 257 q 518 255 518 256 q 517 254 518 254 l 514 251 q 511 250 513 251 q 509 251 511 253 q 504 250 507 250 l 499 244 q 496 242 499 242 q 493 238 496 240 q 491 237 492 238 q 489 236 490 236 q 483 235 486 236 l 482 233 q 481 232 481 233 q 485 229 478 229 l 482 228 q 479 225 479 225 l 501 233 l 501 235 q 503 235 503 235 q 506 236 504 236 q 510 238 508 238 q 515 242 513 239 q 528 251 522 246 q 540 263 533 256 l 544 268 q 546 274 544 272 l 546 278 q 547 282 547 279 q 548 285 547 283 q 549 288 549 286 q 549 290 549 289 q 550 292 550 290 q 551 296 550 294 q 553 301 551 300 q 556 310 553 304 q 556 313 556 313 q 557 315 557 314 q 558 318 557 315 l 558 319 l 561 325 q 564 329 561 326 q 572 357 569 342 m 726 164 q 751 215 742 188 q 748 208 749 213 q 746 201 747 204 q 664 94 714 136 l 672 99 q 676 101 675 101 q 679 106 679 104 l 688 114 q 690 117 688 114 l 692 118 l 696 124 l 706 136 q 716 149 711 143 q 726 164 721 156 m 435 221 q 450 221 443 221 q 464 222 457 221 q 454 224 460 225 q 436 222 444 221 q 418 221 424 222 l 435 221 z "},"c":{"ha":706,"x_min":78,"x_max":697,"o":"m 697 185 l 694 182 q 685 164 690 171 q 679 156 682 158 l 675 147 l 668 139 q 665 133 668 136 l 664 132 l 664 131 l 663 131 l 654 119 l 644 108 q 639 103 643 104 q 636 100 639 100 q 633 97 636 97 q 622 85 628 90 q 610 75 617 81 q 576 54 593 63 q 561 44 569 49 q 546 36 553 40 l 515 22 q 501 15 508 18 q 486 10 493 13 l 471 6 q 454 3 460 3 q 439 -1 447 0 q 422 -3 431 -1 q 388 -3 406 -4 q 369 -1 378 -3 q 349 3 360 0 l 333 3 q 324 3 329 3 q 315 4 319 4 l 278 11 q 258 28 267 19 q 243 46 250 38 l 238 53 l 233 60 q 231 72 231 71 q 235 69 229 72 q 245 68 236 72 q 267 57 254 64 l 292 47 l 303 43 l 313 40 q 315 38 307 40 q 322 35 317 38 q 326 34 325 35 q 329 33 328 33 q 342 32 336 32 q 350 32 347 32 l 363 32 q 376 33 367 33 l 403 31 l 417 35 q 418 35 418 35 q 417 36 418 36 l 414 36 q 410 37 411 36 q 407 38 410 38 q 417 39 413 38 q 424 40 421 39 q 401 39 417 39 q 381 40 390 39 q 360 42 371 40 l 360 40 l 347 43 q 333 45 340 44 q 318 49 325 46 q 315 50 315 49 q 236 82 276 60 l 222 92 l 207 99 q 188 111 197 104 q 168 128 178 118 l 163 132 q 157 138 161 136 l 147 149 l 131 172 q 106 225 114 197 q 94 264 99 244 q 86 306 89 283 q 83 327 83 317 q 81 349 82 338 q 78 372 79 360 q 78 394 78 383 l 78 428 q 78 434 78 431 q 79 442 79 438 q 80 448 79 444 q 81 454 81 451 q 85 476 83 465 q 92 499 88 488 l 94 500 l 107 538 q 116 559 111 549 q 128 581 121 569 q 151 614 139 599 q 164 622 163 622 l 179 639 q 183 642 182 640 q 186 646 183 643 l 213 669 q 227 680 219 675 q 242 689 235 685 q 276 707 256 699 q 311 719 293 714 q 347 729 329 725 q 352 730 350 729 q 357 731 354 731 q 365 732 360 732 l 375 735 q 383 736 381 735 l 419 740 q 430 738 428 739 q 429 738 432 738 q 422 736 426 736 q 410 735 417 736 q 403 733 406 735 l 397 733 q 394 733 394 733 q 390 732 393 732 l 386 732 q 383 731 385 731 q 406 732 394 732 q 429 732 418 732 q 469 731 450 732 q 508 725 489 729 l 518 725 q 541 720 529 722 q 564 715 553 718 l 586 707 l 592 704 l 597 701 l 600 700 q 603 699 600 700 l 608 694 q 619 688 614 692 q 629 679 624 683 l 636 672 l 636 671 q 631 658 633 667 l 622 642 l 619 636 l 617 632 l 613 622 q 606 601 608 611 q 600 585 603 592 l 601 579 l 592 558 q 589 553 590 556 q 586 549 588 551 q 581 536 583 540 l 571 513 q 566 499 568 506 q 561 485 564 493 l 560 479 l 560 476 l 558 476 q 556 478 557 478 q 554 476 556 476 l 550 481 q 538 498 543 490 q 525 511 532 506 q 510 522 518 518 l 494 528 q 461 536 481 533 q 442 538 451 538 q 424 538 433 538 q 425 539 426 539 q 421 540 424 540 l 389 540 q 383 535 390 539 l 371 528 q 369 526 369 526 q 367 525 368 526 l 365 524 l 369 524 q 379 526 368 524 l 369 522 q 367 522 368 522 q 364 521 367 521 l 360 518 q 346 507 354 515 l 344 506 q 343 504 343 506 q 340 500 340 501 q 338 497 338 500 l 335 494 l 332 490 q 331 489 332 489 q 331 488 331 489 l 326 481 q 321 466 324 474 q 315 450 318 458 q 310 433 313 442 q 304 414 307 425 l 306 411 l 306 408 q 307 403 307 407 l 311 392 l 311 364 q 311 339 308 351 l 301 354 l 307 329 q 308 325 307 326 q 308 321 308 324 l 308 317 l 310 315 l 310 314 q 311 306 310 308 q 313 301 311 303 l 313 300 q 314 297 313 299 q 317 292 314 294 q 319 285 317 290 l 324 278 q 326 274 326 275 q 328 272 328 274 q 328 271 328 271 q 329 269 329 271 q 328 273 329 272 q 328 275 328 274 q 325 278 325 278 l 325 283 q 329 283 325 285 l 342 274 l 361 258 q 382 249 371 254 q 408 239 393 243 q 423 235 415 236 q 438 233 431 235 q 454 231 446 232 q 469 231 463 231 q 485 231 478 231 q 500 233 493 232 q 526 242 514 235 q 528 242 528 242 q 532 243 529 243 q 533 244 532 244 q 536 246 535 246 l 540 249 q 544 251 543 251 l 550 257 l 553 261 l 556 264 l 561 268 l 568 272 l 581 281 l 592 290 l 603 299 l 607 294 q 610 290 607 293 l 617 282 l 629 265 q 643 250 635 261 l 653 238 l 674 213 l 681 206 l 686 197 l 693 189 l 696 186 l 696 185 l 697 185 m 539 67 q 579 92 564 78 q 567 83 572 88 q 554 76 561 79 q 465 44 510 53 q 469 44 468 44 q 474 44 471 43 q 490 49 479 44 q 500 51 494 49 l 513 56 l 539 67 z "},"d":{"ha":886,"x_min":79,"x_max":783,"o":"m 774 415 q 778 343 779 386 q 776 258 778 300 q 775 180 775 215 q 783 132 775 144 l 783 103 q 782 88 783 92 l 782 26 l 660 26 q 636 26 649 26 q 611 25 624 25 l 529 25 l 529 68 q 510 52 519 60 q 489 38 500 44 q 429 8 461 21 q 393 0 413 3 q 353 -3 372 -4 q 343 -4 349 -4 q 332 -6 339 -6 l 310 -6 q 263 1 290 -6 q 249 11 254 6 q 242 16 246 14 q 236 21 239 18 q 225 30 229 25 q 217 40 221 35 q 203 71 203 58 l 206 68 q 210 67 208 68 q 218 63 214 67 l 243 50 q 274 38 256 43 q 282 35 279 35 q 285 34 285 35 q 289 33 286 33 q 294 32 290 32 q 297 31 296 32 q 299 31 297 31 q 306 28 299 28 q 309 27 307 28 q 314 26 311 26 l 324 24 l 331 24 q 335 24 333 24 q 338 25 336 25 l 349 25 q 353 26 351 26 q 356 28 354 26 q 363 29 361 28 q 367 30 365 29 q 371 31 368 31 q 375 31 374 31 q 379 32 376 32 l 413 39 q 419 42 415 40 q 426 47 424 44 q 426 49 428 49 q 414 46 428 49 l 432 54 q 357 38 394 39 l 358 36 l 342 36 q 323 37 332 36 q 306 39 314 38 l 304 39 q 254 54 278 44 q 208 81 231 64 q 193 94 197 89 q 176 106 188 97 q 156 124 167 114 q 136 149 146 135 q 103 210 115 175 q 97 226 100 218 q 92 243 94 235 q 88 261 89 253 q 85 278 86 269 q 81 326 82 301 q 79 378 79 351 q 81 431 79 404 q 88 485 82 457 l 96 524 q 97 526 96 525 q 97 528 97 526 q 98 530 97 529 q 99 532 99 531 q 101 540 99 535 q 107 554 104 549 q 119 580 113 568 q 132 604 125 592 l 136 606 q 163 643 144 621 l 172 654 q 175 658 174 657 q 178 660 176 658 l 189 671 l 194 675 l 200 681 q 201 681 201 681 q 203 682 201 682 l 206 685 l 228 700 l 239 704 q 249 708 243 708 q 265 713 261 714 q 278 717 272 715 q 290 722 283 719 q 313 728 301 725 q 335 733 324 731 q 353 735 344 735 q 374 735 363 735 l 393 735 q 414 732 407 732 q 433 726 428 729 q 453 721 447 724 q 472 714 463 719 l 492 706 l 496 703 l 500 700 l 507 696 l 522 686 q 536 676 529 681 q 549 665 543 671 l 554 661 l 554 668 q 553 686 554 681 q 556 693 554 694 l 556 690 q 556 688 556 689 q 557 683 557 686 q 558 664 558 678 l 558 654 l 560 653 l 558 653 q 556 655 557 654 q 553 658 554 656 q 546 663 549 663 l 561 649 l 561 782 q 560 788 561 785 q 560 793 560 790 l 556 850 q 552 906 553 878 q 553 958 551 933 q 553 963 553 961 q 554 967 554 964 l 554 974 q 556 981 554 978 l 556 1008 l 583 1015 l 594 1019 l 604 1022 l 608 1028 l 663 1038 l 690 1044 q 693 1046 690 1044 l 697 1046 l 706 1049 l 722 1054 l 753 1065 l 761 1065 q 760 1047 760 1056 q 760 1026 760 1038 l 760 996 q 761 986 761 992 q 763 944 763 967 q 764 900 764 922 q 762 900 763 904 q 760 888 761 896 q 759 870 760 879 q 757 857 758 861 q 760 849 758 858 q 762 831 761 839 q 763 821 763 822 q 767 839 764 819 q 767 786 765 810 q 769 741 768 763 q 771 697 771 719 q 768 647 771 674 l 775 618 q 775 582 776 599 q 771 550 774 565 l 764 571 q 765 537 765 547 q 763 517 764 526 q 760 497 761 508 q 760 458 760 485 q 767 470 763 486 q 774 415 771 454 m 561 436 l 558 453 l 558 496 q 556 499 556 499 l 550 503 l 540 508 q 538 510 539 510 q 533 511 536 511 l 528 514 q 526 518 524 518 q 533 517 531 518 q 539 514 536 515 q 544 513 542 513 q 503 535 528 526 q 482 536 496 536 l 450 539 q 436 543 446 543 q 429 543 432 544 q 422 542 424 543 q 422 540 422 540 q 421 539 421 540 l 413 539 q 410 540 411 539 q 408 540 410 540 l 396 540 q 393 539 394 539 l 389 536 q 386 533 386 533 l 382 531 q 372 532 378 533 q 368 529 371 532 q 363 526 365 529 l 358 522 l 353 518 q 343 508 349 513 q 342 510 343 510 l 340 510 q 339 508 340 510 q 336 508 338 508 q 333 507 335 507 q 329 504 331 504 q 331 501 331 504 q 330 498 331 499 q 329 496 329 497 q 329 492 326 493 q 331 493 329 493 q 333 494 331 493 q 331 492 333 494 q 330 490 331 490 q 329 489 329 490 q 326 486 326 488 q 325 483 326 485 l 321 471 q 320 468 321 469 q 319 465 319 467 l 319 463 q 318 460 318 461 l 315 454 l 311 447 l 314 443 q 317 438 314 440 q 315 433 315 435 q 313 428 315 431 l 308 419 l 303 426 l 303 421 q 302 419 303 419 q 301 417 301 418 q 299 411 301 417 q 296 406 299 411 q 294 400 296 403 l 294 393 q 303 397 299 401 q 304 394 303 397 q 306 392 306 394 q 308 382 308 386 q 311 378 311 379 q 312 375 311 376 q 313 372 313 374 q 314 361 314 369 q 315 350 315 356 q 315 338 315 344 q 321 318 318 324 l 325 311 q 332 310 328 310 q 335 300 335 304 q 339 293 336 296 l 350 279 l 363 269 l 378 261 q 396 256 385 256 q 413 258 401 256 l 421 261 l 425 261 q 429 263 426 263 q 449 263 438 264 q 464 272 453 267 q 481 259 474 265 q 494 246 489 253 l 493 246 q 483 239 494 242 l 467 235 q 460 236 467 236 q 454 233 456 235 q 450 231 453 232 q 446 229 449 229 q 436 229 442 228 q 432 225 432 225 q 435 222 426 225 q 433 222 433 222 q 431 221 432 221 q 441 221 436 221 q 453 222 446 221 l 453 224 l 457 224 q 463 224 460 224 q 468 225 465 225 q 484 230 476 228 q 499 235 492 232 q 506 238 504 238 q 522 256 514 249 l 529 263 l 533 265 l 536 268 l 551 278 q 553 279 553 278 l 554 279 l 554 283 q 556 289 556 285 q 557 296 557 292 l 557 336 q 556 375 551 360 l 558 376 q 556 406 557 386 q 561 428 554 425 l 561 436 m 531 114 q 504 94 517 103 q 478 78 492 85 q 504 92 486 78 l 531 114 m 368 231 q 414 221 386 224 q 404 224 413 224 q 397 224 401 224 q 386 226 392 224 q 382 228 385 228 q 380 228 381 228 q 378 229 379 229 q 372 231 374 229 l 368 231 m 561 140 l 558 138 l 558 140 l 551 133 l 554 133 l 558 138 q 559 135 558 136 q 560 131 560 133 l 561 129 l 561 140 m 561 143 l 560 142 l 561 142 l 561 143 m 469 226 l 468 225 q 469 226 469 226 z "},"e":{"ha":799,"x_min":78,"x_max":728,"o":"m 725 546 q 727 533 726 539 q 726 521 728 528 q 726 508 726 514 q 725 496 726 503 q 723 472 724 485 q 719 446 722 460 q 718 435 719 438 l 718 429 l 717 424 l 701 397 l 682 368 q 656 336 672 353 q 619 311 642 322 q 620 313 624 314 q 610 308 617 311 q 606 307 607 308 q 603 306 603 307 q 594 303 600 306 q 588 301 590 301 q 582 300 585 301 q 583 299 583 300 q 582 299 583 299 l 578 294 q 569 292 575 294 l 563 288 q 554 283 554 285 l 558 283 q 571 286 560 283 q 546 280 557 282 q 524 275 535 278 q 503 271 513 272 q 485 267 494 269 q 480 266 482 267 q 475 265 478 265 q 469 264 471 265 l 465 264 q 454 263 458 264 l 444 263 q 400 267 425 263 q 386 263 393 264 q 372 261 379 263 q 340 268 358 263 l 319 276 q 321 275 319 275 q 333 256 326 265 q 328 269 328 265 q 332 269 328 271 q 346 259 338 267 q 367 243 354 251 q 377 238 372 240 q 389 233 382 236 q 392 232 390 232 q 396 231 393 232 q 401 228 399 231 l 417 224 q 431 221 424 222 q 449 219 439 219 q 482 219 465 217 q 514 224 499 221 q 540 233 529 228 q 571 257 565 244 l 574 258 l 574 260 l 576 260 l 583 265 q 592 271 589 268 q 599 276 597 274 q 614 288 607 282 q 628 299 621 293 l 629 297 l 631 297 l 632 294 l 635 290 q 642 282 640 285 l 656 265 l 668 250 l 679 238 q 701 211 689 222 l 714 196 l 719 188 l 721 185 l 722 185 l 722 183 l 719 179 q 717 174 718 176 q 714 169 715 172 q 708 161 711 164 l 706 157 q 703 153 706 156 q 697 144 700 147 q 694 140 696 142 q 692 135 693 138 l 688 131 l 686 128 q 683 125 683 126 q 681 122 682 124 l 676 117 q 666 106 671 111 q 654 94 661 100 q 651 92 651 94 q 649 90 650 92 l 642 85 l 629 75 l 593 53 l 560 36 q 551 33 556 33 q 544 29 547 32 l 528 22 q 497 11 511 15 l 489 8 q 485 8 486 8 q 481 7 483 7 l 465 3 l 432 -3 l 394 -3 q 385 -3 390 -3 q 375 -1 381 -3 q 365 0 368 -1 q 360 1 363 0 q 354 1 357 1 l 338 1 q 328 2 333 1 q 319 3 324 3 l 300 6 l 290 8 q 285 9 288 8 q 281 10 283 10 q 242 44 256 28 l 236 53 l 232 60 q 229 72 229 71 l 232 69 q 244 67 235 72 q 265 57 253 63 q 290 46 278 50 q 313 40 303 42 q 318 36 313 38 q 322 35 321 36 q 326 35 324 35 l 333 32 q 355 30 349 29 q 368 32 361 31 l 411 32 q 425 35 419 32 q 414 38 431 38 l 425 39 l 428 39 l 401 39 q 383 39 392 39 q 364 40 374 39 q 358 41 361 40 q 351 42 354 42 l 321 47 q 317 49 319 49 l 318 49 q 235 82 272 58 l 218 93 l 204 100 q 199 103 199 103 l 193 107 q 189 110 192 107 l 183 114 q 182 115 182 114 q 181 115 182 115 l 178 118 l 172 122 l 168 126 q 163 132 164 128 l 157 136 q 155 139 156 138 q 151 142 154 140 q 149 144 151 142 q 148 146 149 146 q 147 147 147 146 l 142 153 q 124 179 132 164 q 99 236 107 206 q 90 276 94 256 q 82 321 85 297 l 78 367 l 78 415 q 80 450 78 435 q 85 478 82 465 q 91 501 88 490 q 99 525 94 513 l 103 526 l 118 564 q 131 586 124 575 q 144 607 138 597 q 159 626 151 618 q 174 639 167 633 l 183 646 l 188 646 l 204 661 q 214 668 210 667 q 243 690 225 679 q 278 708 260 700 q 315 721 296 715 q 334 726 325 724 q 354 729 343 728 q 374 733 364 732 q 393 735 383 733 q 413 737 403 736 q 432 738 422 738 q 451 739 442 739 q 469 739 460 739 q 479 735 486 735 l 458 735 q 428 732 436 735 l 429 732 q 561 711 500 732 q 571 708 563 711 q 576 707 574 708 q 579 706 578 707 q 582 706 581 706 l 593 701 q 605 696 600 699 q 617 690 610 693 q 638 678 628 685 q 658 664 649 671 l 675 646 q 689 628 682 638 l 707 590 l 715 569 l 721 550 l 725 546 m 547 475 q 543 494 547 486 q 542 497 543 496 q 539 500 539 500 q 538 501 539 501 q 538 503 538 501 q 536 504 536 503 q 531 513 533 507 l 532 515 l 525 521 q 520 523 522 522 q 515 526 518 524 q 514 528 515 526 q 511 529 513 528 q 508 532 508 529 q 507 536 507 533 l 501 539 q 492 540 494 539 q 483 541 488 540 q 474 543 479 542 q 456 544 465 544 q 440 540 447 544 q 442 546 435 543 q 449 549 449 549 l 440 549 q 429 549 435 549 q 418 547 424 549 l 406 542 q 386 533 394 535 q 378 533 383 536 q 369 529 371 533 l 371 525 l 365 525 q 360 524 361 525 q 354 522 356 524 q 351 518 351 519 l 349 513 q 338 507 343 515 q 328 492 332 496 q 324 492 328 493 q 321 490 324 492 q 318 489 319 490 q 319 482 319 488 q 325 481 319 479 q 321 478 324 481 q 319 475 321 476 l 319 463 q 318 460 319 463 q 314 457 319 460 q 322 456 317 456 q 319 451 322 454 l 315 446 q 307 444 310 446 l 307 443 l 308 443 l 308 442 q 310 438 310 442 q 310 435 310 438 q 315 432 310 435 q 319 439 311 436 q 322 440 321 439 q 325 440 324 440 q 328 441 328 440 q 332 440 329 442 q 340 442 338 444 l 343 442 q 344 440 343 440 q 347 440 346 440 q 349 439 347 439 q 351 436 349 439 q 365 433 358 433 q 375 440 371 432 q 400 436 388 433 l 413 436 q 419 437 415 436 q 426 438 422 438 q 453 446 440 436 l 458 449 q 464 451 461 451 q 476 453 468 453 l 485 463 q 488 458 488 460 q 492 456 489 457 l 497 449 q 508 435 500 443 q 503 428 510 431 q 501 427 501 428 q 497 426 500 426 q 495 426 496 426 q 493 425 494 425 q 492 426 493 426 q 488 428 489 426 q 485 424 485 425 q 482 421 485 424 q 479 419 482 421 q 474 418 478 418 q 471 415 472 417 q 474 413 469 413 l 471 410 l 486 414 l 489 414 q 494 415 490 415 l 496 417 q 506 419 501 418 q 515 424 510 421 l 518 426 l 526 440 q 532 450 528 446 q 540 460 533 456 q 547 475 547 464 m 571 78 q 476 46 525 54 q 485 44 479 44 q 493 46 488 46 q 503 49 499 49 l 514 53 l 519 56 l 522 56 q 525 57 524 57 q 539 63 533 60 q 543 64 542 63 l 547 64 q 554 67 550 67 q 575 77 565 71 q 593 89 585 83 q 583 83 588 86 q 571 78 578 81 m 460 408 q 454 410 458 411 q 442 408 449 407 q 431 406 439 408 l 460 408 m 318 279 q 332 281 322 281 l 315 285 l 318 279 z "},"f":{"ha":553,"x_min":8,"x_max":543,"o":"m 511 721 q 527 721 519 721 q 543 722 535 721 q 541 702 542 713 q 538 681 540 692 l 533 658 q 533 653 533 656 q 532 649 532 651 l 529 640 q 529 642 531 646 q 525 631 528 638 q 523 622 524 626 q 519 613 522 617 l 519 608 q 518 604 518 607 l 515 599 q 517 597 517 600 q 517 588 518 593 q 514 564 517 578 q 510 563 511 564 q 508 563 510 563 l 507 563 q 508 562 506 563 q 517 561 510 561 l 518 563 l 518 560 l 458 560 q 438 559 447 560 q 417 557 428 558 q 396 556 406 557 q 375 556 386 556 l 358 556 l 342 558 l 336 556 l 342 542 l 342 532 q 340 528 342 529 l 340 519 q 338 503 339 511 q 338 489 338 496 l 331 508 q 331 476 332 486 q 329 457 331 465 q 326 436 328 449 q 325 399 325 424 q 333 410 328 425 q 340 357 338 394 q 344 285 344 328 q 342 201 343 243 q 341 161 342 181 q 342 126 340 142 l 342 111 q 343 104 343 108 l 343 99 q 344 94 343 96 q 347 77 346 85 q 350 63 347 69 q 349 44 350 53 q 349 26 349 35 l 175 26 q 135 26 156 26 q 96 25 115 25 q 95 83 96 53 q 94 128 94 114 q 94 209 96 174 q 89 278 92 244 q 85 346 86 311 q 86 425 83 381 l 79 499 q 97 547 89 526 q 115 574 106 567 l 106 574 l 83 571 q 51 567 69 568 q 10 565 32 567 q 10 582 10 574 q 8 600 10 590 l 8 667 l 11 703 q 12 711 11 707 q 13 719 13 715 q 27 719 19 719 q 43 718 35 718 l 57 718 q 71 717 63 717 l 124 717 l 124 781 q 125 790 125 783 q 133 861 126 833 q 151 913 139 888 l 154 915 q 163 933 157 922 q 175 956 168 944 l 179 963 l 182 968 q 185 971 185 969 q 188 974 186 972 l 189 976 l 192 979 q 201 990 197 988 q 203 993 203 992 q 207 996 204 994 l 213 1000 l 217 1006 l 222 1010 l 228 1014 q 233 1017 231 1014 q 239 1019 236 1019 q 243 1022 242 1022 l 249 1025 q 251 1026 250 1025 q 253 1026 251 1026 q 260 1029 258 1029 q 263 1031 261 1031 l 268 1031 l 294 1040 l 306 1044 l 315 1047 l 325 1050 q 331 1051 328 1050 l 335 1051 l 346 1054 q 356 1056 353 1054 l 367 1056 q 378 1057 371 1057 l 389 1057 q 411 1057 400 1057 q 433 1056 422 1057 q 444 1056 439 1056 q 456 1054 449 1056 q 467 1053 463 1054 l 472 1053 l 478 1051 q 490 1051 485 1051 q 501 1049 494 1050 l 514 1046 l 519 1046 l 522 1044 l 524 1044 l 524 1043 l 519 1019 q 517 997 519 1011 q 515 992 517 993 l 515 986 q 515 981 515 983 q 514 976 514 979 q 513 966 514 971 q 513 956 513 961 q 506 944 506 936 q 508 968 507 953 l 513 996 l 513 1001 l 493 897 q 454 904 472 904 q 452 905 453 904 q 449 906 451 906 q 443 905 446 906 q 438 904 440 904 l 424 904 q 417 903 421 904 q 410 903 414 903 q 404 901 406 903 q 397 900 400 901 q 385 896 390 900 l 374 890 l 369 886 l 367 885 l 364 882 q 356 873 360 878 q 350 863 353 868 q 345 851 347 857 q 340 840 343 846 l 333 817 q 328 798 331 810 q 325 774 326 786 l 325 764 q 324 761 324 764 l 324 750 q 325 732 324 736 q 329 731 326 731 l 329 725 l 328 724 l 328 722 l 332 722 q 342 721 339 722 q 352 721 347 721 q 364 719 357 721 l 390 719 q 405 719 397 719 q 419 721 413 719 l 443 724 q 461 721 454 721 q 467 720 464 721 q 472 719 469 719 l 485 719 q 498 719 492 719 q 511 721 504 719 m 115 574 q 114 568 115 571 q 117 556 117 568 q 118 529 118 544 q 118 499 118 514 q 118 474 118 483 q 115 469 115 479 q 114 451 115 458 q 115 428 114 435 q 118 415 117 421 q 120 398 119 408 q 119 367 121 388 q 120 359 119 364 q 122 351 121 354 q 124 350 122 349 q 125 363 125 351 l 126 342 l 126 574 l 115 574 m 126 221 q 126 211 126 215 q 125 201 125 207 q 125 172 125 186 q 126 146 125 158 l 126 221 m 126 293 q 124 266 122 285 q 126 221 126 247 l 126 293 m 521 572 q 518 563 518 564 q 521 572 518 564 z "},"g":{"ha":882,"x_min":79,"x_max":788,"o":"m 778 590 q 783 506 783 556 q 781 406 782 456 q 779 317 779 357 q 788 261 779 276 q 786 217 786 239 q 786 175 786 196 l 786 144 q 785 133 785 140 l 785 113 q 783 101 785 106 l 783 92 q 778 49 781 69 q 768 6 775 28 q 751 -39 761 -19 q 751 -42 751 -42 q 750 -44 750 -43 q 747 -50 747 -50 l 744 -57 l 743 -60 q 742 -62 743 -60 l 729 -85 l 725 -90 q 724 -93 724 -92 q 721 -96 721 -96 l 713 -108 q 711 -111 713 -108 q 708 -114 711 -111 l 704 -118 l 696 -129 l 688 -139 q 686 -142 688 -139 q 685 -142 685 -142 q 683 -143 685 -143 l 679 -147 l 675 -153 l 663 -165 q 628 -196 644 -182 q 592 -221 611 -210 q 510 -257 553 -244 q 410 -272 463 -271 q 406 -274 407 -272 l 400 -274 q 389 -275 396 -275 q 378 -276 386 -276 q 367 -278 374 -278 q 354 -279 363 -279 l 343 -279 q 331 -281 336 -281 q 318 -281 325 -281 q 258 -257 282 -269 q 229 -233 235 -243 l 236 -236 q 240 -235 236 -235 l 251 -235 l 283 -239 l 319 -243 l 350 -243 q 356 -246 347 -244 q 367 -246 361 -246 q 376 -247 372 -246 q 381 -247 379 -247 q 385 -246 382 -246 q 393 -244 390 -246 l 401 -244 q 404 -243 403 -243 l 421 -239 q 425 -238 424 -239 q 429 -237 426 -237 q 435 -237 432 -237 q 440 -236 438 -236 q 447 -235 443 -235 q 456 -233 450 -233 q 460 -233 458 -233 q 465 -232 463 -232 l 478 -229 q 486 -226 481 -229 l 494 -222 q 497 -222 496 -222 q 494 -221 497 -221 l 489 -221 q 485 -222 489 -222 l 483 -222 q 485 -222 485 -222 q 486 -221 485 -221 l 490 -218 q 415 -232 458 -228 l 407 -232 q 403 -233 404 -232 q 399 -233 401 -233 q 377 -234 388 -233 q 356 -235 367 -235 l 351 -235 q 232 -222 286 -235 l 208 -217 l 186 -212 q 182 -212 183 -212 q 179 -211 181 -211 q 175 -210 178 -210 q 173 -209 174 -210 q 171 -208 172 -208 l 154 -203 l 150 -200 q 147 -199 147 -200 q 144 -199 146 -199 q 140 -196 142 -196 q 138 -194 140 -196 l 136 -193 l 136 -172 q 136 -152 136 -161 q 138 -132 136 -143 q 138 -112 138 -122 q 139 -92 138 -103 l 139 -82 l 140 -71 q 141 -58 140 -64 q 142 -46 142 -53 l 147 0 l 147 1 l 149 0 l 151 0 l 158 -6 l 167 -10 l 169 -12 q 174 -14 172 -12 l 181 -18 q 188 -21 186 -21 l 194 -25 l 203 -28 q 206 -29 204 -29 q 210 -31 207 -29 q 213 -32 211 -32 q 217 -33 214 -32 q 219 -34 218 -33 q 222 -35 221 -35 q 226 -36 225 -36 q 229 -37 228 -36 q 236 -39 233 -37 l 264 -44 q 294 -48 279 -47 q 324 -50 308 -49 l 375 -50 q 383 -49 378 -49 q 407 -45 396 -47 q 428 -40 418 -43 l 461 -28 q 474 -21 468 -25 q 488 -12 481 -17 l 494 -8 l 500 -4 l 506 1 q 508 4 508 1 q 511 7 511 4 l 515 7 q 529 25 522 14 q 543 51 536 36 q 551 81 549 65 q 555 96 554 88 q 557 111 556 104 l 560 164 q 560 169 560 167 q 561 174 561 171 l 561 176 l 560 176 q 558 176 558 175 q 547 165 553 169 q 536 154 542 160 q 535 153 535 154 q 533 153 535 153 l 515 136 q 506 130 511 133 q 497 122 501 126 q 488 116 492 119 q 476 110 483 113 q 454 99 465 104 q 432 89 443 93 q 383 76 410 81 q 370 74 376 75 q 357 74 364 74 q 332 74 344 71 q 306 75 318 74 q 281 79 293 76 l 257 86 q 244 91 250 89 q 233 96 239 93 l 231 97 l 228 97 q 222 100 225 100 l 211 107 q 190 119 200 111 l 185 125 q 183 128 183 128 q 181 129 182 128 q 182 131 181 131 l 206 115 l 210 113 l 214 110 q 215 109 215 110 q 217 108 215 108 l 221 106 q 223 105 222 106 q 225 104 224 104 q 229 103 226 103 q 235 100 232 100 l 240 97 l 242 97 q 226 105 233 100 q 211 114 218 110 q 119 224 153 151 l 114 235 l 110 243 q 107 250 110 244 l 101 265 q 97 281 99 272 q 92 297 94 289 q 85 329 86 315 q 81 361 81 346 q 79 377 79 369 q 79 393 79 385 q 79 408 79 400 q 81 422 79 415 l 90 475 q 92 483 90 481 q 92 487 92 486 q 93 490 93 488 l 96 506 q 99 518 99 514 q 101 531 101 526 l 100 538 q 114 568 107 556 q 121 582 117 575 q 129 596 125 589 l 168 651 l 172 658 l 178 664 l 182 669 l 186 675 q 202 684 194 679 q 219 696 210 689 q 240 707 229 701 q 261 718 250 713 q 267 721 264 721 q 272 724 269 724 l 285 729 l 311 738 l 339 742 q 343 742 342 742 q 346 743 344 743 l 365 743 q 364 742 364 743 q 367 742 364 742 l 372 742 q 382 740 375 740 q 403 738 392 739 q 419 733 414 736 q 419 734 418 733 q 421 735 419 735 l 428 735 q 439 733 432 733 l 450 731 q 454 729 453 731 l 458 729 q 461 729 461 728 l 460 731 q 457 732 458 731 q 451 735 457 732 q 449 735 450 735 q 447 736 449 736 q 449 735 449 736 q 453 735 450 735 l 464 731 q 467 729 464 731 q 468 728 467 729 q 472 727 471 728 q 474 726 472 726 l 479 724 q 481 723 481 724 q 483 722 482 722 q 518 704 504 714 q 533 694 529 699 l 542 690 l 549 685 l 553 682 l 554 682 l 556 681 l 560 678 l 564 674 l 568 671 l 571 671 q 572 672 571 672 l 578 675 q 580 676 579 675 q 583 676 581 676 q 586 678 585 678 q 590 679 588 678 l 626 692 l 656 711 q 701 727 672 718 q 749 743 729 736 l 717 724 l 749 736 l 768 743 q 767 723 768 732 q 765 703 767 714 q 764 690 764 696 q 764 675 764 683 l 764 657 q 764 638 761 649 q 765 651 764 647 l 765 656 q 767 657 765 656 l 767 658 q 768 660 767 660 q 769 657 769 658 q 770 656 769 656 q 771 654 771 656 q 778 590 776 635 m 542 294 q 553 303 549 299 q 564 314 558 308 l 564 319 q 555 347 558 331 q 557 381 551 364 q 561 409 561 394 q 560 439 561 424 q 557 459 557 451 q 558 475 557 467 l 561 475 q 560 488 561 483 l 560 497 l 558 497 l 556 500 q 550 506 551 501 q 547 510 547 508 q 546 515 544 513 l 539 519 q 536 521 536 519 l 525 525 q 514 531 517 528 q 510 531 511 531 q 507 532 510 532 l 501 535 q 453 540 475 544 q 450 543 447 543 q 453 544 450 544 l 457 544 q 467 546 461 546 q 451 549 460 549 q 435 549 443 549 l 424 549 l 404 542 l 397 538 q 390 535 396 538 q 388 533 389 533 q 383 532 386 533 q 381 531 382 532 q 378 531 379 531 l 372 531 q 368 529 369 529 q 365 528 367 529 l 360 524 l 354 519 q 356 515 356 518 q 343 510 347 513 l 339 507 l 336 504 q 335 501 336 504 q 333 497 333 500 q 332 490 332 494 q 324 486 328 490 q 321 481 321 483 q 319 476 319 479 l 313 451 q 311 453 313 454 q 308 450 310 453 q 306 446 308 449 l 303 442 q 306 440 306 442 q 307 435 306 438 q 310 432 307 426 l 310 428 q 308 422 308 426 l 308 415 q 309 414 308 414 q 310 413 310 414 l 310 410 q 311 404 310 406 l 311 397 q 310 392 311 393 q 308 385 310 386 q 312 381 311 382 q 315 378 313 379 q 315 368 317 372 q 314 360 314 364 l 306 364 q 307 360 307 363 q 308 358 307 358 q 308 356 308 357 q 308 353 308 354 q 307 350 307 351 l 307 347 q 306 344 306 346 q 306 342 306 343 q 307 339 307 342 q 308 335 307 336 l 308 338 l 310 339 q 314 340 311 340 q 319 336 318 338 q 321 335 321 336 q 324 333 322 335 l 326 331 q 339 319 335 325 q 351 306 344 310 q 365 296 357 297 q 369 294 367 294 l 372 294 q 375 296 374 296 q 378 299 378 299 q 380 298 379 299 q 382 297 381 297 l 386 294 q 394 292 389 294 q 401 290 399 292 l 410 290 q 427 290 418 290 q 446 292 436 290 l 451 292 q 457 293 454 293 q 461 294 460 293 q 463 295 463 294 q 465 296 464 296 q 481 306 476 301 l 483 308 q 485 309 485 308 q 486 310 485 310 l 493 315 q 495 316 494 315 q 497 317 496 317 q 500 319 497 317 q 505 320 503 319 q 510 321 507 321 q 510 323 510 322 q 511 325 511 324 q 514 329 514 328 l 517 333 l 519 336 q 529 333 524 336 l 539 331 l 557 322 q 556 321 556 322 q 554 317 556 318 q 553 315 554 315 q 550 311 551 314 q 536 303 539 306 q 535 304 538 306 q 529 301 532 303 l 525 297 q 524 295 525 296 q 524 293 524 294 l 521 289 q 517 288 518 289 q 513 286 515 288 q 509 281 511 285 q 514 281 507 278 l 510 276 l 529 286 l 528 286 l 533 289 l 540 294 l 542 294 m 649 -136 q 671 -112 661 -125 q 689 -87 681 -100 q 670 -110 679 -99 q 650 -132 661 -121 l 617 -161 l 621 -158 l 622 -157 q 624 -156 624 -157 q 625 -156 624 -156 l 632 -150 l 636 -146 q 640 -143 638 -146 l 649 -136 m 614 -162 q 588 -180 601 -172 q 558 -194 574 -187 q 569 -192 561 -194 q 572 -191 571 -192 q 574 -190 572 -190 q 576 -189 575 -189 q 579 -187 578 -187 q 585 -184 582 -185 q 590 -181 588 -183 l 593 -178 q 596 -176 594 -178 l 603 -171 l 610 -167 l 614 -162 m 454 261 q 475 265 465 263 q 496 271 485 268 q 493 272 494 272 q 490 272 490 272 q 488 271 489 271 l 483 268 q 479 267 481 268 q 475 265 476 267 l 465 265 q 463 265 464 265 q 461 264 463 264 q 454 261 460 264 m 503 -215 q 499 -216 500 -215 q 496 -217 499 -217 l 500 -217 l 503 -215 m 479 -224 q 482 -222 481 -222 q 479 -224 482 -222 m 311 435 q 310 433 311 433 q 310 432 310 433 q 311 435 310 433 z "},"h":{"ha":872,"x_min":110,"x_max":775,"o":"m 774 81 q 774 64 774 72 q 775 47 774 56 l 719 47 q 713 49 715 47 q 687 51 701 50 q 657 51 672 51 l 617 51 q 613 51 614 51 q 608 50 611 50 l 593 50 l 583 46 l 565 46 q 565 66 565 57 q 567 83 565 75 l 567 101 q 568 110 568 104 l 568 117 q 569 148 569 132 q 567 181 569 164 l 564 211 q 568 251 568 229 q 567 300 568 274 l 564 356 l 564 386 q 564 401 564 393 q 563 415 564 408 q 565 414 564 411 l 565 429 q 565 440 565 435 q 564 451 564 446 q 563 461 564 457 q 563 468 563 465 q 560 469 563 468 q 558 472 560 471 q 557 476 558 475 q 552 486 554 481 q 547 496 550 492 q 542 504 542 507 q 543 500 540 504 l 543 497 q 544 496 543 496 q 544 494 544 496 q 545 492 544 493 q 546 490 546 492 q 547 488 546 489 q 547 486 547 488 l 542 500 l 533 513 q 528 517 531 515 q 524 521 526 519 q 514 528 518 526 l 503 532 l 479 532 q 468 529 474 532 q 447 521 457 526 q 425 508 436 515 q 403 492 414 501 q 381 472 393 483 l 376 464 q 376 462 376 463 q 375 460 375 461 q 374 458 374 460 l 374 457 l 371 451 l 371 408 l 367 368 l 360 393 q 360 352 361 365 q 358 328 360 339 q 356 301 357 317 q 356 254 356 286 q 363 268 358 288 q 369 200 367 249 q 374 135 374 172 l 374 32 l 299 32 q 296 33 297 32 q 292 33 294 33 l 186 33 q 157 32 171 32 q 131 29 143 32 q 125 53 128 46 q 126 88 126 71 q 126 121 126 104 q 127 144 126 132 q 128 167 128 156 q 128 210 128 189 q 126 253 128 232 q 126 342 126 297 q 125 438 125 386 q 124 541 126 496 q 119 628 122 586 q 114 715 115 671 q 117 815 113 760 q 113 860 114 836 q 110 910 111 883 q 127 971 118 946 q 146 1004 136 996 q 144 999 144 1001 q 148 983 147 997 q 148 949 149 968 q 147 909 147 929 q 147 876 147 889 q 145 870 146 882 q 144 849 144 858 q 146 819 144 828 q 148 801 147 810 q 149 781 149 793 q 149 740 150 768 q 149 730 149 736 q 151 721 150 724 q 153 721 153 718 q 154 738 154 724 l 157 710 l 157 808 l 156 807 q 157 826 157 814 l 157 1004 l 182 1011 l 233 1031 l 286 1047 q 296 1050 292 1049 q 304 1053 300 1051 l 322 1058 l 358 1068 q 358 1008 360 1039 l 358 982 q 357 971 357 976 q 357 958 357 965 q 353 899 354 931 q 353 836 353 868 q 352 804 351 821 q 353 771 353 788 l 353 704 l 356 660 l 356 632 l 357 632 q 360 635 360 635 q 369 645 365 640 q 379 654 374 650 l 389 663 l 400 671 q 403 669 400 669 q 411 676 406 671 l 417 679 l 421 683 l 449 701 q 518 728 482 719 q 535 731 524 728 l 567 731 q 569 730 568 731 q 574 729 571 729 q 579 728 578 729 l 585 728 q 589 726 586 726 q 596 724 594 724 q 599 721 599 721 q 615 716 607 718 q 631 711 624 714 q 638 707 635 708 q 646 704 642 706 q 667 690 657 697 q 688 671 678 682 q 705 650 697 661 q 719 626 713 639 q 732 602 726 615 q 743 575 738 589 q 758 519 753 547 q 767 464 764 492 l 771 410 q 773 383 772 396 q 774 357 774 369 q 770 342 771 333 q 769 371 769 351 q 768 381 768 376 q 768 390 768 386 q 767 397 768 393 q 767 403 767 400 l 767 390 l 767 222 l 769 167 q 772 138 771 151 q 772 111 772 125 q 774 104 772 106 l 774 81 m 157 647 q 154 606 151 636 q 154 531 157 575 q 155 494 154 511 q 157 460 156 476 l 157 647 m 765 415 q 766 409 765 413 q 767 403 767 406 l 767 407 q 765 415 767 413 z "},"i":{"ha":439,"x_min":97,"x_max":335,"o":"m 333 57 q 334 40 333 49 q 335 24 335 32 l 289 19 q 278 19 283 19 q 267 18 272 18 l 260 17 l 256 17 q 249 15 250 17 q 220 14 235 14 q 189 17 206 14 q 170 13 179 14 q 150 10 161 11 q 124 27 135 18 q 111 44 114 36 l 114 44 q 134 48 115 50 q 164 47 153 46 q 166 44 161 44 q 175 43 171 44 q 187 44 183 43 q 194 47 190 46 q 203 49 197 49 q 219 49 208 50 q 227 51 222 49 q 221 54 232 53 l 232 56 l 111 56 l 111 67 q 101 117 106 86 q 103 176 97 147 q 107 227 107 200 q 107 282 107 254 q 103 318 104 306 q 106 346 103 331 l 108 347 q 107 369 108 356 q 106 397 106 383 q 107 422 106 411 q 111 435 108 432 l 111 449 q 108 530 107 486 q 103 613 110 574 q 106 619 104 621 q 108 610 107 617 q 109 597 108 604 q 111 588 110 590 l 111 667 q 110 678 110 671 q 128 685 118 679 l 139 689 l 149 693 q 188 704 172 703 q 210 708 196 704 q 233 715 225 711 l 235 719 l 239 719 q 241 720 240 719 q 243 721 242 721 l 251 721 l 267 724 l 282 726 q 290 729 286 728 q 300 733 294 731 l 313 739 l 314 736 q 310 713 310 724 q 309 701 308 707 q 310 690 310 696 q 311 676 311 686 q 312 674 311 675 q 313 669 313 672 l 313 664 q 314 651 314 657 q 314 639 314 646 q 310 632 311 643 q 307 617 310 621 q 310 613 308 618 q 312 604 311 608 q 313 599 313 600 q 317 608 314 599 q 319 558 314 578 q 318 510 324 538 l 325 494 q 325 476 326 485 q 321 460 324 468 l 314 471 q 315 453 315 458 q 313 443 314 447 q 310 433 311 439 q 310 414 310 426 q 317 419 313 426 q 324 392 321 411 q 328 354 329 376 q 326 310 328 332 q 325 271 325 289 q 333 246 325 253 q 332 208 332 226 q 332 172 332 190 q 333 155 332 164 q 333 136 333 146 l 333 117 q 334 112 333 114 q 335 107 335 110 l 335 93 q 333 74 333 83 q 333 57 333 65 m 101 925 q 100 944 100 931 q 101 958 100 956 q 107 968 103 964 l 110 967 q 111 971 110 969 q 113 975 111 974 q 115 980 114 978 q 118 985 117 982 q 119 985 119 985 q 121 986 119 986 q 122 988 121 988 q 126 990 125 990 q 131 989 129 990 l 135 993 l 140 1000 q 147 1005 143 1003 q 154 1010 151 1007 q 162 1013 158 1011 q 169 1017 165 1014 q 177 1019 174 1018 q 185 1024 181 1021 q 188 1021 188 1022 l 183 1018 l 178 1015 l 178 1014 q 204 1018 190 1018 l 217 1022 q 238 1022 228 1026 q 240 1019 240 1019 l 244 1017 l 247 1017 q 250 1015 249 1015 l 254 1015 l 257 1018 l 261 1014 q 264 1011 261 1014 l 268 1007 q 272 1006 271 1007 q 274 1006 272 1006 l 281 1006 q 289 994 281 999 q 291 994 290 994 q 293 993 292 993 l 297 990 q 300 988 297 988 q 303 983 303 985 q 303 979 300 983 l 303 972 q 306 974 304 974 q 310 971 308 971 q 313 969 311 969 l 313 971 l 313 975 q 314 971 314 974 q 315 968 314 971 q 316 966 315 967 q 317 964 317 965 q 322 956 319 961 l 325 951 q 326 949 325 950 q 326 946 326 947 l 326 940 q 326 938 326 939 q 325 935 325 938 q 328 932 328 933 q 332 928 329 931 q 331 919 332 922 l 325 914 l 319 919 q 318 913 319 914 q 315 908 318 911 q 313 906 313 908 q 310 903 313 906 q 309 901 310 901 q 308 899 308 900 q 315 899 313 903 q 317 892 317 897 l 317 889 q 315 885 317 886 q 308 868 318 875 q 293 857 301 861 q 286 852 290 854 q 279 847 282 850 l 275 843 q 274 839 275 840 q 275 835 274 838 l 258 831 l 243 825 q 239 824 240 825 q 235 824 238 824 q 232 822 235 822 q 228 821 229 822 q 219 819 222 821 l 211 819 q 201 820 206 821 q 193 819 197 819 q 185 818 190 818 l 176 815 l 158 815 q 140 825 147 818 q 121 828 132 824 q 120 833 121 831 q 119 839 119 836 q 120 844 119 842 q 121 849 121 846 q 128 867 124 861 l 128 865 q 132 867 131 868 q 136 864 133 865 l 140 860 q 146 857 146 857 q 144 854 144 857 q 147 851 147 854 l 153 851 q 156 853 154 851 q 165 850 160 853 l 167 850 q 168 851 167 850 q 167 856 171 854 l 171 856 q 158 861 163 858 l 158 860 q 156 861 157 861 q 150 864 153 864 l 150 865 q 135 875 139 871 q 132 878 132 878 q 115 882 124 878 q 110 887 113 885 q 106 892 108 889 q 101 906 101 897 q 102 915 103 911 q 101 925 101 919 m 207 851 q 194 851 200 851 q 181 854 188 851 q 182 851 181 851 q 185 850 182 850 q 188 851 186 850 q 190 851 189 851 q 196 849 193 851 q 207 851 201 849 m 304 57 q 304 73 304 65 q 303 88 304 81 l 303 56 l 294 56 q 299 55 297 56 q 304 54 301 54 l 304 57 m 272 54 q 286 56 282 54 l 257 56 q 272 54 263 53 z "},"j":{"ha":439,"x_min":-86,"x_max":342,"o":"m 336 51 q 339 44 336 47 l 331 -14 q 330 -18 331 -17 q 329 -21 329 -19 l 328 -25 l 328 -28 l 325 -42 q 322 -56 322 -53 l 321 -60 l 319 -62 l 318 -69 q 309 -97 314 -83 q 297 -125 304 -110 q 282 -153 290 -139 q 261 -181 274 -167 q 234 -206 247 -196 q 207 -226 221 -217 q 153 -256 179 -246 q 125 -267 139 -262 q 96 -274 111 -271 q 88 -274 92 -274 q 81 -275 83 -275 l 72 -275 q 68 -276 69 -275 q 64 -276 67 -276 l 56 -276 q 47 -275 50 -276 q 29 -274 35 -275 q -32 -276 -1 -278 q -68 -254 -53 -267 q -86 -232 -85 -240 q -82 -233 -85 -233 q -72 -232 -81 -231 q -51 -236 -64 -233 q -28 -240 -40 -239 q -8 -242 -15 -242 q -4 -244 -11 -243 q 8 -246 3 -244 q 28 -244 24 -246 q 33 -244 31 -244 q 39 -243 36 -243 q 51 -242 42 -242 q 75 -240 57 -240 q 81 -239 78 -240 q 88 -236 85 -237 q 88 -235 90 -235 q 78 -235 86 -235 l 88 -232 l 92 -232 l 93 -231 q 42 -235 68 -235 l 35 -235 q 24 -233 28 -235 q 10 -233 17 -233 q -4 -232 3 -233 l -7 -232 q -45 -228 -26 -231 q -83 -221 -64 -225 l -81 -206 q -81 -184 -81 -196 q -79 -158 -81 -172 q -78 -149 -79 -154 q -78 -137 -78 -143 q -77 -132 -78 -135 q -76 -126 -76 -129 q -75 -121 -76 -124 l -75 -115 l -71 -87 q -68 -74 -68 -76 l -67 -67 l -65 -65 l -65 -64 l -62 -64 l -29 -75 l -18 -78 l -14 -78 q -10 -79 -12 -79 q -1 -80 -6 -79 q 8 -81 4 -81 q 28 -82 15 -82 q 36 -81 32 -82 q 46 -79 40 -81 q 63 -72 51 -78 q 78 -60 72 -68 q 97 -26 92 -44 l 103 3 l 107 25 l 111 67 l 114 68 q 114 83 114 75 q 113 103 114 92 l 113 147 q 113 180 113 167 q 117 196 114 193 l 117 217 q 115 337 113 272 q 110 458 117 401 q 113 468 111 471 q 115 456 114 465 q 116 437 115 447 q 117 424 117 426 l 117 540 l 113 592 q 110 613 111 603 q 110 633 110 622 q 108 644 108 638 q 108 656 108 650 l 108 678 q 110 682 110 679 l 147 689 l 157 692 l 165 694 l 181 699 l 183 704 l 225 711 l 244 715 q 247 717 246 715 l 250 717 l 256 719 l 269 724 l 292 733 q 303 733 297 732 q 315 735 308 733 q 315 722 315 728 q 317 710 315 717 q 317 697 317 703 q 318 682 317 690 q 319 667 318 672 l 319 626 q 319 624 319 628 q 317 615 318 621 q 316 602 317 608 q 314 593 315 596 q 317 588 315 594 q 319 576 318 582 q 320 567 319 569 q 322 575 321 564 q 325 504 319 533 q 325 436 331 475 l 332 414 q 331 386 333 399 q 328 363 329 374 l 321 378 q 322 353 322 361 q 319 338 321 344 q 317 321 318 331 q 315 292 315 311 q 323 301 318 313 q 331 260 328 289 q 335 205 336 238 q 332 140 335 172 l 332 110 q 331 96 331 103 q 332 82 332 89 l 332 69 q 333 60 333 67 l 336 51 m 340 928 q 339 919 342 925 l 335 914 q 331 917 332 915 q 329 919 331 918 q 328 915 329 917 q 328 913 328 914 l 325 908 q 321 906 324 908 q 319 903 321 906 l 317 899 q 325 899 322 904 q 326 896 325 897 q 326 892 326 894 l 326 889 q 325 885 325 888 q 318 868 325 875 q 303 857 311 861 q 289 847 292 851 q 285 843 285 844 q 283 835 283 840 l 267 831 l 251 825 q 249 824 250 825 q 244 824 247 824 q 240 822 243 822 q 236 821 238 822 q 228 819 231 821 l 219 819 q 210 820 214 821 q 201 819 206 819 q 193 818 199 818 l 185 815 l 168 815 q 150 825 157 817 q 129 828 140 824 l 129 839 q 131 849 129 846 q 136 867 131 856 l 136 865 q 140 867 139 868 q 144 864 142 865 l 150 860 q 154 857 153 857 q 154 854 151 857 q 156 851 154 854 l 161 851 q 165 853 164 851 q 174 850 169 853 q 178 851 176 850 q 176 856 178 854 l 181 856 q 168 861 172 858 l 167 860 q 165 861 167 861 q 160 864 160 864 l 158 865 l 143 875 q 140 878 143 875 q 125 882 133 878 q 115 892 117 888 q 111 906 110 900 q 110 925 111 918 q 109 934 110 929 q 110 944 108 939 q 110 958 107 954 q 115 968 111 964 l 118 967 q 119 969 118 968 q 119 971 119 969 q 120 973 119 972 q 121 975 121 974 l 128 985 l 131 988 q 135 990 133 990 q 139 989 139 990 l 143 993 q 146 997 144 996 q 150 1000 147 997 q 164 1010 156 1006 l 178 1017 q 193 1024 186 1018 q 196 1021 196 1022 q 192 1018 196 1022 l 188 1015 q 186 1014 188 1015 q 214 1018 199 1018 l 226 1022 q 247 1022 236 1026 q 250 1019 247 1019 l 254 1017 l 257 1017 q 258 1015 257 1015 l 263 1015 l 265 1018 q 267 1017 267 1018 q 268 1017 267 1017 q 269 1015 268 1015 q 269 1014 269 1015 q 274 1011 271 1014 l 278 1007 q 280 1006 279 1007 q 283 1006 281 1006 l 289 1006 q 297 994 289 1000 q 299 994 299 994 q 301 993 300 993 l 306 990 q 310 988 308 988 l 313 983 q 311 979 311 983 q 313 976 311 976 q 311 972 313 974 q 315 974 313 974 l 318 971 q 321 969 319 969 q 322 971 321 969 q 324 968 324 971 l 326 964 q 332 956 329 958 q 333 953 332 954 q 333 951 333 953 q 335 946 335 950 q 336 940 336 944 l 333 935 q 340 928 338 932 m 196 -197 q 214 -183 207 -190 q 228 -169 221 -176 q 131 -224 188 -207 l 139 -224 q 142 -223 140 -224 q 146 -222 143 -222 q 147 -221 146 -221 l 149 -221 l 153 -218 q 162 -215 157 -217 q 172 -210 167 -212 l 183 -204 l 196 -197 m 206 849 q 215 851 210 849 q 208 851 213 851 q 201 851 204 850 q 206 849 204 849 m 201 851 q 189 854 197 851 q 190 851 189 853 q 194 850 192 850 q 197 851 196 850 q 200 851 197 851 l 201 851 m 324 581 q 323 577 324 578 q 322 575 322 576 q 323 578 322 576 q 324 581 324 579 z "},"k":{"ha":832,"x_min":108,"x_max":822,"o":"m 822 33 l 672 33 q 668 33 669 33 q 664 32 667 32 q 647 31 653 32 q 625 25 632 28 q 607 25 615 25 q 590 26 599 25 l 542 26 l 513 71 l 493 101 l 454 160 l 413 221 l 392 254 q 380 271 385 263 q 369 288 375 279 q 364 296 367 292 q 358 303 361 300 q 351 294 353 297 l 347 290 l 344 286 q 346 282 344 283 l 346 271 l 349 243 q 351 214 350 228 q 351 186 351 200 q 353 156 353 171 q 353 125 353 140 q 353 109 353 121 q 353 82 353 97 q 352 49 353 67 q 351 15 351 32 q 348 16 349 15 q 346 17 347 17 q 327 15 336 15 q 307 14 318 14 q 297 14 301 14 q 285 13 292 14 l 264 13 q 239 10 251 11 q 214 10 226 10 q 152 27 178 18 q 119 44 126 36 l 125 44 q 141 48 126 47 q 175 48 156 49 q 215 47 194 47 q 247 47 235 47 q 253 44 244 46 l 264 44 q 278 43 268 43 q 305 44 296 44 q 321 46 314 44 q 319 60 319 54 q 318 76 318 67 l 318 128 q 317 138 318 132 q 316 147 317 144 q 314 148 315 150 q 313 132 313 146 l 311 158 l 311 56 l 119 56 l 119 83 q 114 137 117 106 q 110 203 111 168 q 108 276 108 239 q 111 350 108 314 q 115 473 115 408 q 114 606 115 538 q 112 655 113 633 q 111 694 111 676 q 112 728 111 713 q 113 763 113 744 l 115 767 q 115 824 115 788 q 114 896 114 860 q 114 930 114 914 q 115 957 114 946 q 117 967 115 964 l 117 971 q 118 974 117 972 q 119 978 118 976 l 119 1004 l 125 1006 q 133 1009 129 1008 q 140 1011 138 1010 q 153 1014 149 1014 l 164 1018 l 211 1031 q 224 1034 218 1033 q 235 1038 229 1035 l 261 1044 l 314 1058 l 314 975 q 314 962 314 968 q 315 949 314 956 q 316 897 315 922 q 318 847 317 871 q 315 831 317 826 q 313 851 314 836 q 312 883 313 865 q 311 906 311 900 l 311 713 l 315 636 q 317 622 317 629 q 317 607 317 614 q 318 594 318 600 q 318 581 318 588 q 319 554 319 567 q 319 529 319 542 q 326 536 322 533 l 357 567 q 366 578 361 574 q 375 589 371 583 l 383 600 l 388 604 q 390 608 388 606 l 392 617 l 439 665 l 463 692 l 474 706 q 481 714 475 708 l 486 722 l 496 735 l 517 732 l 526 728 l 531 725 q 536 724 535 725 l 554 718 q 576 713 565 715 q 600 708 588 711 q 613 705 607 706 q 625 703 618 704 q 641 700 633 701 q 657 696 649 699 q 691 689 674 693 q 725 681 708 685 l 717 672 l 715 672 q 714 672 714 672 q 713 671 714 671 l 697 658 l 676 640 l 660 628 q 656 618 664 626 l 651 614 l 647 608 l 639 600 q 631 590 632 593 q 640 596 629 588 q 599 558 617 576 q 565 521 581 539 l 529 483 q 524 478 526 481 q 519 474 522 476 l 515 471 q 513 468 513 468 l 497 456 q 500 450 497 453 q 511 442 507 443 l 515 438 l 517 438 l 517 436 l 518 436 l 521 433 q 547 396 536 414 q 569 363 558 378 l 549 379 q 574 346 567 357 q 586 325 581 335 q 600 302 592 315 q 629 263 608 289 q 625 281 610 293 q 672 231 640 268 q 700 198 685 217 q 731 158 715 179 l 750 132 l 775 99 l 822 33 m 383 324 l 365 351 l 324 313 l 338 324 l 364 349 l 381 326 l 383 324 m 314 247 q 312 263 313 254 q 311 282 311 271 l 311 222 q 314 247 314 231 m 643 599 l 650 604 l 643 599 z "},"l":{"ha":447,"x_min":104,"x_max":350,"o":"m 350 15 q 315 15 333 15 q 278 14 297 14 l 249 14 q 238 15 243 14 q 225 17 232 15 q 201 13 214 14 q 172 10 188 11 q 137 27 151 18 q 118 44 122 36 l 121 44 q 129 48 121 47 q 149 48 138 49 q 172 47 161 47 q 190 47 183 47 q 194 44 188 44 q 207 43 200 44 q 224 45 218 44 q 233 47 229 46 q 246 49 236 49 l 269 49 q 276 49 272 49 q 281 51 279 50 q 281 53 283 53 q 271 54 279 53 q 281 56 278 54 l 118 56 l 118 71 q 108 140 113 97 q 110 224 104 183 q 114 293 114 256 q 113 369 114 331 q 110 421 110 401 q 111 460 110 440 l 114 461 q 113 492 114 472 q 113 531 113 511 q 114 565 113 550 q 118 582 115 579 l 118 601 q 115 656 115 628 q 114 715 114 685 q 113 774 114 744 q 110 829 113 803 q 113 838 111 840 q 115 826 114 835 q 116 808 115 818 q 118 796 117 799 l 118 907 l 114 940 q 113 949 114 944 q 113 957 113 953 q 112 960 113 958 q 111 964 111 961 l 111 974 q 110 992 110 983 q 110 1011 110 1001 q 124 1015 117 1014 q 140 1018 132 1017 q 147 1019 142 1019 l 151 1019 q 156 1021 153 1021 l 174 1024 q 190 1029 182 1026 q 206 1035 199 1032 l 208 1039 l 247 1046 l 253 1046 q 258 1047 254 1047 l 269 1050 l 293 1058 l 315 1067 l 319 1067 q 317 1051 317 1058 q 317 1038 317 1044 q 316 1023 315 1031 q 317 1007 317 1015 q 318 997 318 1004 l 318 990 q 319 974 319 985 q 319 942 322 958 q 319 943 319 946 q 317 934 318 940 q 316 921 317 928 q 314 911 315 914 q 317 906 315 913 q 319 894 318 900 q 320 885 319 888 q 322 893 321 883 q 322 858 321 874 q 325 827 324 842 q 327 797 326 813 q 325 763 328 781 l 332 742 q 331 715 333 726 q 328 693 329 704 l 321 707 q 322 683 322 690 q 319 669 321 675 q 317 654 318 663 q 317 628 317 646 q 324 636 319 647 q 331 597 328 625 q 335 546 336 576 q 333 485 335 515 q 332 429 332 454 q 340 396 332 404 q 339 292 338 339 q 342 188 340 246 q 343 117 339 144 l 343 108 q 344 107 343 107 q 344 106 344 107 l 344 100 q 345 86 344 93 q 346 72 346 79 l 350 15 m 310 68 q 311 89 314 72 q 310 110 311 103 l 310 68 m 310 124 q 311 135 310 131 q 311 156 311 146 q 310 175 311 165 l 310 124 m 324 899 q 323 895 324 896 q 322 893 322 894 q 323 896 322 894 q 324 899 324 897 z "},"m":{"ha":1260,"x_min":106,"x_max":1161,"o":"m 1161 142 q 1158 122 1160 117 q 1156 147 1157 128 q 1155 188 1156 165 q 1154 217 1154 210 l 1154 56 l 1050 56 l 1006 53 q 982 52 994 53 q 957 51 969 51 q 956 75 956 63 q 956 100 956 88 q 954 112 954 107 q 954 124 954 117 l 954 144 q 954 229 951 189 q 956 261 956 242 q 957 301 957 281 q 957 342 957 322 q 956 376 957 361 l 951 386 q 952 408 951 397 q 953 429 953 418 l 950 471 l 946 492 q 944 497 944 494 q 943 503 943 499 l 940 507 q 940 510 940 508 q 939 513 939 511 l 926 528 l 921 532 q 919 533 919 532 q 917 533 918 533 q 914 535 917 535 l 913 536 l 910 536 q 907 538 908 538 q 890 538 899 539 l 881 538 l 876 536 l 875 536 l 872 535 l 861 535 q 856 533 858 535 q 850 532 851 533 q 847 531 849 532 q 844 531 846 531 q 838 528 843 531 q 835 527 836 528 q 832 526 833 526 l 825 522 l 800 508 q 788 499 793 503 q 775 488 782 494 l 772 485 q 769 483 772 485 l 765 478 l 760 474 l 758 472 l 760 469 l 760 451 q 761 432 760 439 l 761 356 q 759 358 760 365 q 758 338 758 351 q 756 309 757 324 q 754 288 756 294 q 757 277 756 290 q 759 250 758 264 q 761 231 760 236 q 764 243 763 225 q 763 194 763 217 q 764 150 764 171 q 765 138 765 143 q 765 126 765 132 q 766 114 765 119 q 767 103 767 108 q 767 71 767 88 q 768 39 768 54 q 752 38 760 38 q 736 38 744 38 l 703 38 l 650 40 l 626 38 l 615 35 l 608 35 l 604 33 l 535 33 q 535 59 535 47 q 536 82 536 71 q 538 93 538 88 q 538 104 538 99 q 539 118 538 114 l 542 107 l 542 103 l 546 83 q 546 92 546 88 q 544 103 546 97 l 544 139 l 547 169 q 549 203 549 183 q 550 263 550 222 q 547 238 549 242 q 542 246 544 235 q 539 280 540 257 q 536 333 538 303 l 532 386 l 532 415 l 529 446 l 525 475 q 524 479 525 478 q 524 483 524 481 l 522 486 l 522 490 q 517 503 519 499 q 511 511 514 508 q 504 518 508 515 l 496 522 q 483 524 492 524 l 471 524 q 457 521 468 524 q 445 517 450 519 q 433 511 440 514 q 428 508 431 510 q 422 504 425 507 l 413 496 l 393 479 q 385 470 389 475 q 379 461 382 465 l 374 456 l 374 454 q 371 450 371 451 l 371 446 q 372 444 371 444 q 372 442 372 443 l 372 440 q 374 438 374 439 q 374 434 374 435 q 375 432 375 433 q 374 333 374 379 q 374 242 374 286 q 374 196 374 218 q 375 150 374 174 l 375 25 l 121 25 l 121 65 q 119 86 119 72 l 119 104 q 119 127 119 115 q 117 150 118 139 l 113 239 q 110 330 110 283 q 113 435 110 376 q 108 492 110 463 q 106 556 107 522 q 123 633 114 600 q 142 676 132 665 q 140 668 140 672 q 144 648 143 667 q 144 604 144 629 q 143 553 143 579 q 143 513 143 528 q 141 506 142 521 q 140 478 140 490 q 142 440 140 451 q 144 417 143 428 q 145 391 144 407 q 144 340 146 375 q 145 328 144 336 q 147 315 146 319 q 149 315 149 311 q 150 335 150 318 l 153 301 l 153 425 l 151 424 q 153 436 153 431 q 153 449 153 442 l 153 676 l 185 685 l 229 700 l 282 717 q 299 722 288 719 l 317 728 q 335 733 326 731 q 354 739 344 736 l 354 668 q 355 663 354 665 q 356 658 356 661 l 354 651 l 354 638 l 367 650 q 375 657 369 651 l 383 664 l 388 667 l 393 671 q 406 679 397 675 l 411 683 l 428 692 q 432 694 431 694 l 435 696 l 436 697 l 454 706 q 532 728 493 724 q 543 729 536 729 l 575 729 q 580 728 578 729 q 585 728 582 728 q 590 727 588 728 q 596 726 593 726 q 617 721 610 724 l 638 713 l 656 701 q 689 672 674 689 q 703 657 694 668 l 711 644 q 719 632 715 638 q 725 619 722 626 l 725 618 l 726 618 q 728 619 726 619 q 731 622 728 622 q 733 626 732 625 q 736 628 735 626 l 747 639 l 769 657 q 782 667 776 663 q 794 675 788 671 l 822 692 l 828 692 q 856 707 839 699 q 896 722 874 715 q 942 731 917 728 l 976 731 q 983 729 981 731 l 989 729 q 1031 717 1011 725 l 1047 708 l 1054 703 q 1057 701 1056 703 q 1060 699 1060 699 q 1069 690 1068 693 l 1074 686 l 1076 682 q 1078 678 1078 681 q 1092 663 1085 671 q 1104 643 1099 654 q 1114 626 1108 638 q 1138 564 1129 594 q 1156 424 1153 500 q 1157 388 1157 406 q 1157 351 1157 369 l 1157 279 l 1161 142 m 153 56 l 153 221 q 150 201 150 214 q 150 172 150 189 q 151 151 151 163 q 151 128 151 140 l 151 101 q 151 87 151 94 q 150 72 151 79 l 150 54 q 178 54 165 54 q 204 56 192 54 l 153 56 m 765 260 q 764 243 764 253 q 765 260 764 254 z "},"n":{"ha":865,"x_min":103,"x_max":767,"o":"m 767 246 q 764 233 765 229 q 762 249 763 236 q 760 276 761 261 q 760 294 760 290 l 760 132 q 761 117 760 122 l 761 101 q 763 85 763 96 l 765 49 q 750 48 758 49 q 735 47 742 47 l 719 47 q 704 46 714 46 l 653 46 q 645 47 650 47 q 635 49 640 47 l 613 49 q 563 49 586 51 q 561 55 561 51 q 561 61 561 58 l 557 65 q 558 84 557 75 q 558 101 558 93 l 561 129 q 562 159 561 144 q 560 190 563 174 l 557 215 q 559 289 564 244 q 557 386 554 333 q 558 385 558 381 q 560 399 558 390 q 560 418 560 408 q 561 432 560 428 q 557 439 558 429 q 553 457 556 449 q 550 464 550 463 q 549 467 549 465 l 549 465 q 549 463 549 463 l 549 449 q 535 497 547 476 q 528 506 532 503 q 522 514 525 510 q 507 524 518 518 q 491 527 500 526 q 471 528 482 528 q 451 524 461 526 q 429 517 440 522 q 419 506 425 514 l 410 494 q 397 483 403 488 q 383 472 390 478 q 372 461 379 465 l 367 456 q 363 453 364 453 q 364 456 364 453 l 364 458 l 365 460 l 369 469 q 363 461 364 464 l 358 456 l 354 451 l 354 447 q 353 443 354 444 q 353 439 353 442 q 351 429 353 432 q 349 407 350 419 q 349 367 349 394 q 356 378 351 394 q 363 322 360 363 q 367 260 367 296 q 365 186 368 224 q 365 149 365 167 q 364 114 364 131 l 364 72 q 365 51 364 61 q 365 31 365 40 q 324 24 342 29 l 290 24 q 269 25 276 24 l 119 25 l 119 124 q 118 160 118 142 q 118 199 118 179 q 117 285 119 247 q 112 359 115 324 q 107 431 108 394 q 110 515 106 468 q 106 553 107 533 q 103 594 104 572 q 120 647 111 625 q 139 675 129 668 q 138 669 138 672 q 141 656 140 668 q 141 628 142 644 q 140 594 140 611 q 140 567 140 576 q 138 562 139 572 q 138 543 138 551 q 139 519 138 526 q 141 504 140 511 q 142 486 142 497 q 142 453 143 475 q 142 444 142 450 q 144 437 143 439 q 147 437 146 435 q 147 450 147 439 l 150 426 l 150 508 l 149 508 q 150 525 150 514 l 150 675 l 171 681 l 226 701 l 281 718 q 351 738 317 729 q 351 707 351 722 q 350 678 351 692 q 349 673 350 675 q 349 668 349 671 l 349 660 q 347 647 347 657 q 347 640 347 644 q 346 633 346 636 l 346 624 l 347 625 q 350 628 347 625 q 373 649 361 639 q 399 671 385 660 l 406 675 l 413 681 l 417 683 l 421 686 l 428 692 l 436 696 q 444 701 442 699 l 453 706 l 457 707 l 461 710 q 467 713 464 710 q 469 713 468 713 q 472 714 471 714 l 482 718 l 492 722 q 494 723 493 722 q 497 724 496 724 q 499 724 499 724 q 501 725 500 725 l 510 728 q 519 729 517 728 l 524 729 q 526 730 525 729 q 528 731 526 731 l 543 731 q 547 732 544 732 l 550 732 q 554 731 553 732 q 558 731 556 731 l 565 731 q 572 730 568 731 q 579 729 576 729 q 588 728 582 728 q 590 726 589 726 q 594 725 592 726 l 597 722 l 618 717 q 621 715 618 717 q 624 714 622 715 q 627 713 626 714 q 631 713 628 713 l 636 708 q 640 707 639 708 l 642 707 l 643 706 l 650 701 l 651 701 l 653 700 l 657 697 l 663 693 l 669 689 q 681 678 676 683 q 692 667 686 672 q 718 622 711 643 q 722 608 722 614 q 724 606 724 607 l 733 578 q 735 576 733 578 l 738 567 q 750 524 746 546 q 751 518 750 519 l 751 513 l 754 501 q 755 496 754 499 q 756 490 756 493 q 756 487 756 488 q 757 483 757 486 l 757 478 q 758 467 758 474 q 759 460 758 464 q 760 454 760 457 q 760 443 760 449 q 761 431 761 438 l 761 419 q 763 407 763 415 l 763 336 l 767 246 m 150 374 q 147 338 144 364 q 147 276 150 313 q 148 247 147 261 q 150 217 149 232 l 150 374 z "},"o":{"ha":865,"x_min":79,"x_max":792,"o":"m 788 333 q 783 282 792 311 q 764 224 778 256 q 751 198 757 210 q 738 175 744 186 q 728 156 732 164 q 726 142 725 149 q 649 69 686 97 q 604 42 626 53 q 579 31 592 36 q 551 21 567 25 l 493 7 l 443 -3 q 392 -7 418 -7 q 363 -3 378 -6 q 333 4 349 -1 q 278 13 307 4 l 261 28 l 250 43 l 246 50 q 243 57 246 51 q 242 68 242 61 l 244 65 q 253 64 247 68 q 261 61 256 64 l 271 57 l 281 53 q 290 49 285 49 l 300 44 q 304 43 303 43 q 307 42 306 43 q 310 39 304 42 q 315 36 313 39 q 319 35 318 36 q 321 35 319 35 q 338 33 332 32 q 347 33 343 33 q 360 32 354 33 l 364 32 q 368 31 367 32 q 374 30 371 31 q 381 29 376 29 q 386 29 383 29 q 392 31 389 29 q 392 32 393 32 q 383 35 392 32 l 392 35 l 397 36 q 371 38 383 36 q 346 42 358 39 q 338 44 343 42 q 325 47 331 46 q 313 50 319 47 l 311 50 q 247 78 278 61 q 235 85 239 83 l 222 90 q 189 110 206 97 q 170 125 179 117 q 154 143 161 133 q 129 183 138 161 q 126 190 126 186 q 122 199 125 194 l 117 214 q 111 229 114 218 l 107 238 q 106 242 107 240 q 104 246 106 244 q 99 263 101 257 l 94 279 l 90 297 l 86 315 q 82 342 83 331 q 79 364 81 353 q 79 382 79 374 q 81 400 79 390 l 83 403 l 83 417 q 83 424 83 419 q 85 433 83 429 q 86 453 85 443 q 89 472 88 463 q 94 490 92 482 q 99 504 96 497 q 106 514 101 510 q 113 531 107 519 q 125 565 117 550 l 129 571 q 132 578 129 572 l 140 590 q 148 603 143 597 q 157 615 153 608 l 163 621 l 167 628 q 169 631 169 628 l 178 639 l 200 660 l 206 664 l 211 669 l 217 674 q 222 679 221 675 q 225 681 224 679 l 229 683 l 235 688 l 240 692 l 243 694 q 244 695 244 694 q 246 696 244 696 q 254 699 254 699 q 256 698 256 699 q 254 697 256 697 l 250 693 l 246 690 l 242 688 q 238 685 239 685 l 233 681 q 226 675 228 678 q 224 672 224 672 q 247 688 235 682 q 317 717 282 707 l 324 719 q 341 725 332 722 q 360 731 350 728 q 433 739 397 742 l 464 735 l 481 732 l 496 732 l 500 735 q 518 729 510 732 q 536 724 526 726 l 574 711 q 590 708 585 708 q 608 694 597 700 q 632 681 618 688 l 638 678 l 644 674 q 647 671 647 671 q 649 670 649 671 q 651 669 650 669 l 658 665 l 681 644 l 681 643 l 686 635 l 688 633 q 690 631 690 631 q 693 625 690 628 q 697 617 697 621 q 704 614 699 618 q 708 610 707 613 q 713 606 710 608 q 718 601 718 600 l 718 604 q 717 608 718 606 q 714 613 715 610 l 733 582 l 742 568 l 746 563 l 750 556 l 754 549 q 757 542 757 543 l 764 528 q 772 493 771 513 q 778 485 775 488 l 783 475 l 786 463 l 786 428 l 778 440 q 779 428 779 435 q 781 418 781 424 l 781 411 q 779 404 779 408 q 778 401 779 403 q 778 397 778 400 q 776 389 778 393 l 776 371 l 776 367 q 778 371 776 369 q 778 373 778 372 q 779 375 779 374 q 783 372 781 376 l 788 357 l 788 333 m 506 242 q 528 263 517 249 l 532 268 q 533 274 532 271 q 536 290 533 279 q 550 326 540 313 q 560 353 557 336 l 560 385 q 558 396 558 392 q 557 404 557 400 q 556 421 556 410 l 558 422 l 550 451 q 549 458 549 453 q 547 464 547 460 q 549 471 547 469 l 544 478 q 535 490 539 486 q 528 500 532 496 q 518 510 524 504 q 497 525 508 519 q 486 529 492 528 q 474 532 481 531 q 472 535 468 535 q 479 535 475 538 l 483 535 q 485 534 485 535 q 488 533 486 533 l 489 533 q 446 546 471 543 l 425 542 q 410 538 418 539 q 396 536 403 536 q 393 537 394 536 q 390 538 392 538 q 382 536 388 536 q 379 535 382 536 q 377 534 378 535 q 375 533 376 533 q 371 531 372 531 l 371 525 l 367 525 q 365 524 365 525 q 364 524 365 524 q 356 521 361 524 q 353 519 354 521 q 350 518 351 519 q 346 515 347 515 l 346 513 q 344 511 344 513 l 343 507 q 342 504 342 507 q 326 492 333 504 q 326 488 326 489 q 325 485 325 488 l 322 479 q 317 467 319 471 q 313 465 317 469 q 311 464 313 465 q 310 463 311 463 q 310 461 310 463 l 307 458 q 310 456 310 458 q 310 450 310 453 l 310 447 l 313 447 q 311 443 311 446 q 310 440 311 442 q 310 438 310 439 l 310 424 q 310 422 310 422 q 311 418 311 421 l 311 413 q 310 406 310 410 q 308 403 308 404 q 307 399 308 401 l 314 390 q 313 381 314 383 q 310 372 313 378 l 303 376 q 303 363 304 365 q 300 356 301 360 q 301 344 299 351 q 307 349 301 354 q 317 336 311 347 q 322 328 319 333 q 325 318 325 322 q 328 308 328 314 q 332 297 329 303 q 340 282 335 288 q 344 279 343 279 q 346 278 344 279 l 347 278 q 354 278 350 276 q 378 258 365 263 q 393 254 386 254 q 397 253 394 253 q 401 251 400 253 l 410 251 q 413 250 411 251 l 425 250 q 431 251 428 250 q 435 253 433 251 q 439 254 438 253 l 446 258 q 452 262 449 260 q 458 265 456 264 q 460 266 460 265 q 463 267 461 267 q 465 268 464 267 q 469 269 468 268 l 474 269 l 482 283 q 486 282 483 282 l 492 279 q 501 276 493 279 q 519 269 510 274 l 517 269 q 513 258 519 265 q 510 256 510 258 q 508 255 508 256 q 506 254 507 254 q 502 251 503 253 q 500 250 501 250 q 497 250 500 253 q 493 249 494 250 l 489 244 l 486 240 q 483 238 486 238 q 475 235 481 235 l 471 231 q 475 229 471 228 l 471 225 q 481 228 476 226 q 492 233 486 231 q 496 235 493 235 l 496 236 q 504 242 501 239 l 506 242 m 425 218 q 441 219 433 218 q 456 221 449 219 q 453 224 456 221 q 450 223 451 224 q 447 222 449 222 q 445 222 446 222 q 443 221 444 221 l 442 221 q 439 219 440 221 l 433 219 q 429 221 431 219 l 419 221 q 413 219 417 219 q 425 218 417 218 m 451 33 q 461 35 456 33 q 474 36 467 36 q 453 35 463 35 q 432 35 443 35 l 438 32 q 451 33 446 32 m 531 47 q 503 41 517 43 q 476 36 490 39 q 494 38 482 38 q 513 42 504 40 q 531 47 522 44 m 314 450 q 313 447 313 449 q 314 450 313 449 z "},"p":{"ha":913,"x_min":110,"x_max":835,"o":"m 832 403 q 833 382 832 389 q 835 361 833 368 q 833 353 833 356 q 832 350 832 351 q 831 350 831 347 q 829 372 829 354 q 826 407 829 396 l 826 382 q 811 258 826 317 l 808 247 q 793 194 804 222 l 790 188 l 788 182 l 782 169 l 768 146 l 751 124 l 743 114 l 735 106 l 699 79 l 658 54 l 654 47 l 642 43 q 635 42 639 42 q 632 40 633 40 q 630 40 631 40 q 628 39 629 39 q 621 38 624 39 q 618 37 619 38 q 615 36 617 36 q 608 35 610 36 q 601 33 604 35 l 574 31 l 544 26 q 533 26 538 26 q 521 25 528 25 l 489 33 l 471 38 q 451 43 460 40 q 431 50 444 44 l 425 53 q 423 53 424 53 q 419 54 422 54 l 414 57 q 412 58 413 57 q 410 58 411 58 q 396 67 403 63 q 382 78 389 71 q 381 79 381 78 q 378 83 379 81 q 370 90 375 86 q 361 100 365 94 l 354 107 q 353 107 354 107 l 353 106 q 356 93 356 103 l 358 75 q 359 69 358 72 q 360 65 360 67 q 363 75 361 65 q 363 66 363 71 q 361 57 363 61 q 361 48 361 53 q 363 39 361 43 l 363 22 q 364 1 364 15 q 367 -41 367 -19 q 364 -89 367 -62 l 371 -117 q 372 -136 372 -128 q 371 -153 371 -144 l 368 -168 l 368 -176 q 367 -181 368 -179 q 367 -186 367 -183 l 365 -179 l 364 -176 l 364 -174 l 360 -164 q 360 -170 360 -167 q 361 -176 361 -174 l 361 -207 l 357 -232 q 347 -231 353 -232 q 333 -231 340 -231 q 317 -229 324 -231 l 297 -229 q 303 -231 300 -231 q 310 -232 307 -231 q 317 -233 315 -232 q 314 -237 321 -236 q 308 -238 311 -237 q 303 -239 306 -239 q 301 -240 301 -239 q 300 -240 301 -240 l 297 -240 q 290 -242 293 -240 l 257 -244 l 211 -249 l 132 -249 l 132 -206 q 133 -195 132 -200 q 133 -185 133 -190 l 133 -168 q 134 -142 133 -154 q 135 -117 135 -129 q 133 -75 135 -93 q 125 -50 131 -57 q 127 23 126 -11 q 127 91 128 57 q 126 160 126 125 q 125 235 125 194 q 124 315 126 279 q 119 383 122 350 q 114 450 115 415 q 117 528 113 485 q 113 562 114 543 q 110 600 111 581 q 127 648 118 628 q 146 675 136 668 q 144 669 144 672 q 148 657 147 668 q 148 631 149 646 q 147 600 147 615 q 147 575 147 585 q 145 571 146 581 q 144 554 144 561 q 146 531 144 538 q 148 517 147 524 q 149 501 149 511 q 149 469 150 490 q 149 462 149 467 q 151 455 150 457 q 153 454 153 453 q 154 467 154 456 l 157 446 l 157 521 l 156 521 q 157 536 157 526 l 157 675 l 176 679 q 202 690 188 685 q 233 701 217 696 q 247 706 240 704 q 260 711 253 708 l 274 715 q 278 716 276 715 q 281 717 279 717 q 285 718 283 718 q 288 719 286 718 l 358 738 q 358 717 358 726 q 357 700 357 708 l 354 678 l 354 658 q 353 643 353 654 l 353 633 l 354 635 q 357 638 354 635 q 377 655 367 646 q 399 672 388 664 l 411 681 l 417 685 l 419 688 l 422 689 l 450 706 q 485 722 471 717 l 515 732 q 542 736 529 736 q 569 736 556 738 l 572 733 l 599 733 q 604 732 600 732 q 610 731 607 732 q 618 731 614 731 q 672 711 646 724 q 694 697 685 704 q 711 683 704 690 q 713 681 713 682 q 717 678 714 679 l 719 674 q 721 671 721 672 l 739 651 q 757 632 749 643 q 772 610 765 621 q 792 572 783 592 q 808 532 801 553 q 819 488 815 510 q 826 446 824 467 q 830 424 829 435 q 832 403 831 414 m 560 240 q 572 249 567 244 q 585 261 578 254 l 589 267 q 590 272 589 271 l 590 276 q 592 281 592 278 q 593 285 593 282 q 594 288 593 286 q 594 290 594 289 q 596 294 594 293 q 597 299 596 297 q 600 308 597 303 q 601 310 600 310 q 601 314 601 311 l 603 315 l 603 318 l 606 322 l 608 328 q 617 356 614 338 q 617 388 619 371 l 617 390 q 615 394 617 393 l 615 400 q 614 408 614 403 q 613 417 613 411 l 613 425 l 615 426 q 615 429 615 428 q 614 432 614 431 q 611 440 611 438 l 608 449 q 606 457 606 454 q 604 460 604 458 q 603 464 604 461 q 602 467 603 467 q 601 471 601 468 q 603 476 601 475 l 599 483 l 588 497 q 579 506 583 501 q 569 515 575 511 q 546 529 557 525 q 521 535 536 535 q 519 539 518 538 l 531 539 q 533 538 532 539 q 535 538 533 538 l 538 538 q 490 547 518 544 l 471 542 q 439 533 454 536 q 433 533 436 533 q 426 532 429 533 q 413 526 415 529 l 413 522 l 397 518 q 382 510 388 515 l 378 503 l 374 503 q 372 501 372 503 l 371 501 q 368 500 369 501 q 365 497 365 499 q 361 493 364 496 q 358 489 361 492 l 358 483 q 360 472 360 479 l 358 472 q 357 469 357 472 l 353 458 q 356 457 354 460 q 358 451 357 454 q 359 448 358 449 q 363 454 360 447 q 365 423 360 435 q 364 394 371 411 l 371 386 q 367 365 372 376 l 360 371 q 358 354 363 357 q 356 338 354 351 q 363 340 358 344 q 369 324 367 335 q 373 314 372 319 q 374 301 374 308 l 374 290 q 372 283 372 288 l 372 282 l 371 281 l 372 281 q 374 278 372 278 l 378 274 l 383 274 q 390 275 389 274 l 406 264 l 424 257 q 461 251 438 254 q 482 251 468 249 q 486 253 485 251 q 492 254 490 253 l 493 254 q 496 256 494 256 q 499 257 496 256 l 514 265 l 531 269 q 534 276 532 272 q 539 282 536 279 l 540 282 q 543 281 542 281 q 546 280 544 281 q 549 279 547 279 q 558 276 554 276 q 567 272 563 274 q 576 268 572 271 l 574 268 q 574 264 575 265 l 574 263 l 569 258 q 565 256 567 256 q 564 254 565 254 q 561 253 563 253 l 558 250 q 557 249 557 250 q 556 249 557 249 q 553 250 556 251 q 549 249 551 249 l 543 243 q 542 241 543 242 q 542 239 542 240 l 538 236 q 533 235 536 235 q 531 234 532 235 q 528 233 531 233 q 526 232 526 233 q 525 229 525 231 q 529 228 521 225 l 526 225 q 524 224 525 225 l 546 232 l 550 235 q 560 240 556 236 m 157 396 q 154 364 151 388 q 154 307 157 340 q 155 278 154 292 q 157 251 156 264 l 157 396 m 479 218 q 494 219 488 218 q 508 221 501 219 q 499 222 507 222 q 491 219 496 221 q 481 221 486 218 q 463 219 468 221 q 471 219 467 219 q 479 218 475 218 z "},"q":{"ha":882,"x_min":78,"x_max":783,"o":"m 779 -182 q 781 -189 779 -186 l 783 -203 q 783 -229 783 -217 q 782 -253 783 -242 l 703 -253 q 680 -252 692 -251 q 657 -253 668 -253 l 610 -253 q 570 -253 590 -253 q 529 -254 550 -254 l 529 -164 q 528 -84 531 -119 q 524 -17 526 -49 q 522 0 522 -8 q 521 17 521 8 q 519 33 519 22 l 519 43 l 518 43 l 518 47 q 521 56 518 47 q 519 54 519 56 l 518 53 l 518 51 q 514 43 514 44 q 510 51 514 47 l 508 53 l 504 53 q 492 50 496 50 q 460 53 469 47 q 462 53 461 53 q 464 54 463 54 q 474 63 464 57 q 479 66 476 65 q 485 69 482 67 l 490 74 q 492 74 492 74 q 493 75 492 75 q 496 76 494 76 q 506 84 501 81 q 517 90 511 88 q 532 103 524 97 q 533 101 528 99 q 542 108 539 107 q 544 111 542 108 q 547 115 547 114 l 549 115 l 549 114 l 549 111 q 550 110 549 110 l 553 103 q 553 98 553 100 q 554 92 554 96 q 554 81 554 88 q 553 65 554 75 q 556 54 553 60 q 558 53 557 51 q 558 65 558 54 l 561 46 l 561 122 l 560 119 q 560 128 560 124 q 561 135 561 132 l 561 142 q 550 131 556 135 q 539 121 544 126 q 538 119 539 119 q 497 88 518 101 q 454 63 476 74 l 436 54 l 419 46 q 365 28 399 35 q 297 28 331 21 q 279 33 288 31 q 263 38 271 35 q 247 44 256 40 q 232 54 239 49 q 196 83 211 68 l 178 100 l 171 107 l 169 110 l 161 118 q 132 161 143 140 q 119 184 125 172 q 108 208 114 196 q 101 227 104 218 q 94 244 97 236 q 86 274 88 261 q 82 301 83 289 q 79 328 81 313 l 82 331 l 78 375 q 78 403 78 389 q 79 432 78 417 q 83 458 81 446 q 88 478 85 469 q 94 493 92 492 q 97 506 96 500 q 101 518 99 511 q 118 568 107 543 q 164 640 136 608 q 178 657 171 649 q 194 672 186 665 q 231 697 210 686 q 269 718 250 710 q 308 733 289 726 l 319 733 q 321 733 321 733 q 319 732 321 732 l 297 725 q 283 720 290 722 q 272 715 276 718 l 267 711 q 367 731 310 731 q 414 726 390 731 q 424 725 421 726 q 451 720 438 724 q 476 713 464 717 q 525 688 506 701 l 531 683 l 536 679 l 542 676 l 546 672 l 547 672 l 558 661 q 561 658 561 661 l 563 658 l 563 657 l 564 657 q 565 658 564 658 l 568 658 l 578 661 q 580 662 579 661 q 582 663 581 663 q 588 664 583 664 l 599 668 l 640 686 l 644 692 q 669 700 657 697 l 682 704 l 685 706 l 689 707 q 696 710 690 707 q 724 719 711 714 l 756 733 l 761 736 q 764 717 761 731 q 760 676 760 696 l 760 636 q 763 594 761 615 q 763 549 764 572 q 762 547 763 551 q 760 533 761 542 q 759 517 760 525 q 757 506 758 510 q 760 498 758 507 q 762 481 761 489 q 763 471 763 472 q 767 488 764 469 q 767 437 765 460 q 769 393 768 414 q 771 351 771 372 q 768 304 771 331 l 775 276 q 774 241 776 257 q 771 210 772 225 l 764 231 q 765 198 765 208 q 763 179 764 188 q 760 159 761 171 q 760 122 760 147 q 767 133 763 149 q 774 81 771 117 q 778 11 779 53 q 776 -72 778 -31 q 775 -111 775 -92 q 775 -146 775 -131 q 778 -174 775 -160 l 778 -178 q 779 -182 779 -179 m 468 224 q 499 233 488 228 l 506 236 q 522 254 510 242 l 529 261 q 533 264 531 261 l 536 267 q 551 276 540 271 l 553 276 l 553 278 l 554 278 l 554 281 q 556 288 556 283 q 556 290 556 289 q 557 294 557 292 l 557 301 q 557 318 557 310 q 556 335 557 326 q 553 356 553 349 q 554 374 553 364 l 558 374 q 556 404 557 385 q 561 426 554 424 l 561 435 q 558 451 558 446 l 558 478 q 558 484 558 481 q 557 492 557 488 l 557 494 l 556 496 l 550 500 q 539 507 544 504 q 536 508 539 507 q 533 510 536 508 l 528 513 q 526 517 524 517 q 533 514 528 517 q 544 511 542 511 q 524 524 535 518 q 503 533 514 529 q 482 535 496 535 l 450 538 q 436 542 443 542 l 429 542 q 422 540 424 542 q 422 538 422 539 q 421 536 421 538 q 417 537 418 536 q 413 538 415 538 l 408 538 q 404 539 407 539 q 396 538 399 539 q 392 536 393 538 q 390 535 390 536 q 388 535 389 535 q 385 532 388 535 l 382 529 q 372 531 379 531 l 367 528 q 363 525 364 525 l 358 521 q 355 518 356 519 q 353 515 354 517 l 343 507 q 342 508 343 508 l 340 508 l 339 507 l 333 504 q 331 503 332 504 q 329 503 331 503 q 331 499 331 503 q 330 497 331 497 q 329 493 329 496 q 328 490 328 492 q 333 493 331 490 q 331 490 331 490 q 328 488 328 488 q 325 482 325 482 q 322 476 322 479 q 321 469 322 472 q 320 466 321 467 q 319 464 319 465 q 318 461 319 461 l 318 457 l 315 451 l 311 446 q 314 440 311 443 q 315 438 314 439 q 315 436 315 438 q 313 426 315 432 l 308 418 l 303 425 q 301 419 303 421 l 301 415 q 299 410 301 413 l 296 404 q 295 402 296 403 q 294 399 294 401 l 294 392 q 298 397 296 396 q 301 396 300 399 q 304 393 301 396 q 305 392 304 392 q 306 390 306 392 q 308 381 308 385 l 311 375 q 312 373 311 374 q 313 371 313 372 q 313 365 313 368 q 314 360 314 363 q 315 349 315 354 q 315 336 315 343 q 319 317 315 322 l 325 310 q 332 308 329 307 q 339 290 333 301 l 350 278 q 363 268 353 272 l 378 260 q 394 254 385 254 q 413 257 401 254 q 417 258 415 257 q 421 258 418 258 q 425 260 422 260 q 427 260 426 260 q 429 261 428 261 l 449 261 l 464 271 q 481 258 472 264 q 494 244 489 251 l 493 244 q 483 238 494 240 q 474 235 479 235 q 467 233 469 235 q 465 235 468 235 q 460 235 463 235 q 450 229 454 233 l 444 226 l 436 226 q 431 224 433 226 q 435 221 431 221 l 429 218 l 453 221 l 457 221 l 468 224 m 561 -3 q 558 -35 556 -11 q 558 -92 561 -58 q 559 -119 558 -107 q 561 -144 560 -132 l 561 -3 m 368 229 q 413 219 392 219 q 404 222 411 222 q 386 225 394 219 q 383 226 385 225 q 381 226 382 226 q 378 227 379 226 q 376 228 378 228 l 372 228 q 370 228 371 228 q 368 229 369 229 z "},"r":{"ha":628,"x_min":103,"x_max":618,"o":"m 617 678 q 611 661 614 667 q 608 653 611 658 q 608 650 608 651 q 607 646 607 649 q 602 631 604 639 q 597 617 600 624 q 592 608 592 606 q 594 619 592 611 q 599 638 596 628 q 603 650 603 647 l 561 547 l 557 533 q 554 520 556 526 q 550 507 553 514 l 549 501 l 547 497 l 547 496 l 546 494 l 544 496 q 543 497 543 496 l 540 497 l 539 499 l 524 511 l 519 514 q 515 517 517 517 l 513 518 l 511 519 l 510 519 l 506 522 l 504 522 l 501 524 q 499 525 500 524 l 494 525 q 492 526 493 525 q 478 528 486 528 q 464 531 469 531 q 456 530 460 531 q 446 528 451 529 q 417 514 429 524 l 417 508 q 386 488 397 499 q 374 472 378 482 q 364 454 369 468 l 361 446 q 358 439 361 444 q 356 435 358 438 q 354 432 354 433 q 353 431 353 432 q 350 425 350 428 l 349 425 l 349 393 q 353 326 353 361 q 351 326 351 329 q 349 317 350 324 q 348 305 349 311 q 346 296 347 299 q 349 290 347 297 q 351 277 350 283 q 352 270 351 271 q 356 283 353 269 q 358 213 353 242 q 357 146 363 185 l 364 125 q 364 111 365 119 l 364 99 l 360 67 q 357 78 358 74 q 353 89 356 83 q 354 72 354 78 q 354 60 354 65 q 351 44 354 53 q 342 45 347 44 q 331 46 338 46 q 317 47 324 47 q 299 47 310 47 q 310 40 321 44 q 307 39 308 39 q 303 38 306 39 l 297 38 l 296 36 l 292 36 q 267 33 278 33 q 242 30 256 31 q 213 29 228 29 l 174 29 q 150 31 163 31 q 126 31 138 31 q 127 52 126 42 q 128 74 128 63 l 128 101 q 127 104 128 103 q 126 107 126 106 q 118 139 126 131 q 120 243 122 196 q 118 349 118 290 q 117 408 119 382 q 112 459 115 435 q 107 508 108 483 q 110 565 106 533 q 106 591 107 578 q 103 619 104 604 q 120 655 111 640 q 139 675 129 669 q 138 671 138 672 q 141 663 140 671 q 141 642 142 654 q 140 619 140 631 q 140 601 140 608 q 138 597 139 604 q 138 585 138 590 q 139 567 138 572 q 141 558 140 563 q 142 546 142 553 q 142 524 143 539 q 144 512 143 518 q 147 521 146 506 l 150 506 l 150 561 l 149 561 q 150 572 150 565 l 150 675 l 164 678 q 188 689 175 683 q 217 700 201 694 q 239 708 228 704 q 263 715 250 711 q 275 718 267 715 l 281 719 q 285 720 283 719 q 288 721 286 721 q 302 724 294 724 q 317 726 310 725 l 347 731 q 345 699 346 715 q 344 668 344 683 q 346 653 346 663 l 346 603 q 351 613 349 608 q 358 624 354 618 l 361 624 l 378 653 q 392 669 385 661 q 406 685 399 678 q 420 697 413 692 q 435 706 428 703 q 447 708 440 708 l 465 717 q 474 719 468 717 q 503 726 489 725 q 518 726 510 726 q 535 725 526 726 q 567 717 549 724 q 574 714 568 717 l 582 710 l 589 706 l 593 703 l 594 703 l 596 701 l 603 696 l 607 693 q 610 690 607 693 l 613 688 l 617 685 l 618 683 l 618 682 l 617 678 m 150 469 q 147 445 144 463 q 147 403 150 428 q 148 382 147 392 q 150 363 149 372 l 150 469 z "},"s":{"ha":690,"x_min":40,"x_max":650,"o":"m 636 317 q 643 297 640 306 q 647 276 646 288 q 650 256 650 265 q 650 236 650 246 q 644 194 650 213 q 631 153 640 171 q 619 133 625 143 q 606 114 613 124 q 571 79 588 94 l 535 53 q 518 42 526 47 q 501 33 510 38 l 467 17 q 431 5 449 10 q 393 -3 413 0 q 351 -7 372 -7 l 324 -7 q 318 -6 321 -7 l 307 -6 q 267 -6 288 -7 q 222 0 246 -6 q 196 16 207 7 q 176 33 185 25 q 164 49 169 40 q 158 61 158 57 l 163 58 l 167 58 q 175 56 169 58 q 178 55 178 56 q 181 54 179 54 q 188 51 186 51 q 190 50 189 50 q 194 49 192 50 q 197 47 196 49 q 199 47 199 47 q 201 46 200 46 q 230 36 215 40 q 256 31 244 32 q 263 28 256 28 l 281 24 l 304 24 q 313 25 308 25 q 316 26 315 25 q 319 26 317 26 q 326 27 322 26 q 336 28 331 28 q 349 28 342 28 q 368 29 357 28 q 376 31 374 29 q 383 33 381 31 q 385 34 385 33 q 383 35 386 35 l 371 35 l 376 36 l 383 38 l 386 38 q 356 35 371 36 q 325 35 342 35 l 300 35 l 265 39 l 261 39 q 210 52 235 44 q 163 71 186 60 l 144 82 q 128 90 136 83 q 115 97 121 93 q 104 104 110 100 q 92 113 97 108 q 79 124 86 118 q 76 127 78 126 q 74 129 75 128 q 71 133 71 132 l 67 136 l 61 144 q 58 147 58 146 q 54 151 57 149 l 49 160 l 43 169 l 40 172 l 40 174 l 43 178 q 50 186 49 183 l 53 190 l 57 194 l 64 203 l 67 207 l 69 210 l 75 217 q 78 219 78 218 q 82 224 79 221 q 85 226 85 225 q 89 231 86 228 q 103 244 94 239 l 108 251 l 113 256 l 113 257 l 114 257 l 114 256 l 124 247 l 133 239 l 144 232 q 149 229 147 229 l 151 226 l 154 225 q 194 206 175 213 q 240 192 217 196 q 289 185 264 188 q 358 189 331 185 l 361 189 q 365 190 364 189 l 371 190 q 382 193 376 193 q 387 195 385 194 q 392 199 389 196 q 403 204 400 201 q 407 206 406 204 q 411 213 411 207 q 413 222 414 218 q 411 233 413 229 q 408 239 410 236 q 404 244 407 242 l 385 261 l 379 264 l 372 268 q 360 275 368 269 l 318 296 q 304 306 304 303 l 279 315 l 267 319 q 247 326 257 322 q 228 333 238 329 q 188 351 208 342 q 149 375 168 361 q 114 404 132 386 q 107 413 108 410 l 103 417 q 101 419 101 418 l 99 421 q 93 431 96 426 q 88 440 90 435 q 77 462 81 451 q 71 483 74 472 q 67 526 67 504 q 69 538 68 536 q 71 538 71 540 l 71 514 l 75 485 q 76 483 75 483 q 76 481 76 482 q 74 496 74 488 q 74 514 74 504 q 114 624 74 575 q 117 628 115 626 q 119 633 118 631 q 160 674 136 654 q 183 689 171 683 q 194 697 189 693 q 207 703 200 700 q 219 708 214 706 q 232 714 225 711 l 244 718 l 257 721 l 303 728 l 350 736 l 356 740 q 384 740 371 740 q 411 738 397 739 l 468 732 q 481 732 475 732 q 493 731 486 732 q 508 724 500 728 q 524 718 515 721 l 542 711 q 551 707 547 708 q 561 703 556 706 l 571 699 l 576 696 q 578 695 578 696 q 579 694 578 694 q 581 694 581 694 q 582 693 581 693 q 604 676 593 688 l 615 667 l 618 665 l 618 664 l 617 661 q 614 656 617 658 q 613 651 614 653 q 613 649 613 650 l 608 642 l 603 628 q 603 632 604 631 q 601 631 603 633 q 599 625 601 631 l 594 618 q 585 603 590 611 q 578 592 581 594 q 578 583 581 593 q 572 565 575 574 q 569 557 569 560 l 568 554 q 572 558 568 554 q 573 560 572 560 q 574 561 574 560 q 574 563 574 563 q 575 564 575 563 q 574 560 575 561 l 568 547 l 557 524 q 551 511 554 517 q 546 500 549 506 l 542 488 q 540 485 540 488 l 539 483 l 536 483 q 533 486 533 485 q 531 489 532 488 l 525 496 l 513 510 l 508 513 l 506 517 l 499 522 l 497 525 l 496 526 q 493 529 493 526 q 486 535 488 532 l 483 536 l 482 538 q 481 538 481 538 q 479 539 481 539 q 475 542 476 542 l 469 546 q 468 547 468 546 q 467 547 468 547 q 465 548 465 547 q 464 549 465 549 q 463 549 463 549 q 461 550 463 550 l 460 551 l 458 551 l 453 556 l 451 556 l 450 557 q 448 558 449 557 q 446 558 447 558 q 440 561 443 561 l 433 561 q 430 562 431 563 q 426 561 429 561 l 404 561 q 400 563 403 563 l 392 563 q 388 564 390 564 l 381 564 q 365 565 375 565 q 351 567 360 567 l 369 575 l 339 571 q 321 569 332 569 q 314 567 318 568 q 303 564 310 567 q 297 561 300 563 q 292 557 294 560 q 285 550 288 554 l 281 543 l 286 550 q 292 553 292 553 q 294 549 294 553 l 294 535 q 296 531 296 533 q 299 526 299 528 q 307 519 304 521 l 315 515 q 319 514 318 515 l 322 514 q 324 513 324 514 q 326 513 325 513 q 342 506 333 510 q 360 499 350 501 l 379 490 l 389 488 l 399 483 l 419 475 l 429 471 l 439 467 q 459 458 450 463 q 478 449 468 453 l 511 432 q 538 419 526 425 q 558 413 550 414 l 575 400 l 583 392 q 587 389 586 390 q 590 385 588 388 q 617 353 607 368 q 636 317 631 335 m 526 83 q 569 121 553 99 q 478 61 535 85 l 442 49 l 443 49 q 450 50 449 49 q 469 56 456 50 l 526 83 m 576 565 q 575 564 576 565 q 576 565 575 565 q 576 567 576 565 l 576 565 m 579 571 q 578 569 579 569 q 578 568 578 569 q 579 571 578 568 z "},"t":{"ha":561,"x_min":10,"x_max":551,"o":"m 550 29 l 549 28 l 546 28 q 539 26 543 26 l 513 19 l 499 17 q 485 14 490 14 q 478 13 483 13 l 475 11 l 471 11 q 463 10 468 10 l 447 6 l 414 1 q 396 0 404 0 q 378 0 388 0 q 359 -1 368 -1 q 339 1 350 0 q 335 3 338 3 q 329 4 331 3 l 324 4 q 318 6 322 6 q 308 8 313 7 q 296 13 303 10 l 288 13 l 278 15 q 269 17 274 15 q 258 19 264 18 q 249 22 253 22 l 244 25 q 241 26 242 25 q 239 26 240 26 l 228 31 q 226 32 228 32 l 224 33 l 218 36 q 186 82 196 58 l 182 93 q 181 95 182 94 q 181 97 181 96 l 181 101 q 181 115 179 110 l 183 111 q 194 104 186 113 q 213 86 201 96 l 219 82 q 222 79 219 79 l 225 76 l 232 72 l 238 68 q 244 65 243 65 l 250 61 q 256 58 250 61 q 258 58 257 58 q 260 57 258 57 q 263 53 254 58 q 278 46 271 49 q 280 45 279 46 q 282 44 281 44 q 285 43 285 44 q 292 42 289 43 l 296 42 q 299 41 299 42 q 301 40 300 40 l 321 40 q 325 39 322 39 l 331 39 q 336 38 333 39 q 343 38 339 38 q 350 36 344 36 q 352 35 351 36 q 356 35 353 35 l 360 35 q 367 35 363 35 q 375 36 372 35 q 367 40 379 39 l 375 40 l 382 42 q 345 44 363 42 q 311 49 328 46 l 313 49 l 299 53 q 267 64 285 57 q 265 65 265 64 q 264 65 265 65 l 265 65 q 189 122 221 83 l 176 138 l 165 151 q 139 199 149 172 q 128 229 132 214 q 121 260 124 244 q 117 293 118 276 q 115 325 115 310 q 117 347 117 332 q 117 358 117 353 q 118 369 118 363 q 119 392 118 381 q 119 415 119 404 q 119 464 119 439 q 118 514 118 489 q 117 530 117 524 q 117 543 117 536 q 115 555 115 550 q 115 565 115 560 l 78 565 q 64 567 68 565 q 61 569 64 567 q 40 568 53 568 q 10 568 26 568 l 10 647 q 10 656 10 651 q 11 663 11 660 l 11 669 q 12 672 11 671 q 13 675 13 672 q 15 682 13 679 l 15 711 q 40 713 22 713 l 54 713 q 60 713 57 713 q 67 714 64 714 l 119 714 l 119 804 q 118 827 118 815 q 118 850 118 839 q 117 861 117 856 q 117 872 117 867 q 116 878 117 875 q 115 883 115 881 l 115 894 q 117 907 117 906 q 118 906 117 908 q 119 896 118 900 l 119 883 q 122 863 121 872 q 122 850 122 853 l 122 926 l 186 943 l 231 958 q 251 965 244 964 l 257 968 q 260 969 258 968 q 263 969 261 969 l 275 974 l 322 988 q 322 951 324 969 q 322 942 322 947 q 321 929 321 936 q 320 923 321 926 q 319 917 319 919 l 319 904 q 319 881 319 893 q 321 861 319 869 l 325 856 l 321 806 l 321 760 q 322 756 321 757 l 322 753 l 325 736 q 322 718 322 725 l 358 718 q 375 719 364 719 q 408 722 390 721 q 446 722 426 722 q 446 720 442 721 q 457 719 450 719 q 467 718 460 718 l 476 718 q 484 717 481 717 q 489 715 488 717 q 503 719 489 717 q 516 720 510 719 q 528 721 522 721 q 528 717 528 718 q 531 724 528 717 q 528 724 529 724 q 525 725 528 725 l 532 725 l 522 675 l 519 653 l 517 636 q 515 619 517 625 q 514 611 515 614 l 514 607 q 513 601 514 604 q 509 578 511 590 q 504 554 507 567 q 489 555 497 554 q 474 557 481 556 l 456 553 l 450 551 l 447 551 l 440 549 q 407 549 422 547 q 378 553 392 551 l 396 560 l 360 560 q 358 560 358 560 q 354 561 357 561 q 342 563 349 563 q 321 565 335 564 l 321 544 q 325 556 322 556 q 329 550 326 557 l 333 536 q 335 526 333 529 l 335 519 q 335 515 335 517 q 336 511 336 514 q 341 444 342 483 q 338 365 340 406 q 338 329 338 346 q 342 297 339 313 q 349 274 343 286 q 351 269 349 272 q 352 268 351 268 q 353 267 353 268 q 356 263 354 264 q 358 261 357 263 q 374 232 364 244 q 385 224 381 225 l 400 219 l 439 219 l 444 221 l 451 221 l 471 225 l 511 239 q 513 236 513 238 q 514 233 514 236 q 515 229 514 231 q 515 225 515 228 q 518 210 518 217 l 525 176 l 531 149 l 535 126 q 535 122 535 124 q 536 117 536 119 l 536 111 q 538 106 538 110 l 543 75 q 544 67 544 72 q 546 60 546 64 l 549 44 l 551 29 l 550 29 m 518 54 q 517 57 517 56 q 515 63 517 61 q 515 68 515 65 q 514 74 514 71 l 510 93 l 506 104 l 515 54 q 472 47 493 50 q 429 43 451 44 q 457 43 438 39 q 464 44 461 43 l 469 44 q 483 47 478 47 l 517 53 l 518 53 l 518 54 z "},"u":{"ha":836,"x_min":99,"x_max":742,"o":"m 732 406 q 737 331 738 375 q 735 242 736 286 q 733 163 733 199 q 742 113 733 126 l 742 94 q 740 83 740 89 q 740 71 740 78 l 740 25 l 615 25 q 592 24 604 25 q 568 24 581 24 l 488 24 l 488 75 l 465 56 l 458 50 q 451 44 457 47 l 444 39 l 442 36 l 439 35 l 438 33 q 421 24 429 28 q 404 15 413 19 q 385 10 394 13 q 367 4 376 7 q 325 0 346 0 l 303 0 q 292 1 297 0 q 279 3 286 1 q 235 10 260 3 q 186 31 208 17 q 183 35 183 33 q 179 38 182 36 q 178 39 179 39 q 178 40 178 39 q 176 42 178 40 l 174 46 l 168 53 l 164 60 q 163 63 164 61 q 161 67 161 64 l 157 74 q 156 76 157 74 q 154 79 156 79 q 153 83 154 82 q 153 86 153 83 q 150 97 150 94 q 149 103 149 99 l 149 107 q 150 121 147 114 q 151 119 150 119 q 151 117 151 118 q 162 107 154 117 q 182 85 169 97 q 194 72 188 78 q 207 61 200 67 l 229 47 l 231 46 q 236 43 233 43 l 238 43 q 240 42 239 42 l 244 39 q 247 38 246 39 q 250 38 249 38 q 252 37 251 38 q 254 36 253 36 q 256 35 256 36 q 258 35 257 35 l 263 35 q 269 33 265 33 q 272 32 271 33 l 289 32 q 296 33 292 33 l 304 33 q 314 35 310 33 q 328 35 321 35 q 347 36 336 35 q 356 39 350 36 q 364 42 358 39 q 364 43 365 43 l 360 43 q 350 42 354 43 q 369 47 356 44 q 340 43 356 44 q 310 42 325 42 l 292 42 q 285 42 289 42 q 278 43 281 43 q 258 49 267 46 q 239 54 249 51 q 236 56 239 56 l 238 56 q 160 128 188 76 q 149 147 153 138 q 144 154 146 150 q 139 164 142 158 q 126 190 132 175 q 115 221 121 204 q 107 253 110 236 q 101 290 104 271 q 99 326 99 308 q 100 363 99 344 l 103 413 q 103 438 103 425 q 104 465 104 451 q 103 519 104 492 q 103 575 103 547 l 100 632 l 100 681 l 138 686 l 142 683 l 175 692 q 197 697 186 694 q 219 701 208 699 l 242 706 l 265 710 l 303 715 q 301 706 301 710 q 300 700 301 703 q 299 696 300 697 l 299 668 q 300 656 300 664 q 301 633 300 644 q 301 611 301 622 q 301 566 301 589 q 303 519 301 543 l 303 426 q 303 403 303 414 q 304 381 304 392 l 308 338 q 308 324 308 326 q 307 325 308 322 l 303 349 q 301 365 301 357 q 300 378 300 372 q 299 385 300 383 l 299 378 q 338 235 299 267 q 343 231 340 232 q 349 228 346 229 l 361 224 l 368 224 q 372 223 371 224 q 376 224 374 222 q 390 225 385 224 q 404 228 393 225 q 417 233 411 231 q 429 239 422 236 q 441 246 436 242 q 451 254 446 250 q 472 272 463 263 q 490 290 481 281 l 497 296 q 506 303 503 301 q 513 311 507 306 q 514 314 514 313 l 514 350 q 513 362 514 357 q 513 372 513 367 l 508 378 q 512 435 510 407 q 511 494 514 463 l 508 519 q 512 551 511 533 q 511 588 513 568 q 510 608 511 597 q 508 629 510 618 l 508 654 q 508 669 508 661 q 507 683 507 676 l 526 688 q 525 685 519 685 q 542 689 531 686 q 547 690 544 689 q 551 690 549 690 q 556 691 554 690 q 561 692 558 692 q 569 693 565 693 q 575 693 572 693 q 579 697 572 694 q 594 703 586 700 q 608 709 603 707 q 604 710 613 711 l 624 715 l 639 719 q 656 725 650 722 l 692 735 l 728 747 q 728 722 728 735 q 729 697 729 710 q 728 683 728 690 q 728 669 728 676 l 728 663 q 726 657 728 658 l 726 646 l 733 615 q 733 578 735 596 q 729 546 731 561 l 722 567 q 723 532 724 543 q 721 512 722 521 q 718 490 719 503 q 717 451 717 478 q 720 467 718 465 q 724 462 722 469 q 728 440 726 454 q 732 406 731 425 m 447 85 q 465 100 456 92 q 488 119 475 108 l 488 121 q 419 69 453 89 q 447 85 429 69 m 517 147 q 517 145 517 146 q 518 143 518 144 l 518 149 l 517 147 l 517 150 q 510 143 514 146 l 513 142 l 517 147 m 590 708 q 597 709 593 708 q 604 710 601 710 q 598 709 601 710 q 590 708 594 708 z "},"v":{"ha":797,"x_min":10,"x_max":789,"o":"m 735 706 q 760 699 747 703 q 789 692 774 694 l 771 651 q 766 641 768 646 q 761 631 764 636 l 756 621 l 754 615 l 753 613 l 751 611 l 728 561 q 709 517 717 536 q 704 488 701 499 q 674 426 688 456 q 649 368 661 397 q 624 308 636 339 q 596 244 611 278 q 571 186 581 213 q 553 136 561 160 l 536 88 l 532 75 l 529 69 q 528 67 529 68 q 528 65 528 67 q 527 63 528 64 q 526 60 526 63 l 506 13 l 444 13 q 438 14 440 13 l 424 14 q 392 10 408 11 q 356 7 375 8 q 310 25 329 17 q 286 43 292 33 q 290 42 289 43 q 302 45 292 44 q 326 46 313 46 q 355 46 340 46 q 378 46 369 46 q 383 43 375 43 q 399 42 392 43 q 421 43 414 42 q 433 46 428 44 q 440 47 438 46 l 449 47 q 463 47 456 47 q 482 46 471 47 q 483 47 482 47 q 486 56 485 50 q 488 64 488 61 q 481 56 488 71 l 486 75 l 478 54 l 286 54 l 278 72 q 233 149 258 100 q 192 247 208 197 q 158 331 178 288 q 118 419 139 374 q 90 478 99 456 q 71 524 81 500 l 72 528 q 54 565 65 542 q 32 613 43 589 q 26 625 29 617 l 21 638 l 14 657 q 11 668 11 665 q 13 669 11 668 l 10 675 l 28 679 l 54 688 l 65 690 l 76 694 q 89 697 83 696 q 101 701 94 699 l 150 714 l 176 721 q 190 725 183 724 q 204 728 197 726 q 215 700 208 715 q 221 685 217 692 l 225 672 l 247 621 q 249 610 251 607 q 242 622 247 613 q 233 644 238 632 q 225 658 228 656 l 274 526 q 309 452 292 490 q 338 379 326 414 q 342 361 338 371 q 343 356 342 358 q 344 353 343 354 q 344 351 344 353 l 347 342 l 361 307 q 365 310 363 307 l 372 282 q 377 267 375 275 q 382 253 379 260 l 388 268 q 390 277 389 272 q 393 289 392 282 l 399 311 q 408 328 404 314 q 413 342 411 335 q 418 357 415 350 q 431 397 425 376 q 444 438 436 417 q 445 435 443 432 q 451 446 447 439 q 458 460 454 453 q 464 472 461 468 q 463 480 461 471 q 467 496 465 489 q 469 504 469 503 q 460 490 468 506 q 477 535 471 515 q 489 575 483 556 q 501 613 494 594 q 519 654 508 632 l 522 682 q 523 685 522 685 q 524 689 524 686 q 525 693 525 690 l 528 697 q 531 707 529 703 q 535 717 532 711 l 549 747 l 561 743 l 551 743 q 551 735 551 739 q 550 726 550 731 l 554 739 q 583 731 572 735 q 593 728 589 729 q 603 724 597 726 l 604 724 l 606 722 l 607 722 q 609 722 608 722 q 611 721 610 721 l 621 717 l 651 707 q 644 717 628 717 q 694 711 660 718 l 706 711 l 707 710 l 710 710 l 735 706 m 542 194 q 553 219 549 207 q 561 242 557 231 l 506 118 q 520 145 514 124 q 542 194 526 167 z "},"w":{"ha":1192,"x_min":8,"x_max":1183,"o":"m 1167 694 l 1183 690 q 1169 654 1176 671 q 1154 622 1161 638 q 1153 620 1154 621 q 1153 618 1153 619 l 1151 617 l 1151 615 l 1149 610 l 1144 600 q 1140 591 1142 596 q 1135 582 1138 586 l 1140 613 q 1122 566 1128 581 q 1109 539 1115 551 q 1094 509 1103 526 q 1071 453 1086 492 q 1084 477 1081 474 q 1085 471 1088 481 q 1077 440 1083 461 q 1061 390 1071 418 q 1033 312 1051 357 q 996 218 1015 267 l 956 126 q 947 105 951 115 q 938 83 942 94 q 933 71 935 76 q 928 58 931 65 l 918 31 l 890 31 q 876 29 885 29 l 871 29 q 867 28 868 29 l 843 24 q 808 24 825 24 q 775 25 792 24 l 689 25 q 681 53 685 40 q 671 81 676 67 q 665 99 668 90 q 660 117 663 107 l 635 188 l 593 310 q 588 326 590 321 l 583 339 l 579 321 q 576 306 576 310 q 575 294 575 301 l 575 292 l 574 290 l 571 279 l 565 258 q 540 174 554 218 q 506 78 526 131 q 504 74 506 75 q 503 69 504 71 q 503 65 503 68 q 497 49 500 54 q 492 31 494 39 q 488 11 490 22 q 471 11 479 11 q 453 10 463 11 l 419 10 l 379 7 q 306 25 336 17 q 264 43 275 33 q 272 42 268 43 q 291 45 274 44 q 332 46 308 46 q 380 46 356 46 q 419 46 404 46 q 418 44 418 44 q 422 43 419 43 l 428 43 q 445 42 435 43 q 463 42 456 42 l 465 42 l 472 67 q 475 76 475 75 q 476 78 475 78 q 476 81 476 79 l 476 83 l 478 85 l 482 106 q 489 129 485 115 q 504 175 493 143 q 507 187 506 179 q 509 199 508 194 q 508 200 510 203 q 500 182 506 197 l 508 213 l 471 100 l 472 101 l 464 79 l 456 54 l 264 54 l 251 85 q 222 144 239 110 q 188 217 206 178 q 153 299 171 257 q 122 383 136 342 q 99 452 111 417 q 71 524 86 488 l 42 597 l 8 678 l 10 678 l 43 688 l 72 696 l 119 710 l 160 719 l 182 725 q 206 731 196 728 l 208 728 l 232 658 l 258 575 q 277 512 269 539 q 283 479 285 485 l 296 439 l 301 422 q 306 408 304 415 q 311 393 308 400 l 322 363 l 340 304 q 351 274 346 289 q 360 243 356 258 l 401 368 l 411 400 l 422 432 l 440 494 q 449 511 450 517 q 443 488 449 506 q 432 451 438 471 q 425 424 426 431 l 500 647 l 501 647 l 583 651 q 604 652 594 651 q 625 653 614 653 l 636 653 q 647 654 643 653 l 671 654 l 682 625 l 690 600 l 707 553 q 715 523 710 540 q 726 487 719 506 q 738 450 732 468 q 750 418 744 432 l 757 413 l 763 392 q 766 381 765 386 q 768 372 767 376 q 773 356 771 364 q 778 338 775 347 l 790 301 l 803 269 l 806 263 l 811 286 q 817 297 814 289 q 825 315 821 304 q 832 339 828 326 q 839 365 836 351 l 847 394 l 857 428 q 867 463 861 446 q 878 499 872 481 q 879 496 876 490 q 886 514 882 501 q 896 540 890 526 q 904 558 901 553 q 904 570 901 556 q 910 598 907 585 q 913 613 914 611 q 903 588 913 614 q 916 627 910 608 q 926 664 922 646 q 932 681 929 672 q 938 700 935 689 l 950 743 q 972 738 961 740 q 993 733 982 736 l 1014 729 l 1031 725 q 1103 704 1061 718 l 1104 703 l 1108 703 l 1133 699 l 1167 694 m 596 397 l 604 376 l 583 439 l 532 286 q 539 299 538 292 l 542 306 q 542 308 542 307 q 543 311 543 310 l 549 328 q 561 368 553 347 q 576 414 568 392 l 583 433 l 596 397 z "},"x":{"ha":768,"x_min":8,"x_max":758,"o":"m 725 78 l 758 31 q 720 31 739 31 q 683 32 701 32 l 619 32 q 585 29 600 31 q 563 24 569 28 l 526 24 q 518 25 524 25 l 478 25 l 453 63 l 438 85 l 406 132 l 374 179 l 361 196 q 360 199 361 197 q 357 194 358 196 q 354 189 356 192 q 351 184 351 186 q 349 179 350 182 l 347 179 l 347 178 q 347 176 347 176 q 346 175 346 176 l 342 168 q 335 156 336 160 l 319 131 l 293 81 l 278 57 q 277 55 278 56 q 276 53 276 54 l 272 49 q 265 36 271 44 l 249 13 l 197 13 q 181 13 189 13 q 164 14 172 14 q 128 10 147 11 q 88 7 108 8 q 36 25 57 17 q 8 43 15 33 q 14 42 11 43 q 27 45 15 44 q 54 46 39 46 q 86 46 69 46 q 113 46 103 46 q 119 43 110 43 q 136 42 129 43 q 162 43 154 42 q 176 46 169 44 q 183 47 179 46 q 193 47 188 47 l 208 47 q 218 47 213 47 q 231 46 224 47 l 239 64 q 229 56 242 72 l 240 75 l 226 54 l 13 54 l 8 54 l 21 72 q 72 158 39 106 q 144 256 104 211 q 193 317 169 285 q 205 332 200 324 q 217 349 210 340 l 229 365 q 240 382 232 371 l 211 418 q 164 476 181 454 q 131 521 147 497 l 131 525 l 64 610 l 56 622 q 51 628 53 625 q 47 633 49 631 q 40 644 43 639 q 33 653 36 649 q 28 664 28 664 l 28 667 l 21 675 l 39 679 l 68 688 l 81 690 l 93 694 q 106 697 100 696 q 119 701 113 699 l 172 714 l 228 728 l 238 713 q 243 704 240 708 q 249 697 246 700 q 258 683 253 690 q 268 668 263 675 q 287 640 278 653 q 307 614 296 626 q 311 601 314 599 q 301 614 308 604 q 285 635 293 624 q 274 650 276 647 l 360 515 l 360 514 l 383 557 l 393 575 l 396 581 l 399 585 q 404 594 400 590 q 426 634 415 615 q 449 669 438 653 q 458 681 453 675 q 468 696 463 688 q 471 699 468 696 l 474 703 l 479 713 q 490 731 488 724 q 506 726 499 728 q 519 725 513 725 q 523 726 522 725 q 526 726 524 726 q 531 725 529 726 l 533 725 q 538 724 536 724 q 540 722 539 724 l 554 718 l 581 710 q 594 706 588 707 q 608 703 601 704 l 624 699 l 626 699 q 631 697 629 699 q 640 696 638 697 l 671 692 q 710 678 685 685 l 690 653 l 669 622 q 658 606 667 617 l 649 592 q 638 578 643 585 q 626 564 633 571 q 626 565 629 568 q 617 555 622 561 q 605 542 611 549 q 594 532 599 535 q 593 524 597 532 q 584 509 589 517 q 578 499 579 501 q 589 508 578 497 q 560 472 572 489 q 538 438 549 454 l 515 404 q 510 397 513 403 l 506 392 l 496 381 q 499 375 499 378 q 503 369 500 372 l 507 365 q 513 363 507 365 l 524 353 q 545 322 536 336 q 561 293 554 307 l 543 306 q 564 278 558 288 q 574 261 569 269 q 585 241 578 253 q 608 207 592 229 q 606 224 593 235 q 644 182 619 214 l 665 160 l 676 146 l 678 144 q 679 143 678 144 l 683 138 l 692 125 l 725 78 m 343 226 q 349 237 346 232 q 354 247 351 242 l 269 118 q 288 143 276 124 q 295 155 292 149 q 303 168 299 161 l 313 182 l 318 189 l 321 193 q 324 197 324 196 q 334 212 329 204 q 343 226 339 219 z "},"y":{"ha":804,"x_min":8,"x_max":794,"o":"m 718 721 q 727 721 722 721 q 738 719 732 721 q 794 715 761 719 q 794 713 794 714 q 793 708 793 711 l 776 654 q 771 639 772 647 l 767 626 l 758 603 q 740 556 749 579 q 719 508 731 532 q 686 422 700 461 q 675 365 672 383 q 642 282 657 321 q 613 203 626 243 q 584 124 599 164 q 553 38 569 83 l 533 -11 l 529 -22 l 525 -35 l 521 -46 l 517 -57 l 508 -78 q 503 -88 506 -83 q 499 -99 501 -93 q 490 -119 494 -110 q 479 -139 485 -128 l 454 -176 q 421 -212 438 -197 q 401 -229 411 -221 q 378 -244 390 -237 q 372 -247 375 -247 l 365 -251 q 363 -253 364 -251 q 360 -253 361 -253 q 358 -254 360 -254 q 356 -256 357 -256 q 351 -257 354 -256 q 322 -267 342 -262 q 299 -274 311 -271 q 274 -281 288 -278 q 266 -281 269 -281 q 260 -282 263 -282 q 253 -283 257 -282 q 246 -283 249 -283 l 217 -283 q 182 -268 197 -276 q 156 -253 167 -261 q 129 -224 133 -235 l 135 -228 q 151 -229 138 -225 q 183 -237 164 -233 q 221 -246 201 -244 q 251 -246 240 -249 q 260 -249 249 -249 l 276 -249 q 278 -248 278 -249 q 281 -247 279 -247 q 299 -244 292 -246 q 311 -240 306 -242 q 315 -237 314 -237 q 319 -236 317 -237 l 326 -232 q 328 -231 328 -232 q 331 -229 329 -231 q 333 -228 332 -229 q 335 -228 333 -228 q 340 -225 338 -226 q 344 -222 342 -224 q 360 -215 351 -219 q 379 -203 368 -210 q 382 -200 382 -200 l 390 -192 q 392 -189 390 -190 q 392 -186 393 -186 q 390 -187 390 -187 q 388 -190 389 -187 q 381 -194 381 -193 l 393 -181 q 318 -226 357 -212 l 319 -226 l 303 -231 q 280 -235 292 -233 q 257 -237 268 -236 l 247 -237 q 133 -214 196 -237 l 110 -204 l 89 -196 q 58 -183 76 -192 l 21 -164 q 11 -158 17 -161 l 8 -156 l 10 -154 q 13 -149 10 -154 l 24 -129 l 36 -108 l 47 -90 l 58 -74 l 64 -64 l 71 -54 q 78 -44 75 -49 q 85 -33 82 -39 l 92 -24 q 94 -19 94 -21 l 96 -18 l 97 -18 l 99 -19 q 101 -22 101 -22 l 115 -33 l 129 -43 l 136 -47 q 138 -48 138 -47 q 139 -49 138 -49 q 143 -50 140 -50 l 156 -57 q 169 -62 163 -60 q 182 -67 175 -64 q 211 -71 196 -71 q 239 -61 228 -68 q 251 -52 246 -57 q 263 -42 257 -47 q 272 -29 267 -37 q 277 -23 275 -26 q 282 -15 279 -19 q 290 -1 286 -8 q 297 13 293 6 q 300 18 297 15 q 301 21 300 19 q 301 24 301 22 l 306 33 q 307 36 306 35 q 306 39 306 36 l 303 43 l 294 60 l 290 69 q 283 86 285 81 l 257 146 l 258 150 q 237 197 250 167 q 210 256 224 226 q 188 308 197 285 q 179 338 178 332 l 167 367 q 135 431 151 397 q 104 500 119 464 q 85 544 94 522 q 65 588 76 565 l 56 608 l 46 631 l 22 678 l 72 693 q 81 694 75 694 l 82 694 q 83 696 82 696 l 89 696 q 86 693 89 696 q 82 692 83 693 q 78 690 79 692 l 29 675 l 33 667 l 31 675 l 201 719 q 212 722 207 721 q 224 726 217 724 l 232 704 l 243 681 l 261 636 l 293 550 q 308 498 297 531 q 328 444 319 465 l 335 440 l 353 376 q 358 361 354 368 q 359 358 358 358 q 360 354 360 357 l 363 347 q 368 333 365 340 q 374 319 371 326 q 383 303 378 314 q 390 277 386 290 q 397 253 393 264 l 406 282 l 415 313 l 424 342 q 429 356 426 350 q 432 364 429 358 q 433 371 432 368 q 435 372 433 367 q 442 387 438 378 q 451 406 446 396 q 458 419 456 415 q 458 429 456 418 q 463 451 461 440 q 465 463 465 461 q 456 443 465 464 q 478 501 469 475 q 493 553 486 528 q 508 603 500 578 q 531 658 517 629 l 535 694 l 536 696 l 536 697 q 538 700 536 699 l 540 708 q 542 715 542 711 q 546 722 543 719 q 556 749 550 739 l 588 743 q 601 740 596 740 q 611 738 607 738 l 607 736 l 599 736 q 583 735 593 735 q 599 733 589 733 q 605 732 601 732 q 611 731 608 732 q 621 730 617 731 q 628 729 625 729 q 640 726 635 728 q 651 724 646 725 q 663 721 657 722 q 676 718 668 719 l 696 714 q 708 713 704 714 l 713 713 q 710 714 711 713 l 708 714 q 707 715 708 714 l 706 715 q 704 716 704 715 q 703 717 704 717 q 707 721 699 718 l 718 721 m 515 29 l 500 -10 q 438 -132 474 -81 l 439 -131 q 442 -128 442 -129 q 446 -124 443 -126 l 451 -115 l 458 -103 q 474 -73 465 -90 q 493 -36 482 -56 q 500 -19 494 -31 q 503 -11 500 -17 q 506 -3 503 -8 l 515 29 z "},"z":{"ha":699,"x_min":39,"x_max":660,"o":"m 658 124 q 659 74 658 99 q 660 24 660 49 l 578 24 q 552 22 565 22 q 524 22 539 22 q 442 22 478 24 q 372 17 406 19 q 304 12 339 14 q 225 14 269 10 q 190 10 210 11 q 151 7 171 8 q 103 25 124 17 q 76 43 83 33 q 81 42 79 43 q 93 45 82 44 q 119 46 104 46 q 151 46 135 46 q 176 46 167 46 q 183 43 174 43 q 199 42 192 43 q 223 43 215 42 q 237 46 231 44 q 253 47 243 47 q 285 46 263 47 q 292 47 288 46 q 300 49 297 49 q 301 51 303 50 q 288 53 299 53 l 308 54 l 76 54 l 72 75 l 61 110 l 50 149 l 47 160 q 44 169 47 164 l 39 197 l 57 218 q 64 226 63 224 l 72 235 q 104 267 88 251 q 172 335 138 297 q 240 414 206 374 l 286 469 l 304 489 q 309 494 307 492 q 314 499 311 496 l 322 507 q 326 508 325 507 l 349 535 l 376 567 q 349 567 361 567 q 326 568 336 567 q 317 569 321 568 q 311 569 314 569 q 308 572 308 572 l 282 572 q 272 572 276 572 q 263 571 268 571 q 239 570 251 571 q 215 569 226 569 l 110 569 q 110 608 110 589 q 108 643 110 626 l 108 661 q 108 670 108 665 q 107 679 108 675 q 107 699 107 689 q 106 718 107 708 q 110 719 108 718 q 114 719 111 719 q 128 717 125 718 q 129 717 132 717 q 122 715 126 715 q 110 714 117 715 l 113 681 l 113 711 l 226 711 q 315 717 271 714 q 400 719 360 721 q 444 716 415 717 q 492 718 472 715 l 497 721 q 524 720 511 721 q 550 718 536 719 q 563 717 558 718 l 578 717 q 593 717 585 717 q 610 718 601 718 q 611 715 611 718 l 619 689 q 619 675 618 683 l 619 663 l 624 636 l 631 606 q 631 603 631 604 q 632 599 632 601 q 633 597 632 597 q 633 594 633 596 q 635 590 633 592 l 635 585 q 636 579 636 583 l 640 569 l 642 569 l 639 567 l 635 561 l 625 550 l 621 544 l 617 540 l 608 531 q 608 532 611 535 q 598 524 604 529 q 585 513 592 519 q 575 504 579 507 q 573 497 578 504 q 563 482 568 489 q 556 472 557 475 q 565 479 554 469 q 533 442 546 460 q 507 409 519 425 q 481 376 494 393 q 447 343 467 360 l 433 317 q 408 291 421 301 q 385 269 396 281 l 393 289 q 372 264 381 272 l 371 264 l 371 263 q 369 261 369 263 q 367 258 367 258 l 361 254 l 346 242 l 322 217 q 343 229 340 233 l 343 224 l 338 214 q 349 215 344 214 q 389 219 374 219 l 400 219 q 410 219 406 219 q 421 218 415 218 q 442 218 432 218 q 463 217 451 218 q 503 216 483 217 q 539 217 524 215 q 554 217 547 217 q 568 219 561 218 q 573 220 571 219 q 578 221 575 221 q 581 222 579 222 l 582 222 l 583 224 q 589 225 588 224 q 625 224 608 224 q 658 224 642 224 l 658 124 m 450 53 q 479 52 465 51 q 506 54 493 53 l 426 54 q 438 53 432 54 q 450 53 443 53 m 358 54 q 381 51 365 50 q 421 54 397 53 l 358 54 z "},"A":{"ha":857,"x_min":8,"x_max":847,"o":"m 176 10 q 163 11 171 11 q 126 7 146 8 q 86 4 107 6 q 36 22 57 13 q 8 40 15 31 q 11 40 11 40 q 14 39 11 39 q 26 42 14 42 q 53 42 38 43 q 84 42 68 42 q 111 42 100 42 q 118 40 108 40 q 135 39 128 39 q 158 40 150 39 q 172 43 165 42 l 179 43 q 184 44 182 43 q 189 44 186 44 l 219 44 q 222 54 219 46 q 225 74 225 65 q 224 75 225 76 q 218 63 222 74 l 222 85 l 214 51 l 13 51 l 11 50 q 13 51 11 50 l 8 51 l 15 72 q 25 115 19 90 q 39 168 31 140 q 57 225 47 196 q 78 281 67 254 q 115 374 97 324 q 149 476 132 424 q 160 515 154 499 q 170 546 165 532 q 179 572 175 560 q 189 599 183 585 l 193 601 q 206 643 197 617 q 223 695 214 669 q 240 740 232 721 q 251 763 247 760 l 261 789 q 269 817 264 803 q 278 846 274 831 l 293 890 q 300 913 296 901 q 308 936 304 925 q 331 942 319 939 q 353 947 342 944 q 374 953 364 950 q 396 958 385 956 l 436 971 q 457 976 450 974 q 467 980 463 979 q 476 983 472 981 q 490 985 488 985 q 489 982 492 985 q 479 979 488 982 q 476 978 478 978 q 472 976 475 978 q 469 976 471 976 q 465 975 468 975 q 447 969 456 972 q 435 964 439 967 l 515 985 l 538 917 l 542 906 l 564 853 q 584 799 575 825 q 600 749 593 774 q 612 704 603 732 q 628 658 621 676 l 633 654 q 647 600 640 626 q 665 544 653 574 l 676 522 q 695 453 678 493 q 726 364 713 413 q 726 363 725 368 q 728 350 726 358 q 733 333 731 342 q 735 319 735 324 q 740 312 736 321 q 748 295 744 303 q 753 287 751 288 q 750 306 754 286 q 765 254 757 276 q 782 211 774 232 q 798 169 790 190 q 811 121 806 147 l 814 118 l 815 113 l 821 104 l 832 82 l 840 54 q 844 42 843 47 q 847 29 846 36 l 800 33 q 821 40 810 35 q 797 39 807 39 q 779 39 786 39 q 765 40 771 39 q 754 42 760 40 l 744 42 q 732 43 740 43 q 715 44 725 44 q 694 44 706 44 q 705 37 721 42 q 650 31 689 32 l 649 31 l 647 29 l 638 29 q 631 28 635 29 q 624 28 628 28 q 609 27 617 28 q 593 26 601 26 l 579 78 l 576 86 l 574 96 l 569 114 l 551 186 q 543 220 547 204 q 535 249 539 236 l 525 271 q 522 275 525 272 l 522 276 q 521 278 522 276 l 518 278 q 517 288 517 282 q 510 288 514 288 q 504 289 507 289 l 414 289 q 383 288 399 288 q 353 288 368 288 q 338 288 346 288 q 322 286 329 288 l 311 286 q 310 281 310 285 q 308 278 308 279 q 307 276 308 276 l 307 272 q 303 263 304 268 q 301 254 303 258 l 293 221 q 286 190 289 206 q 281 160 283 175 l 269 101 q 267 86 267 93 q 265 83 265 85 q 264 79 265 82 l 264 75 l 261 69 l 246 8 q 223 10 235 10 q 199 10 211 10 l 176 10 m 464 588 l 456 601 l 451 608 q 450 610 451 608 q 449 613 450 613 l 446 622 q 447 634 449 628 q 443 643 446 640 l 439 639 l 439 654 q 435 664 439 664 l 432 664 q 432 678 433 672 q 431 681 432 681 q 431 683 431 682 q 426 686 429 683 q 424 693 426 686 q 424 703 426 696 l 424 717 q 421 708 422 710 q 419 706 421 708 l 419 701 q 419 703 419 703 q 418 704 418 703 q 417 706 418 706 q 417 704 417 706 l 414 701 l 414 703 q 413 706 414 703 l 413 707 q 411 710 413 707 l 411 681 q 410 677 411 678 q 410 679 410 676 q 408 685 408 681 q 408 694 408 689 q 407 704 407 699 q 406 703 407 703 q 404 704 406 703 q 403 707 404 707 q 401 706 401 707 q 401 703 401 704 q 400 701 400 703 q 404 685 401 701 l 404 660 q 403 642 404 644 q 399 636 403 640 q 395 628 396 633 q 401 613 394 622 q 397 608 399 613 q 396 603 397 604 q 393 586 396 597 l 389 568 q 385 548 385 557 q 385 531 385 539 q 385 513 386 522 q 378 494 383 504 q 379 481 379 490 l 386 478 q 410 474 397 474 q 436 475 422 474 q 450 478 447 478 q 456 477 453 478 q 463 476 460 476 l 465 474 q 471 474 468 474 q 476 475 474 475 q 483 476 479 475 q 490 475 488 476 q 492 481 490 481 q 494 481 492 483 l 492 488 q 489 494 490 490 q 486 501 488 497 q 481 521 483 507 q 479 525 479 522 l 476 531 q 474 540 476 535 q 464 560 468 554 q 469 560 465 568 q 475 551 472 553 l 464 588 m 329 471 l 335 471 q 337 472 336 471 q 339 472 338 472 q 342 483 339 476 q 344 492 344 489 q 349 496 344 492 q 348 506 351 504 q 350 518 344 508 q 349 522 350 519 q 344 519 347 525 l 344 525 l 339 507 l 340 507 l 338 504 l 336 496 l 336 494 l 329 471 m 236 135 q 247 167 243 143 q 264 225 251 192 q 269 251 267 239 q 275 274 272 263 q 276 282 276 276 l 236 135 m 347 538 q 351 545 353 539 q 356 558 350 551 q 357 572 357 563 l 347 538 z "},"B":{"ha":1028,"x_min":111,"x_max":981,"o":"m 281 -4 q 200 -4 244 -7 q 150 18 171 7 q 124 40 129 29 q 126 40 125 40 q 128 39 126 39 q 142 41 131 42 q 171 38 154 40 l 231 31 q 238 28 228 29 q 254 25 247 26 l 281 25 q 288 26 285 25 q 294 26 292 26 q 312 28 301 28 q 346 25 322 28 q 355 26 350 25 q 363 27 360 26 q 363 28 365 28 q 351 31 361 29 q 372 32 365 31 q 290 36 332 32 l 292 35 q 275 36 286 36 q 256 38 265 38 q 238 39 247 39 q 235 40 236 39 q 233 40 235 40 q 179 46 206 43 q 125 51 153 49 l 125 74 q 115 176 119 113 q 117 300 111 239 q 121 403 121 349 q 119 517 121 458 q 117 592 117 564 q 118 650 117 619 l 121 653 q 120 698 121 669 q 119 755 119 726 q 121 806 119 783 q 125 832 122 828 l 125 861 q 124 882 124 868 q 122 908 122 894 q 122 936 122 921 q 135 939 129 938 q 149 943 142 940 l 175 949 l 226 963 l 253 968 q 265 972 260 971 q 278 975 271 974 l 335 990 q 335 961 335 975 q 338 932 336 947 q 337 926 338 929 q 336 921 336 924 q 374 947 354 936 q 415 965 393 957 l 426 971 q 454 981 440 976 q 483 989 468 986 q 597 1001 542 1004 l 646 996 l 696 988 l 703 990 l 732 981 l 758 967 l 813 938 l 835 924 q 844 910 839 917 q 857 894 850 903 q 882 861 869 879 q 894 840 889 850 q 904 817 900 829 q 917 765 914 794 q 914 767 915 769 l 914 733 q 913 729 914 731 q 913 725 913 728 l 913 721 q 911 718 913 721 q 914 710 914 721 q 915 700 915 706 q 914 690 914 694 q 914 679 914 679 l 914 681 q 915 683 914 681 q 918 694 915 683 q 905 645 913 667 q 888 606 897 624 q 876 587 882 596 q 861 569 869 578 l 850 558 q 847 557 850 558 l 836 549 q 819 542 831 547 q 815 536 815 538 q 813 535 815 536 l 815 535 q 817 533 815 533 l 818 533 q 820 533 819 533 q 822 532 821 532 q 825 531 822 532 l 836 525 l 825 525 l 813 526 l 829 521 q 835 519 832 519 l 838 517 l 843 514 l 849 510 q 850 509 850 510 q 851 508 850 508 l 851 507 l 853 507 q 854 506 853 507 l 861 499 q 867 496 864 499 l 872 492 q 883 481 876 486 q 897 468 890 475 q 897 469 897 469 q 896 471 896 469 l 892 475 q 889 481 889 481 q 894 482 888 485 q 903 476 899 478 l 914 467 q 940 438 925 458 q 961 406 950 426 q 969 384 965 394 q 976 361 974 374 q 981 313 981 338 l 981 293 l 979 288 q 978 274 979 281 q 975 261 976 268 q 968 238 972 250 q 958 215 964 226 q 949 196 954 204 q 938 179 943 188 q 918 152 926 164 q 907 132 910 140 q 872 106 889 117 q 836 83 854 94 q 801 66 818 74 q 764 51 783 58 q 690 27 728 38 q 607 10 651 17 q 560 5 582 7 q 518 0 538 3 q 480 -4 499 -3 q 442 -7 461 -6 q 367 -11 406 -11 q 326 -8 347 -10 q 281 -4 304 -7 m 586 204 q 622 213 606 208 q 653 224 638 217 q 665 229 657 226 l 669 233 q 672 235 669 233 q 675 238 675 238 q 689 250 682 243 q 703 264 696 257 q 714 281 710 271 q 722 299 721 289 q 728 318 725 304 q 728 328 728 324 q 729 338 729 332 q 722 365 729 351 q 701 390 714 379 q 672 408 686 403 q 657 416 665 413 q 640 422 649 419 l 638 422 q 633 424 636 424 q 630 424 631 424 q 626 425 629 425 l 615 428 q 610 428 613 428 q 604 429 607 429 l 594 432 q 586 433 589 432 l 582 433 q 578 435 581 435 q 568 436 575 436 l 560 439 l 558 442 l 550 442 q 540 443 544 442 l 517 443 q 490 444 503 444 q 465 444 476 444 l 464 444 l 465 446 l 465 450 q 467 456 467 453 l 471 465 q 472 469 472 468 q 474 472 472 471 l 478 489 l 478 500 l 482 531 q 485 546 485 539 q 488 563 488 557 q 490 579 490 574 q 492 588 492 582 l 493 592 l 493 594 l 494 596 q 550 600 525 596 l 575 604 l 599 613 q 607 613 608 614 q 601 610 604 610 l 593 606 l 571 599 q 638 621 613 606 q 652 628 646 624 q 664 638 658 633 l 668 644 q 678 660 672 649 l 682 676 q 682 693 683 685 q 681 710 682 704 q 675 725 676 717 l 667 738 l 664 742 l 660 747 q 657 750 657 750 l 651 756 l 647 758 q 621 771 632 768 l 615 768 q 600 776 608 772 q 583 782 592 779 q 566 786 575 785 q 547 786 557 788 q 539 785 543 786 q 531 785 535 785 q 510 790 522 789 q 485 789 499 790 l 471 786 q 463 785 465 786 l 456 785 q 451 783 454 783 l 449 783 q 440 782 446 782 q 425 781 435 781 q 418 782 429 782 q 406 781 410 782 l 396 781 q 393 776 397 779 q 388 774 390 776 q 384 773 385 774 q 382 772 383 772 q 376 768 376 771 l 382 768 q 381 767 381 768 q 379 767 381 767 q 371 764 376 767 q 367 763 368 764 l 364 763 l 358 760 l 354 757 q 350 754 353 757 q 348 753 349 754 q 346 753 347 753 l 344 751 l 346 750 l 346 747 q 347 738 346 740 l 347 728 q 347 712 347 719 q 344 694 347 704 l 353 675 q 352 651 354 663 q 349 631 350 640 l 340 644 q 341 622 342 629 q 340 609 340 615 q 338 594 339 603 q 336 569 336 586 q 344 577 339 588 q 350 542 349 567 q 355 494 356 522 q 353 438 354 465 q 352 387 351 410 q 361 356 353 364 q 358 306 358 329 q 360 260 358 283 l 360 228 q 360 226 360 226 q 361 224 361 225 l 361 221 l 371 221 q 375 219 372 219 l 386 219 q 399 219 393 219 q 413 221 406 219 q 424 222 418 221 q 435 222 429 222 l 446 225 l 451 225 q 457 226 453 226 l 478 231 q 490 231 485 231 q 500 233 494 232 q 550 238 522 238 q 571 245 560 242 q 593 253 582 249 q 601 251 599 253 q 606 251 604 251 q 611 250 608 250 q 615 249 614 249 q 618 247 617 249 q 622 247 621 247 q 626 246 624 246 q 633 243 629 243 l 639 240 q 644 238 642 239 q 649 235 646 236 l 644 235 q 639 228 644 232 l 631 225 q 628 224 629 225 q 626 224 628 224 q 624 223 625 224 q 622 222 624 222 q 612 219 617 219 q 603 217 607 218 l 586 213 q 587 215 588 214 q 583 214 586 215 l 571 214 l 563 211 l 557 208 l 547 206 q 538 203 542 203 q 529 201 535 201 q 523 201 526 201 q 517 200 519 200 q 506 197 513 199 q 515 194 500 194 q 504 192 507 192 q 528 194 517 193 q 553 197 540 194 l 551 197 q 563 199 556 199 l 585 203 l 586 204 m 426 31 q 436 28 432 28 l 458 28 q 488 31 471 29 q 525 31 504 32 q 585 39 556 32 q 440 31 515 31 l 426 31 m 417 188 q 443 188 431 188 q 468 189 456 189 q 449 190 463 193 q 430 188 440 189 q 407 190 419 188 q 387 190 396 190 q 369 189 378 189 q 392 188 381 188 q 417 188 403 188 m 332 944 q 331 960 332 953 q 331 974 331 968 q 330 976 331 975 q 329 978 329 976 l 329 979 l 329 915 l 333 919 q 333 929 333 922 q 332 944 332 936 m 899 467 q 897 468 899 467 q 900 465 897 465 q 899 467 900 465 z "},"C":{"ha":804,"x_min":92,"x_max":794,"o":"m 267 107 q 250 117 256 113 q 227 134 239 124 q 204 156 215 144 q 162 213 181 181 q 132 279 143 244 l 128 290 q 125 303 128 294 l 119 326 l 107 378 l 99 431 q 96 458 97 444 q 94 486 94 472 q 92 527 92 510 q 92 560 92 544 q 93 567 93 563 l 93 575 q 94 589 94 579 l 97 603 q 98 609 97 606 q 99 617 99 613 q 103 619 100 617 q 106 640 104 628 q 110 665 107 651 q 125 724 115 694 q 135 749 131 738 q 146 769 140 761 q 154 781 150 779 q 157 783 157 783 q 163 796 160 790 q 171 808 167 801 l 171 810 l 176 818 q 200 854 186 836 q 215 872 207 864 q 229 889 222 881 q 264 919 244 904 q 303 946 281 933 l 308 949 l 313 951 l 324 957 l 333 963 l 344 967 q 386 983 365 976 l 429 996 l 442 996 q 443 995 443 996 q 442 994 443 994 l 418 988 l 414 988 l 410 986 l 403 983 l 390 979 q 444 990 417 986 q 500 993 471 993 q 521 993 511 993 q 540 992 531 993 q 547 991 543 992 q 553 990 550 990 q 610 982 581 988 q 638 973 624 978 q 664 961 651 968 l 667 960 l 671 957 q 672 956 672 957 q 674 956 672 956 q 678 953 676 953 l 690 943 l 701 933 l 703 932 l 703 931 l 704 931 q 703 926 703 929 l 700 919 q 698 915 699 917 q 694 910 697 913 l 690 897 q 688 892 688 894 l 685 885 l 679 874 q 671 849 675 861 q 664 826 667 836 l 665 821 l 661 808 q 656 796 658 804 q 650 783 653 789 q 644 769 647 776 q 639 757 642 763 q 633 744 636 751 l 628 731 q 626 726 628 728 l 626 725 l 625 726 q 623 727 624 726 q 621 728 622 728 l 617 733 q 614 736 617 733 q 613 737 613 736 q 611 738 613 738 l 606 743 l 600 747 l 597 750 l 594 751 l 592 754 q 589 757 589 754 q 582 764 585 760 l 575 769 l 574 771 l 572 771 q 571 772 572 771 q 568 775 571 772 l 560 778 q 543 784 553 782 q 522 788 533 786 q 501 788 513 788 q 479 785 490 788 q 436 772 460 781 q 438 774 439 774 q 436 774 438 775 q 432 772 433 774 q 428 771 429 772 l 426 771 l 425 769 q 423 769 424 769 q 421 768 422 768 l 417 765 q 415 765 415 765 q 413 764 414 764 l 410 761 l 403 757 q 397 754 397 754 q 397 751 400 754 q 396 750 397 751 q 394 746 396 747 l 383 732 q 381 726 381 726 q 379 724 379 725 l 381 724 l 383 726 q 385 728 383 726 q 381 722 382 725 q 376 715 379 718 l 372 710 l 369 704 l 367 699 q 365 696 367 699 q 364 693 365 696 q 356 672 360 682 q 350 653 353 663 l 342 610 q 338 588 339 599 q 333 563 336 576 l 336 547 l 339 533 l 339 497 q 338 481 338 492 q 337 472 338 476 q 336 465 336 468 l 332 475 l 331 481 l 328 485 q 329 475 329 481 q 330 470 329 472 q 331 465 331 468 q 332 451 331 456 l 332 410 q 333 403 333 408 q 335 393 335 400 q 336 389 336 392 q 337 386 336 388 q 338 383 338 385 l 340 371 q 340 378 340 375 q 339 383 339 381 l 339 389 q 344 386 340 392 l 349 379 l 354 368 q 357 361 354 367 q 358 358 358 360 q 360 354 358 357 l 368 339 l 385 313 q 395 299 390 306 q 407 286 400 293 q 435 263 419 272 q 469 246 453 251 q 506 238 488 240 l 515 238 q 524 236 518 236 l 532 236 q 540 238 535 238 q 583 251 571 239 l 611 256 l 636 264 l 647 268 l 650 269 l 651 271 l 654 272 l 660 275 l 664 278 l 683 292 q 693 300 689 296 q 703 307 697 304 l 706 306 l 708 301 l 713 294 l 724 279 q 733 265 729 272 q 743 251 738 258 l 751 240 l 758 232 q 761 227 760 229 q 764 222 763 225 l 775 208 q 781 200 778 203 l 785 193 q 790 185 788 190 q 793 182 793 182 l 794 179 l 794 178 q 785 161 789 167 q 775 144 779 150 l 769 136 l 767 132 q 764 129 764 129 l 763 126 l 760 124 l 756 118 l 736 97 q 717 80 726 88 q 699 65 708 72 q 680 53 689 58 q 661 42 671 47 q 589 8 622 21 q 570 3 579 6 q 551 -3 561 0 q 531 -6 540 -6 q 511 -8 522 -7 q 490 -10 500 -10 q 468 -10 479 -10 q 445 -7 457 -8 q 421 -3 433 -6 q 412 -3 417 -3 q 401 -1 407 -3 l 396 -1 q 390 0 394 0 q 385 1 388 0 q 381 1 383 1 q 358 7 369 4 q 335 13 347 10 q 293 53 308 32 l 286 63 l 282 71 q 278 85 278 79 q 279 83 279 83 q 282 81 279 82 q 294 76 285 82 q 319 63 304 69 q 335 55 326 58 q 350 49 343 51 q 357 45 353 46 q 364 43 361 44 l 375 39 q 379 36 371 39 l 389 32 q 397 29 392 32 q 406 28 403 29 l 411 28 q 422 26 415 26 l 438 26 q 441 27 440 26 q 444 28 442 28 q 454 26 451 28 l 468 26 q 478 25 474 26 l 488 25 q 492 26 490 25 q 496 26 493 26 q 501 27 499 26 q 504 28 503 28 q 504 31 506 29 l 492 31 l 504 33 l 483 33 q 458 33 471 33 q 433 36 446 33 q 426 37 431 36 q 419 38 422 38 q 401 42 410 40 q 382 47 392 44 l 379 47 q 283 93 329 61 q 275 99 279 96 q 267 107 271 103 m 621 57 q 628 61 625 60 q 636 64 632 63 q 601 51 619 57 q 564 42 583 44 q 594 47 572 39 q 598 48 597 47 q 601 49 599 49 q 607 51 604 51 q 611 53 610 53 q 614 54 613 53 q 621 57 619 57 m 693 100 q 671 85 682 92 q 647 71 660 78 l 636 64 l 654 72 q 679 89 668 81 q 682 90 681 89 q 685 93 685 93 l 690 97 l 693 100 m 388 731 l 388 729 q 385 728 386 728 q 388 731 388 728 m 388 731 q 389 732 388 731 l 393 735 l 388 731 m 389 979 q 388 978 388 979 q 386 978 388 978 q 389 979 388 978 m 436 772 l 435 772 l 436 772 z "},"D":{"ha":1036,"x_min":114,"x_max":944,"o":"m 489 11 q 454 3 471 7 q 421 -3 438 0 l 404 -6 q 396 -6 400 -6 q 386 -7 392 -7 l 369 -10 l 351 -10 q 272 -6 315 -12 q 197 -6 239 -10 q 151 17 169 6 q 129 40 133 29 q 131 40 131 40 q 133 39 132 39 q 147 40 136 42 q 172 36 157 39 q 202 31 188 33 q 226 29 217 29 q 232 26 224 28 q 247 22 240 25 q 271 24 265 22 q 285 25 281 24 l 301 25 q 314 25 307 25 q 332 24 321 25 q 335 24 333 24 q 339 25 336 25 q 343 26 342 25 q 346 26 344 26 q 347 28 349 28 q 335 29 346 29 q 347 31 339 31 l 354 32 l 340 32 q 310 32 325 32 q 281 33 296 32 q 267 35 271 33 q 250 35 258 35 q 233 38 242 36 l 229 38 q 181 44 206 40 q 131 51 157 47 l 128 51 l 128 68 q 118 160 122 103 q 119 272 114 217 q 124 366 124 317 q 122 467 124 415 q 119 535 119 511 q 121 588 119 560 l 124 590 q 123 631 124 606 q 122 683 122 657 q 124 728 122 708 q 128 753 125 749 l 128 778 q 126 808 126 793 q 125 839 125 824 l 125 886 q 125 911 125 899 q 124 936 125 924 q 144 941 135 939 q 164 946 154 943 q 183 951 174 949 q 200 956 192 953 q 237 966 219 961 q 271 978 254 971 q 283 977 286 979 q 269 972 279 975 q 246 964 258 968 q 229 958 233 960 l 289 974 l 288 985 l 297 975 l 329 983 l 332 985 l 332 982 l 333 981 l 332 981 l 332 949 l 343 940 l 340 939 q 336 938 338 939 q 332 938 335 938 q 333 931 333 935 l 339 935 q 343 938 342 938 l 350 944 q 354 947 351 944 l 363 953 l 367 956 l 375 961 q 377 962 376 961 q 379 963 378 963 q 384 966 382 965 q 389 968 386 967 l 397 972 l 401 975 q 403 976 403 975 q 407 976 404 976 l 415 981 l 433 986 q 443 989 439 989 l 451 992 l 456 992 q 461 993 458 993 q 465 994 464 993 q 469 994 467 994 q 490 995 478 994 q 514 997 501 996 q 538 998 526 997 q 560 1000 550 999 q 565 1003 560 1000 q 618 994 590 1001 q 644 989 631 992 q 672 983 657 986 l 685 981 q 696 978 688 981 q 723 962 707 969 q 757 943 739 954 q 765 938 763 940 q 770 935 768 936 q 775 932 772 933 l 779 929 l 783 925 q 788 922 786 924 q 793 919 790 921 q 828 886 810 907 q 824 885 822 889 q 832 875 826 882 l 842 861 l 846 854 q 847 851 846 851 q 847 849 847 850 q 854 844 850 851 l 860 838 q 863 833 863 835 q 865 831 865 833 q 872 824 872 824 l 872 825 q 871 828 872 825 q 870 830 871 829 q 869 832 869 831 l 865 840 l 889 793 l 899 774 q 903 763 901 768 q 908 753 906 758 l 917 733 l 922 713 q 926 701 925 707 q 928 690 926 696 q 930 678 929 683 q 931 665 931 672 q 932 661 932 663 q 933 658 932 660 l 942 638 q 944 601 944 618 q 943 569 944 585 l 939 581 l 935 590 q 935 585 935 588 q 936 579 936 582 l 936 571 q 937 563 936 567 q 936 557 938 560 q 935 539 936 544 q 934 534 935 536 q 933 529 933 532 l 933 524 q 932 518 932 522 l 928 479 q 933 496 932 494 q 938 493 935 500 q 939 472 939 486 q 936 438 939 457 q 933 404 936 422 q 922 367 929 386 l 907 328 l 903 318 l 897 308 q 892 299 894 301 q 889 293 892 296 q 888 291 889 292 q 888 289 888 290 q 865 254 876 269 q 844 225 854 239 q 828 200 835 211 q 819 182 822 189 q 791 156 804 168 q 763 133 778 144 q 704 93 731 108 q 674 75 689 83 q 642 58 658 67 q 607 44 625 51 q 569 32 589 38 l 489 11 m 542 226 l 551 231 l 565 239 l 567 240 q 589 255 578 247 q 610 272 600 263 l 618 281 q 624 289 621 286 q 626 296 624 290 l 631 301 l 635 308 q 638 315 638 314 l 654 346 l 660 353 l 664 361 l 668 368 l 672 375 l 676 381 q 679 386 676 383 q 682 392 679 386 q 683 394 682 393 q 685 397 683 396 l 689 410 q 690 413 689 411 q 690 415 690 414 q 692 422 692 418 l 694 428 l 694 435 q 696 442 696 438 l 697 446 l 697 449 q 698 456 697 451 q 699 463 699 460 q 700 476 700 467 l 700 542 l 703 543 q 702 553 703 547 q 700 567 701 560 q 699 571 700 569 q 699 574 699 572 q 697 582 699 579 q 696 589 697 586 l 696 593 q 694 596 696 596 q 693 603 694 601 l 693 610 q 692 621 692 614 q 693 631 689 626 l 689 643 l 676 669 l 653 708 q 638 726 646 718 q 621 742 629 735 q 602 755 611 749 q 582 764 593 761 q 578 768 578 765 q 579 769 578 768 q 583 768 581 769 q 590 765 586 767 q 597 763 596 763 q 604 760 603 760 q 607 758 606 758 q 533 789 574 781 q 516 790 525 790 q 499 790 507 790 q 469 788 483 789 q 443 788 456 788 q 419 788 433 790 q 406 785 413 786 q 396 782 400 785 l 393 778 q 379 776 389 776 q 372 775 378 775 l 369 775 q 367 774 368 774 q 360 772 363 774 q 357 772 358 772 q 354 771 356 771 q 343 764 347 768 l 342 763 l 340 763 l 342 761 l 342 760 q 342 757 342 758 q 343 754 343 756 q 339 742 339 750 l 339 733 q 340 722 339 726 q 343 699 342 711 q 343 674 344 688 q 339 668 340 679 q 336 651 338 657 q 339 648 338 653 q 342 638 340 643 q 344 632 343 633 q 346 638 344 631 q 348 590 343 610 q 347 543 353 569 l 356 528 q 355 508 357 517 q 351 492 353 500 l 343 503 q 344 485 344 490 q 342 474 343 479 q 340 463 342 469 q 339 444 339 457 q 347 450 342 458 q 353 422 351 442 q 358 384 358 407 q 356 339 357 361 q 355 299 354 317 q 364 274 356 281 q 362 254 363 264 q 361 235 361 244 l 361 226 q 363 219 361 222 l 363 215 l 371 215 q 374 217 372 215 l 382 217 q 387 217 385 217 q 392 218 389 218 l 403 218 q 408 219 406 218 q 413 219 410 219 q 418 221 417 219 l 422 221 q 432 224 428 224 l 463 236 l 467 238 l 471 240 q 478 243 472 240 q 480 244 479 243 q 482 244 481 244 q 485 247 482 244 q 493 250 488 247 q 495 251 494 250 q 497 251 496 251 q 500 254 497 251 q 508 257 503 254 l 518 260 q 526 263 524 263 l 533 268 q 536 271 533 271 l 539 275 l 546 281 l 553 286 l 581 286 q 593 284 588 285 q 603 281 599 283 l 600 281 q 597 274 601 278 l 588 264 l 581 260 l 574 256 l 568 251 q 563 249 563 249 q 560 249 565 251 q 551 246 554 247 l 542 238 q 536 232 538 236 q 529 228 533 229 q 524 225 526 225 q 514 222 518 222 l 508 217 q 508 214 507 215 q 511 215 508 214 l 515 215 l 504 210 q 543 226 524 215 l 542 226 m 404 188 q 443 193 424 190 q 481 201 463 196 q 475 203 479 203 q 464 200 472 203 l 458 197 q 454 197 456 197 q 450 196 453 196 q 442 194 447 194 q 432 193 439 193 q 418 191 425 192 q 404 188 411 190 m 543 57 q 509 48 526 51 q 474 42 492 44 q 483 42 478 42 q 492 43 488 42 q 519 49 507 46 q 543 57 532 53 m 474 42 q 404 33 440 36 q 408 33 406 33 q 413 32 410 32 q 421 33 417 32 q 432 35 425 33 q 438 35 435 35 q 444 36 442 36 l 458 39 q 467 40 464 39 q 474 42 471 40 m 347 642 q 347 640 347 640 q 346 638 346 639 q 347 640 346 639 q 347 642 347 640 z "},"E":{"ha":796,"x_min":114,"x_max":774,"o":"m 521 13 q 433 9 478 10 q 329 11 388 8 q 281 7 307 8 q 228 4 256 6 q 161 22 189 13 q 125 40 133 31 q 128 40 128 40 q 132 39 129 39 q 149 42 133 42 q 185 42 164 43 q 227 42 206 42 q 263 42 249 42 q 270 40 258 40 q 293 39 282 39 q 326 40 315 39 q 345 43 336 42 q 367 44 354 44 q 410 43 381 44 q 421 44 414 43 q 431 46 428 44 q 432 48 435 47 q 415 50 429 49 l 444 51 l 125 51 l 125 81 q 119 139 122 106 q 115 211 117 172 q 114 290 114 250 q 117 369 114 331 q 121 502 121 432 q 119 647 121 572 q 117 701 118 678 q 117 744 117 725 q 117 781 117 764 q 118 818 118 799 l 121 822 q 121 851 121 833 q 119 889 121 869 l 119 976 q 140 976 131 976 q 157 975 149 976 l 185 975 q 206 971 201 972 l 242 971 q 335 974 286 974 q 436 974 385 974 q 497 974 467 974 q 558 975 528 974 q 588 975 574 975 q 618 976 603 975 q 633 976 625 976 q 647 978 640 976 q 663 978 654 978 q 678 979 671 978 q 689 978 685 978 q 696 976 693 978 q 694 976 694 976 q 693 975 694 975 q 679 974 689 975 q 658 974 669 974 q 648 973 653 974 q 638 972 643 972 l 619 972 q 615 971 618 971 l 713 971 l 694 864 q 694 855 694 860 q 693 844 693 850 l 689 815 q 676 815 682 815 q 664 814 671 815 q 651 814 657 814 q 638 813 644 814 q 613 812 625 813 q 589 811 600 811 q 542 810 565 810 q 496 810 518 810 q 469 813 485 813 q 435 814 453 814 l 400 814 q 392 813 396 814 q 383 813 388 813 l 371 813 l 365 808 q 352 809 358 808 q 339 810 346 810 l 336 788 l 336 761 q 335 731 335 746 q 338 700 335 717 l 340 667 l 338 653 l 338 644 q 336 638 338 640 l 336 607 q 351 608 343 607 q 367 608 360 608 l 375 608 q 379 609 378 608 q 383 610 381 610 l 403 610 q 443 612 422 611 q 486 611 464 613 q 483 610 478 611 q 501 608 489 610 q 525 606 513 607 q 544 604 538 606 q 552 607 542 606 q 574 610 563 608 q 590 612 585 611 q 583 614 596 613 l 596 614 l 625 614 q 658 614 642 614 q 689 615 674 614 l 682 568 l 679 543 q 678 535 678 540 q 676 525 676 531 l 669 488 l 667 475 q 664 461 667 469 l 658 432 l 657 432 q 645 431 651 432 q 632 429 639 431 l 618 426 l 608 426 l 606 425 l 604 425 q 555 426 578 424 q 513 429 532 428 l 540 436 q 495 435 510 435 q 468 438 481 436 q 439 440 456 439 q 386 442 422 442 q 404 433 422 438 l 376 429 q 364 428 369 429 q 351 426 358 428 l 350 426 q 353 413 353 418 q 353 409 353 410 q 354 406 354 408 l 354 396 q 356 365 356 381 q 356 335 356 350 q 354 301 354 318 q 354 269 354 285 q 353 261 354 265 q 353 253 353 257 l 353 226 l 415 226 q 467 235 453 229 q 538 233 504 233 q 606 233 572 233 l 671 233 q 721 233 696 233 q 774 235 746 233 l 757 139 q 755 123 756 131 q 751 107 754 115 l 746 67 q 741 44 743 56 q 736 21 739 32 l 692 21 q 681 20 686 21 q 671 19 676 19 l 658 19 q 633 19 646 19 q 610 18 621 19 q 565 16 586 17 q 521 13 543 15 m 513 51 q 558 49 525 46 q 638 49 590 51 l 657 49 q 667 50 660 50 l 676 50 q 692 50 683 50 q 710 51 701 50 l 513 51 m 568 615 q 583 614 574 614 q 577 614 581 614 q 568 615 574 614 m 711 51 l 711 56 l 710 51 l 711 51 z "},"F":{"ha":756,"x_min":114,"x_max":747,"o":"m 621 379 q 619 378 619 379 q 617 378 618 378 q 542 379 578 379 q 472 379 507 379 q 438 379 456 379 q 403 378 421 379 l 361 378 l 361 276 q 363 239 363 257 q 367 203 364 221 l 371 131 l 371 113 q 372 108 371 110 q 372 103 372 106 l 372 88 q 372 49 372 68 q 371 10 372 29 q 340 10 356 10 q 310 11 325 11 q 301 11 306 11 q 292 10 296 11 l 278 10 l 257 7 l 211 4 q 156 22 179 13 q 125 40 132 31 q 127 40 126 40 q 131 39 128 39 q 144 42 132 42 q 174 42 157 43 q 210 42 192 42 q 240 42 228 42 q 248 40 238 40 q 267 39 258 39 l 279 39 q 285 39 282 39 q 290 40 288 39 q 300 41 296 40 q 307 42 304 42 q 319 44 314 43 q 336 44 325 44 q 336 61 336 51 q 338 85 336 71 q 337 90 338 88 q 336 96 336 93 l 336 99 q 335 101 336 100 l 335 104 q 333 106 333 107 q 332 90 332 103 l 329 115 l 329 51 l 125 51 l 125 75 q 119 124 122 96 q 115 185 117 153 q 114 252 114 218 q 117 319 114 286 q 121 431 121 372 q 119 553 121 490 q 117 635 117 604 q 118 697 117 665 l 121 700 q 120 749 121 718 q 119 810 119 779 q 121 865 119 840 q 125 893 122 889 l 125 924 q 124 928 125 926 q 124 931 124 929 q 124 951 124 942 q 122 972 124 961 q 203 974 163 974 q 285 974 243 974 q 365 975 325 974 q 442 979 406 976 q 456 976 460 976 q 439 974 453 975 q 409 973 425 974 q 389 971 393 972 l 565 971 l 626 975 q 640 976 633 975 q 654 976 647 976 q 662 977 658 976 q 668 978 665 978 l 683 978 q 715 979 699 979 q 747 979 732 979 l 740 947 q 738 934 739 940 q 733 921 736 928 q 733 913 733 917 q 731 906 732 910 q 728 892 731 900 l 724 863 q 722 856 722 860 q 722 852 722 853 q 721 849 721 851 q 720 841 721 844 q 719 835 719 838 l 722 825 l 718 808 l 685 811 l 669 811 q 662 812 665 811 q 656 813 658 813 q 626 813 640 813 q 597 811 613 813 l 569 808 q 489 810 538 815 q 385 808 440 806 l 383 810 l 378 810 q 375 810 376 810 q 371 811 374 811 q 362 811 367 811 q 353 813 357 811 q 344 813 347 813 q 338 814 340 814 q 336 811 338 813 q 339 783 339 797 q 342 779 342 779 l 342 781 q 343 785 342 782 l 343 782 l 343 742 q 344 715 343 728 q 346 690 344 703 q 347 666 346 678 q 347 640 347 654 l 347 607 q 347 605 347 606 q 346 603 346 604 q 344 592 346 596 l 350 582 q 354 583 353 582 q 357 583 356 583 q 368 583 364 586 l 381 583 l 417 579 l 394 572 q 431 573 419 574 q 453 571 443 572 q 477 569 464 569 q 519 568 490 568 q 508 575 489 571 q 571 582 526 579 q 625 586 593 586 l 721 586 l 708 522 l 706 507 q 705 503 706 504 q 704 500 704 503 q 703 498 704 499 q 703 496 703 497 l 699 475 l 696 456 l 692 435 l 683 386 l 642 383 l 625 381 l 624 381 l 624 379 l 621 379 m 329 172 q 332 210 335 183 q 332 278 329 238 q 331 312 332 296 q 329 343 331 328 l 329 172 m 344 793 q 343 785 343 790 q 344 793 343 789 z "},"G":{"ha":965,"x_min":89,"x_max":888,"o":"m 686 40 q 589 3 640 15 q 533 -7 564 -4 l 525 -7 q 518 -8 521 -7 l 488 -8 q 479 -7 482 -8 l 471 -7 q 418 -7 446 -10 q 388 -3 403 -6 q 357 3 372 -1 l 339 14 q 329 19 333 17 q 322 25 325 22 l 318 28 q 314 31 315 31 q 307 36 313 33 q 304 40 306 39 q 301 42 303 40 l 296 47 l 286 58 l 279 68 q 271 83 274 76 l 276 79 q 282 78 279 79 l 293 72 l 308 64 l 318 60 l 328 56 q 348 46 338 50 q 369 39 358 42 q 379 36 375 38 q 388 33 383 35 q 392 33 390 33 q 397 32 394 32 q 399 31 399 32 q 403 31 400 31 q 410 28 396 31 q 422 25 418 25 l 433 22 l 468 22 q 478 24 475 22 q 488 25 485 24 q 497 26 492 25 q 510 26 503 26 q 528 28 515 28 q 534 28 531 28 q 540 29 538 29 q 554 31 549 29 q 564 33 558 31 l 575 38 q 576 39 578 39 q 563 38 574 39 l 574 42 l 578 42 q 531 35 554 36 q 481 33 507 33 l 481 32 q 476 33 478 32 q 471 33 474 33 l 461 33 q 436 35 449 35 q 411 39 424 36 l 408 39 q 340 59 372 46 q 278 93 307 72 l 254 110 l 233 125 q 226 131 232 128 l 224 135 q 219 138 222 135 l 206 150 q 178 183 189 167 q 131 264 149 221 l 122 286 q 118 298 119 293 q 115 310 117 303 l 113 315 q 111 321 113 319 q 108 333 111 325 q 106 344 108 336 q 105 350 106 347 q 104 356 104 353 q 92 490 94 418 q 100 635 89 561 q 106 664 103 650 q 111 689 108 678 l 117 711 q 119 721 119 717 q 121 726 121 722 l 124 731 l 126 740 l 131 749 q 138 765 132 754 l 146 782 q 151 790 149 788 q 152 792 151 792 q 153 794 153 793 l 156 799 l 160 801 q 174 825 165 811 q 194 854 183 839 q 219 885 204 869 l 249 913 q 304 949 281 938 l 314 953 q 318 955 317 954 q 322 956 319 956 l 326 956 q 343 964 335 960 q 361 971 351 968 l 376 976 q 403 984 389 981 q 432 990 417 988 q 462 994 447 993 q 492 996 476 996 q 522 995 507 996 q 553 992 538 994 q 613 978 586 988 l 642 967 l 656 958 q 663 956 657 958 l 669 951 q 682 942 674 947 q 688 936 685 939 q 694 931 692 933 l 696 929 l 696 928 l 694 924 q 692 915 694 921 l 688 900 l 685 893 q 683 889 683 890 q 682 886 683 888 l 678 872 l 669 844 q 663 831 664 833 q 661 831 661 828 q 664 843 661 835 q 669 863 667 851 q 676 882 674 872 q 682 899 679 892 l 682 900 l 621 736 q 613 747 617 742 q 603 756 608 751 l 599 760 q 596 763 599 760 l 592 764 q 589 767 592 764 l 586 769 l 582 771 l 578 774 l 575 775 q 573 776 574 775 q 571 776 572 776 l 564 781 q 500 790 535 790 l 493 790 q 485 789 490 789 q 476 788 479 789 q 469 786 472 788 q 440 778 453 783 q 392 746 413 767 q 388 743 390 746 l 383 739 l 374 728 q 354 700 363 714 q 348 685 351 693 q 342 668 344 676 q 333 640 336 654 l 336 632 l 333 624 q 332 618 333 621 q 331 614 332 615 q 330 610 331 611 q 329 606 329 608 q 328 601 329 603 q 328 596 328 599 l 324 579 q 322 569 324 572 l 322 561 q 319 523 319 542 q 322 483 319 504 q 323 475 322 479 q 324 467 324 471 l 328 451 q 344 358 324 411 q 372 306 354 332 l 376 300 q 382 294 378 296 q 383 292 382 293 q 383 290 383 292 l 386 288 q 388 285 388 286 q 392 282 389 283 q 414 260 401 269 q 410 260 407 264 q 424 249 414 256 q 428 246 425 249 l 432 242 l 443 236 l 447 233 q 451 231 449 233 q 453 230 453 231 q 456 229 454 229 q 458 228 457 229 q 461 229 458 229 l 464 229 q 469 228 465 228 q 475 226 472 228 l 483 226 q 488 225 486 226 l 501 225 q 506 226 506 225 l 504 226 q 500 228 501 226 q 494 228 497 228 q 485 231 490 229 q 501 228 493 228 q 518 228 510 228 q 535 228 526 228 q 550 231 543 229 q 599 254 576 236 q 608 262 604 257 q 617 272 613 267 q 625 282 621 276 q 632 293 629 288 q 644 319 639 306 q 656 350 650 333 l 656 357 l 654 358 l 654 365 q 653 369 653 367 q 651 375 651 372 l 651 386 l 638 386 l 626 389 l 615 389 q 610 390 613 389 q 606 390 608 390 l 619 393 l 622 394 l 625 394 l 626 396 q 631 397 629 396 l 621 397 q 610 396 617 396 l 593 396 q 580 397 586 396 q 568 397 574 397 q 558 399 565 399 l 553 399 q 546 400 550 400 q 529 401 539 400 q 508 401 519 401 l 501 440 q 503 423 503 429 q 503 413 504 417 q 499 417 503 406 l 494 431 q 492 440 492 436 q 489 450 489 449 q 483 471 486 460 q 478 496 481 482 q 477 499 478 497 q 476 503 476 500 q 474 513 474 508 l 468 535 l 458 586 l 582 586 l 678 583 q 759 584 724 583 q 810 592 794 585 l 888 592 q 887 554 888 572 q 886 518 886 536 l 886 390 q 885 367 886 379 q 883 344 885 356 q 881 322 882 333 q 876 299 879 310 q 863 251 871 275 q 842 204 854 228 l 838 196 l 833 189 q 832 186 833 188 l 829 182 l 825 175 l 821 168 l 817 163 l 811 156 q 810 154 811 154 q 810 153 810 154 q 807 150 807 150 q 769 106 786 122 q 729 69 750 86 q 708 54 718 61 q 686 40 697 47 m 651 67 q 688 82 664 67 l 719 104 l 756 135 q 770 150 764 142 q 782 165 776 158 q 793 181 789 172 q 801 196 797 189 q 679 79 756 122 l 651 67 m 585 44 q 581 43 582 43 q 578 42 579 43 l 582 43 l 585 44 m 561 38 l 563 38 l 557 38 l 561 38 m 485 231 l 483 232 l 485 231 z "},"H":{"ha":919,"x_min":114,"x_max":800,"o":"m 361 396 q 362 370 361 382 q 363 347 363 358 l 368 257 l 372 165 l 372 115 q 371 103 371 111 l 371 81 q 370 54 371 67 q 369 28 369 42 q 371 11 369 17 l 285 7 q 272 6 278 7 q 258 6 265 6 q 245 5 251 6 q 232 4 239 4 q 163 22 192 13 q 125 40 135 31 q 128 40 128 40 q 132 39 129 39 q 149 42 133 42 q 187 42 165 43 q 231 42 208 42 q 268 42 254 42 q 276 40 268 40 q 282 39 281 40 l 306 39 q 340 40 333 39 q 339 63 340 56 q 338 82 338 71 q 337 88 338 85 q 336 94 336 90 l 336 107 q 336 124 336 114 q 338 144 336 133 q 337 156 338 149 q 335 167 336 164 q 333 168 333 171 q 332 150 332 165 l 329 181 l 329 69 l 331 69 q 329 60 329 65 q 329 51 329 56 l 125 51 l 125 82 q 119 142 122 107 q 115 218 117 178 q 114 301 114 258 q 117 385 114 344 q 121 524 121 450 q 119 674 121 597 q 117 775 117 738 q 118 853 117 813 l 121 857 l 121 890 q 121 913 121 901 q 119 938 121 925 l 151 946 l 181 953 q 233 965 208 961 q 254 969 244 968 q 271 972 264 971 q 282 972 279 975 l 319 982 q 329 985 324 982 q 331 963 331 974 q 331 940 331 951 q 332 916 332 928 q 332 892 332 904 l 332 796 q 332 746 332 771 q 333 697 332 721 l 333 649 q 334 627 333 638 q 335 606 335 617 q 348 606 342 606 q 361 607 354 607 q 375 608 368 607 q 389 608 382 608 q 406 606 408 607 q 390 604 404 606 q 383 603 388 604 q 375 603 379 603 l 360 603 q 344 601 351 601 q 331 601 336 601 q 330 604 331 603 q 329 607 329 606 l 329 600 l 540 600 l 569 603 l 567 657 l 564 713 q 563 767 563 740 q 563 818 563 793 l 567 872 l 567 906 q 566 922 567 914 q 565 939 565 931 l 582 943 l 589 949 q 610 953 601 951 q 631 957 619 954 q 649 961 640 960 q 668 964 658 963 q 687 969 678 967 q 706 974 696 971 q 710 974 708 974 q 715 975 713 975 l 721 978 q 728 979 725 978 l 751 986 l 786 997 l 788 990 q 783 933 783 963 l 783 878 q 786 814 785 847 q 788 746 788 781 q 785 748 786 754 q 784 730 785 742 q 783 704 783 718 q 781 685 782 690 q 783 674 782 688 q 785 649 785 661 q 787 634 786 636 q 790 660 788 632 q 790 585 789 618 q 793 522 792 553 q 794 460 794 492 q 792 390 794 428 l 799 349 q 798 297 800 321 q 794 253 796 274 l 788 281 q 788 234 789 249 q 786 207 788 219 q 784 177 785 194 q 783 124 783 160 q 790 139 785 158 l 794 110 q 796 100 794 103 l 796 83 q 797 65 796 75 q 797 46 797 56 q 798 38 797 42 q 799 29 799 33 q 769 27 785 28 q 733 26 753 26 l 626 26 q 587 27 607 26 q 547 28 567 28 q 548 71 547 50 q 549 111 549 92 l 549 165 q 546 208 547 190 q 540 236 544 226 q 542 292 542 265 q 542 346 542 319 l 542 418 l 524 418 q 500 418 513 418 q 475 417 488 418 l 361 417 l 361 396 m 331 447 q 344 449 340 447 l 329 449 l 329 251 q 332 299 335 265 q 332 383 329 333 l 332 400 q 331 417 332 411 l 331 447 z "},"I":{"ha":488,"x_min":111,"x_max":367,"o":"m 364 57 q 366 35 365 46 q 367 14 367 25 q 347 12 357 13 q 326 11 338 11 q 316 10 321 11 q 304 10 311 10 l 282 10 q 228 11 254 7 q 203 7 217 8 q 176 4 190 6 q 125 40 133 22 q 126 40 126 40 q 128 39 126 39 q 135 42 128 42 q 153 42 143 43 q 175 42 164 42 q 193 42 186 42 q 197 40 190 40 q 210 39 204 39 q 226 40 221 39 q 235 43 231 42 q 247 44 240 44 q 268 43 253 44 q 278 46 272 44 q 271 50 285 47 l 285 51 l 125 51 l 125 65 q 115 131 119 90 q 117 211 111 172 q 121 278 121 243 q 119 350 121 314 q 117 399 117 382 q 118 436 117 417 l 121 439 q 120 467 121 449 q 119 504 119 486 q 121 537 119 522 q 125 554 122 551 l 125 572 q 122 681 119 622 q 117 790 124 739 q 119 799 118 801 q 122 788 121 796 q 123 770 122 779 q 125 758 124 761 l 125 863 l 122 883 q 122 890 122 886 q 121 896 121 893 l 119 903 l 119 910 l 117 940 q 131 944 124 943 q 144 947 138 946 l 158 951 q 169 954 161 951 q 200 957 181 953 q 232 967 219 961 l 235 971 q 253 974 246 974 q 263 975 256 975 l 267 976 l 271 976 l 292 981 q 303 985 297 983 q 315 989 308 986 l 338 997 l 339 997 q 337 982 338 989 q 336 968 336 975 q 336 953 336 961 q 338 938 336 946 l 338 929 q 338 925 338 926 q 339 922 339 924 q 340 907 339 911 l 340 875 q 338 876 339 879 q 337 868 338 874 q 335 856 336 863 q 333 846 335 849 q 336 841 335 847 q 339 828 338 835 q 341 820 340 822 q 343 828 342 818 q 345 765 340 790 q 344 704 350 739 l 353 683 q 352 660 354 671 q 349 638 350 649 l 340 651 q 341 628 342 636 q 340 615 340 621 q 338 601 339 610 q 336 575 336 593 q 344 583 339 594 q 350 546 349 572 q 355 497 356 526 q 353 439 354 468 q 352 386 351 410 q 361 354 353 363 q 359 256 357 300 q 361 156 361 211 q 360 126 360 140 q 363 99 361 111 l 363 78 q 364 57 364 71 m 332 49 q 331 59 332 53 q 331 72 331 65 l 331 88 q 332 104 331 99 q 331 124 332 115 q 329 143 331 133 l 329 51 l 319 51 q 332 49 328 49 m 344 833 q 344 830 344 831 q 343 828 343 829 q 344 831 343 829 q 344 833 344 832 z "},"J":{"ha":469,"x_min":-86,"x_max":353,"o":"m -15 -246 q -3 -247 -8 -247 q 8 -247 3 -247 q 14 -250 6 -249 q 29 -251 22 -251 l 43 -251 q 53 -250 47 -250 q 65 -247 61 -247 q 72 -246 68 -246 l 81 -243 q 93 -242 89 -243 q 101 -240 99 -242 q 111 -239 107 -240 q 118 -236 113 -239 q 121 -235 119 -236 q 124 -233 122 -235 q 124 -232 125 -232 q 121 -232 124 -232 l 115 -232 q 124 -229 121 -229 l 126 -228 q 61 -239 92 -237 l 10 -239 q -83 -226 -35 -235 l -81 -207 q -81 -184 -81 -196 q -79 -158 -81 -172 l -76 -136 l -76 -125 q -75 -118 -75 -122 l -75 -112 l -71 -82 l -68 -67 q -67 -62 -68 -64 q -67 -58 -67 -61 l -67 -56 l -62 -56 l -29 -65 q -22 -67 -24 -65 l -14 -67 l -1 -69 q 9 -70 4 -69 q 19 -71 14 -71 q 23 -72 22 -71 q 25 -72 24 -72 l 31 -72 q 40 -71 33 -71 q 61 -62 50 -69 q 69 -56 65 -60 q 78 -47 74 -53 q 100 -7 90 -32 q 106 17 104 4 q 110 40 108 29 q 110 76 111 61 q 110 106 110 92 q 110 131 110 119 q 111 157 111 143 l 114 160 q 113 199 114 174 q 111 248 111 224 q 113 292 111 272 q 117 315 114 311 l 117 340 q 115 485 113 407 q 110 633 117 564 q 113 645 111 649 q 115 631 114 642 q 116 608 115 621 q 117 590 117 594 l 117 733 q 110 816 114 774 q 108 894 107 858 q 110 896 110 894 l 110 903 q 111 914 111 907 q 112 926 111 921 q 113 938 113 931 l 139 944 l 151 949 l 153 949 q 156 950 154 949 q 160 951 158 950 l 164 956 q 190 960 178 958 q 214 965 201 963 l 239 969 l 251 974 q 255 974 254 974 q 258 975 256 975 q 265 978 264 978 q 278 983 272 981 q 292 988 285 985 q 329 993 308 988 l 329 964 l 332 931 l 332 915 q 333 907 332 911 q 333 899 333 903 l 333 867 q 331 869 332 872 q 330 858 331 865 q 328 841 329 850 q 326 828 328 832 q 329 821 328 829 q 331 804 331 813 q 333 795 332 796 q 336 811 333 794 q 336 763 335 785 q 339 722 338 742 q 340 682 340 703 q 338 636 340 661 l 344 608 q 344 576 346 590 q 340 546 343 561 l 333 565 q 334 535 335 544 q 332 517 333 525 q 330 497 331 508 q 329 463 329 486 q 336 473 332 488 q 343 422 340 458 q 348 356 349 396 q 346 278 347 317 q 344 207 344 239 q 353 163 344 175 q 352 127 353 144 q 351 94 351 110 l 351 60 l 349 26 q 336 -42 344 -10 q 331 -60 333 -51 q 325 -78 328 -68 l 308 -114 q 284 -151 296 -135 q 258 -183 272 -168 l 233 -210 q 219 -222 226 -217 q 204 -233 213 -228 q 139 -267 174 -256 q 56 -279 101 -279 q 47 -281 50 -279 l 39 -281 l 21 -283 l -19 -283 q -44 -272 -33 -276 q -64 -260 -56 -267 q -86 -237 -81 -249 q -82 -239 -83 -237 q -69 -237 -79 -236 q -44 -242 -60 -239 l -15 -246 m 174 -208 q 199 -196 179 -208 l 218 -178 q 229 -169 224 -174 q 242 -157 235 -164 l 247 -151 l 251 -146 l 256 -140 l 260 -136 l 265 -125 q 266 -123 265 -124 q 267 -121 267 -122 q 189 -199 235 -169 l 174 -208 m 267 -121 q 268 -120 268 -121 q 269 -119 268 -119 l 269 -118 q 267 -121 267 -121 m 115 -232 q 113 -233 114 -232 q 115 -232 114 -232 z "},"K":{"ha":940,"x_min":115,"x_max":931,"o":"m 126 81 q 121 140 124 106 q 117 215 118 175 q 115 297 115 254 q 118 379 115 339 q 122 516 122 443 q 121 665 122 589 q 119 720 119 696 q 118 765 118 744 q 119 803 118 785 q 119 842 119 821 l 122 844 l 122 883 q 122 897 122 890 q 121 910 122 903 l 121 938 q 151 945 136 942 q 178 951 165 949 q 202 958 190 956 q 225 963 214 960 q 268 969 261 972 l 306 978 q 319 982 313 981 q 332 985 325 983 q 333 961 332 974 q 333 935 333 949 l 333 778 q 333 751 333 764 q 335 724 333 738 l 335 676 q 336 632 336 653 q 339 594 336 611 q 342 600 339 597 q 347 604 349 608 q 342 595 346 601 q 333 581 339 589 q 333 600 333 589 q 332 619 332 611 q 331 624 332 622 q 331 628 331 625 l 331 571 l 418 700 l 426 714 l 465 781 q 507 847 486 814 q 547 907 528 879 l 575 943 l 582 954 l 586 960 l 590 967 l 607 992 l 640 985 q 644 985 643 985 q 649 986 646 986 l 722 965 q 731 962 726 963 q 740 960 736 961 q 742 959 742 960 q 744 958 743 958 q 748 958 747 958 q 750 957 749 957 q 761 954 753 957 q 783 949 772 951 q 808 944 794 947 l 831 942 l 819 925 q 801 904 810 914 q 783 883 792 894 l 778 878 l 774 872 l 765 861 l 750 838 q 713 788 732 814 q 674 733 694 761 q 674 736 678 740 q 662 723 669 732 q 645 703 654 714 q 632 689 636 693 q 628 679 636 690 q 615 658 621 668 q 608 646 608 647 q 625 664 607 644 q 595 626 608 644 q 569 593 582 608 q 559 576 564 585 q 547 561 554 568 l 546 558 l 546 557 l 544 554 l 540 550 q 533 540 539 546 l 543 529 l 547 524 l 551 518 q 554 514 554 515 l 585 471 l 615 442 q 645 401 632 421 q 669 364 658 382 l 646 382 q 675 346 667 358 q 690 323 683 333 q 706 297 696 313 q 739 253 715 282 q 726 274 728 269 q 733 273 725 279 q 753 251 740 267 q 785 215 767 236 q 811 186 797 203 q 840 150 825 169 l 849 138 l 861 122 l 885 90 l 931 28 q 880 28 906 28 q 831 29 854 28 l 757 29 q 732 28 743 29 q 710 26 721 28 q 692 24 703 26 q 688 23 689 24 q 685 22 688 22 l 683 22 q 681 21 682 21 q 676 19 678 21 q 660 21 668 21 q 643 21 651 21 l 606 75 q 592 95 599 86 q 579 114 586 104 l 525 190 l 471 267 l 442 307 q 429 324 435 315 q 418 340 424 332 q 413 347 415 343 q 408 353 411 350 l 401 343 l 399 339 q 398 338 399 338 q 397 336 397 338 l 396 335 q 394 332 396 335 q 385 319 389 325 q 376 306 381 313 l 372 300 l 369 296 l 368 294 l 368 293 q 367 290 367 293 l 367 286 l 368 285 l 368 274 q 369 260 368 267 q 369 246 369 253 q 372 217 371 231 q 372 188 372 203 q 374 158 374 172 q 374 126 374 143 q 372 110 374 115 l 372 89 q 372 56 372 72 q 371 22 372 39 l 371 11 l 285 7 l 271 7 q 258 6 267 6 q 245 5 251 6 q 232 4 239 4 q 163 22 192 13 q 126 40 135 31 q 130 40 129 40 q 133 39 131 39 q 150 42 135 42 q 186 42 165 43 q 229 42 207 42 q 267 42 251 42 q 275 40 265 40 q 281 39 279 40 l 304 39 q 326 39 318 39 q 342 40 335 39 q 340 61 340 53 q 339 79 339 69 q 338 85 339 82 q 338 90 338 88 l 338 104 q 338 120 338 111 q 339 140 338 129 q 338 151 339 144 q 336 163 338 158 q 334 164 335 167 q 333 146 333 161 l 331 175 l 331 67 l 332 67 q 331 59 332 63 q 331 51 331 56 l 126 51 l 126 81 m 422 389 l 410 406 l 331 303 l 331 246 q 333 264 333 254 l 333 281 q 332 301 333 294 q 342 314 338 310 q 347 322 344 318 q 351 328 349 325 l 364 343 l 369 351 l 376 358 q 394 381 386 369 q 410 404 401 393 l 422 389 z "}}}
